<svg width="34" height="34" viewBox="0 0 34 34" fill="none" xmlns="http://www.w3.org/2000/svg">
<circle cx="17" cy="17" r="17" fill="#CBB482"/>
<path d="M19.0508 24.632C18.2081 24.632 17.5148 24.4667 16.9708 24.136C16.4268 23.8053 16.0214 23.368 15.7548 22.824C15.4881 22.2907 15.3548 21.7093 15.3548 21.08V20.92H17.5308C17.4348 21.8373 17.5948 22.5627 18.0108 23.096C18.4374 23.6293 19.0294 23.896 19.7868 23.896C20.0321 23.896 20.2561 23.8747 20.4588 23.832C20.6721 23.8 20.8961 23.736 21.1308 23.64L21.3068 24.056C20.9868 24.2373 20.6294 24.376 20.2348 24.472C19.8508 24.5787 19.4561 24.632 19.0508 24.632ZM16.5068 21.304C15.7708 21.304 15.0668 21.1707 14.3948 20.904C13.7334 20.6267 13.1468 20.2267 12.6348 19.704C12.1228 19.1813 11.7174 18.536 11.4188 17.768C11.1308 16.9893 10.9868 16.0933 10.9868 15.08C10.9868 14.0667 11.1308 13.176 11.4188 12.408C11.7174 11.6293 12.1228 10.9787 12.6348 10.456C13.1468 9.92267 13.7334 9.52267 14.3948 9.256C15.0668 8.98933 15.7708 8.856 16.5068 8.856C17.2534 8.856 17.9521 8.98933 18.6028 9.256C19.2641 9.52267 19.8508 9.92267 20.3628 10.456C20.8854 10.9787 21.2908 11.6293 21.5788 12.408C21.8774 13.176 22.0268 14.0667 22.0268 15.08C22.0268 16.0827 21.8774 16.9733 21.5788 17.752C21.2908 18.52 20.8854 19.1707 20.3628 19.704C19.8508 20.2267 19.2641 20.6267 18.6028 20.904C17.9521 21.1707 17.2534 21.304 16.5068 21.304ZM16.5068 20.712C17.0401 20.712 17.4988 20.568 17.8828 20.28C18.2774 19.992 18.6028 19.5973 18.8588 19.096C19.1148 18.584 19.3068 17.9867 19.4348 17.304C19.5628 16.6107 19.6267 15.8693 19.6267 15.08C19.6267 14.28 19.5628 13.5387 19.4348 12.856C19.3068 12.1733 19.1148 11.576 18.8588 11.064C18.6028 10.552 18.2774 10.1573 17.8828 9.88C17.4988 9.592 17.0401 9.448 16.5068 9.448C15.9734 9.448 15.5094 9.592 15.1148 9.88C14.7201 10.1573 14.3948 10.552 14.1388 11.064C13.8828 11.576 13.6908 12.1733 13.5628 12.856C13.4348 13.5387 13.3708 14.28 13.3708 15.08C13.3708 15.8693 13.4348 16.6107 13.5628 17.304C13.6908 17.9867 13.8828 18.584 14.1388 19.096C14.3948 19.5973 14.7201 19.992 15.1148 20.28C15.5094 20.568 15.9734 20.712 16.5068 20.712Z" fill="white"/>
</svg>
