<svg width="390" height="74" viewBox="0 0 390 74" fill="none" xmlns="http://www.w3.org/2000/svg">
<rect width="390" height="74" fill="#FFFBEC"/>
<path d="M36.544 51.224C35.4773 51.224 34.512 50.9893 33.648 50.52C32.7947 50.0507 32.1173 49.3627 31.616 48.456C31.1147 47.5493 30.864 46.44 30.864 45.128C30.864 44.1467 31.008 43.2773 31.296 42.52C31.5947 41.752 32.0053 41.1013 32.528 40.568C33.0507 40.0347 33.6533 39.6293 34.336 39.352C35.0187 39.0747 35.7547 38.936 36.544 38.936C37.3973 38.936 38.1227 39.096 38.72 39.416C39.328 39.7253 39.824 40.072 40.208 40.456L38.944 41.96C38.6453 41.6827 38.3147 41.448 37.952 41.256C37.6 41.064 37.1573 40.968 36.624 40.968C35.9627 40.968 35.3813 41.1333 34.88 41.464C34.3787 41.784 33.9893 42.248 33.712 42.856C33.4347 43.464 33.296 44.1947 33.296 45.048C33.296 45.912 33.424 46.6533 33.68 47.272C33.9467 47.88 34.3413 48.3493 34.864 48.68C35.3867 49.0107 36.032 49.176 36.8 49.176C37.088 49.176 37.3653 49.1387 37.632 49.064C37.8987 48.9787 38.112 48.8667 38.272 48.728V46.392H36.176V44.456H40.4V49.8C39.9947 50.1947 39.456 50.5307 38.784 50.808C38.112 51.0853 37.3653 51.224 36.544 51.224ZM44.5248 51V39.144H46.8928V51H44.5248ZM51.406 51V39.144H55.294C56.1687 39.144 56.9527 39.2613 57.646 39.496C58.35 39.7307 58.9047 40.12 59.31 40.664C59.726 41.1973 59.934 41.9333 59.934 42.872C59.934 43.768 59.726 44.5093 59.31 45.096C58.9047 45.672 58.3553 46.0987 57.662 46.376C56.9793 46.6533 56.2113 46.792 55.358 46.792H53.774V51H51.406ZM53.774 44.92H55.198C56.0087 44.92 56.6113 44.7493 57.006 44.408C57.4113 44.0667 57.614 43.5547 57.614 42.872C57.614 42.1893 57.4007 41.7147 56.974 41.448C56.558 41.1707 55.9393 41.032 55.118 41.032H53.774V44.92ZM67.6709 53.896L71.6549 38.104H73.2069L69.2389 53.896H67.6709ZM87.0034 51.224C85.9367 51.224 84.9714 50.9893 84.1074 50.52C83.254 50.0507 82.5767 49.3627 82.0754 48.456C81.574 47.5493 81.3234 46.44 81.3234 45.128C81.3234 44.1467 81.4674 43.2773 81.7554 42.52C82.054 41.752 82.4647 41.1013 82.9874 40.568C83.51 40.0347 84.1127 39.6293 84.7954 39.352C85.478 39.0747 86.214 38.936 87.0034 38.936C87.8567 38.936 88.582 39.096 89.1794 39.416C89.7874 39.7253 90.2834 40.072 90.6674 40.456L89.4034 41.96C89.1047 41.6827 88.774 41.448 88.4114 41.256C88.0594 41.064 87.6167 40.968 87.0834 40.968C86.422 40.968 85.8407 41.1333 85.3394 41.464C84.838 41.784 84.4487 42.248 84.1714 42.856C83.894 43.464 83.7554 44.1947 83.7554 45.048C83.7554 45.912 83.8834 46.6533 84.1394 47.272C84.406 47.88 84.8007 48.3493 85.3234 48.68C85.846 49.0107 86.4914 49.176 87.2594 49.176C87.5474 49.176 87.8247 49.1387 88.0914 49.064C88.358 48.9787 88.5714 48.8667 88.7314 48.728V46.392H86.6354V44.456H90.8594V49.8C90.454 50.1947 89.9154 50.5307 89.2434 50.808C88.5714 51.0853 87.8247 51.224 87.0034 51.224ZM94.9841 51V39.144H97.3521V49.016H102.168V51H94.9841ZM105.834 51V39.144H109.722C110.597 39.144 111.381 39.2613 112.074 39.496C112.778 39.7307 113.333 40.12 113.738 40.664C114.154 41.1973 114.362 41.9333 114.362 42.872C114.362 43.768 114.154 44.5093 113.738 45.096C113.333 45.672 112.783 46.0987 112.09 46.376C111.407 46.6533 110.639 46.792 109.786 46.792H108.202V51H105.834ZM108.202 44.92H109.626C110.437 44.92 111.039 44.7493 111.434 44.408C111.839 44.0667 112.042 43.5547 112.042 42.872C112.042 42.1893 111.829 41.7147 111.402 41.448C110.986 41.1707 110.367 41.032 109.546 41.032H108.202V44.92ZM116.872 47.272V45.576H121.24V47.272H116.872ZM124.921 51V49.08H127.481V41.928H125.321V40.456C125.919 40.3387 126.431 40.2 126.857 40.04C127.295 39.88 127.7 39.688 128.073 39.464H129.817V49.08H132.041V51H124.921ZM136.935 44.232C137.18 44.1787 137.463 44.1147 137.783 44.04C138.103 43.9547 138.386 43.8747 138.631 43.8C138.898 43.7147 139.255 43.6027 139.703 43.464C140.151 43.3253 140.642 43.1867 141.175 43.048C141.719 42.9093 142.263 42.792 142.807 42.696C143.362 42.6 143.884 42.552 144.375 42.552C145.218 42.552 145.954 42.712 146.583 43.032C147.223 43.3413 147.719 43.7893 148.071 44.376C148.423 44.9627 148.599 45.6613 148.599 46.472C148.599 47.1973 148.439 47.8587 148.119 48.456C147.81 49.0533 147.335 49.576 146.695 50.024C146.055 50.472 145.255 50.8347 144.295 51.112C143.346 51.4 142.236 51.5813 140.967 51.656L140.119 49.688C141.036 49.6667 141.879 49.5867 142.647 49.448C143.426 49.3093 144.098 49.112 144.663 48.856C145.239 48.5893 145.682 48.2533 145.991 47.848C146.311 47.4427 146.471 46.9733 146.471 46.44C146.471 46.0347 146.375 45.6827 146.183 45.384C146.002 45.0747 145.74 44.8347 145.399 44.664C145.058 44.4933 144.652 44.408 144.183 44.408C143.81 44.408 143.394 44.456 142.935 44.552C142.476 44.648 142.002 44.7707 141.511 44.92C141.031 45.0693 140.556 45.2293 140.087 45.4C139.618 45.5707 139.18 45.736 138.775 45.896C138.37 46.056 138.034 46.1947 137.767 46.312L136.935 44.232ZM152.586 39.992C152.906 39.9813 153.21 39.9707 153.498 39.96C153.786 39.9387 154.01 39.9227 154.17 39.912C154.501 39.88 154.906 39.8427 155.386 39.8C155.866 39.7573 156.405 39.7093 157.002 39.656C157.61 39.6027 158.255 39.5493 158.938 39.496C159.621 39.432 160.33 39.368 161.066 39.304C161.621 39.2613 162.175 39.224 162.73 39.192C163.285 39.1493 163.807 39.1173 164.298 39.096C164.799 39.064 165.231 39.0427 165.594 39.032L165.61 41.08C165.322 41.08 164.991 41.0853 164.618 41.096C164.245 41.1067 163.871 41.128 163.498 41.16C163.135 41.1813 162.81 41.224 162.522 41.288C162.042 41.416 161.594 41.6347 161.178 41.944C160.773 42.2427 160.415 42.6 160.106 43.016C159.797 43.432 159.557 43.88 159.386 44.36C159.226 44.8293 159.146 45.304 159.146 45.784C159.146 46.3067 159.237 46.7707 159.418 47.176C159.599 47.5707 159.85 47.912 160.17 48.2C160.501 48.4773 160.885 48.712 161.322 48.904C161.759 49.0853 162.229 49.224 162.73 49.32C163.242 49.416 163.77 49.48 164.314 49.512L163.562 51.704C162.89 51.6613 162.234 51.5547 161.594 51.384C160.965 51.2133 160.373 50.9787 159.818 50.68C159.274 50.3813 158.794 50.0187 158.378 49.592C157.962 49.1547 157.637 48.6587 157.402 48.104C157.167 47.5387 157.05 46.9093 157.05 46.216C157.05 45.4373 157.173 44.728 157.418 44.088C157.663 43.448 157.967 42.888 158.33 42.408C158.693 41.9173 159.055 41.5387 159.418 41.272C159.119 41.304 158.757 41.3467 158.33 41.4C157.914 41.4427 157.461 41.496 156.97 41.56C156.49 41.6133 155.999 41.672 155.498 41.736C154.997 41.8 154.511 41.8747 154.042 41.96C153.583 42.0347 153.167 42.1093 152.794 42.184L152.586 39.992ZM170.378 40.52C170.719 40.5627 171.082 40.5947 171.466 40.616C171.861 40.6267 172.207 40.632 172.506 40.632C173.167 40.632 173.834 40.5947 174.506 40.52C175.189 40.4453 175.845 40.3493 176.474 40.232C177.103 40.104 177.674 39.96 178.186 39.8L178.25 41.656C177.791 41.7733 177.242 41.896 176.602 42.024C175.973 42.1413 175.306 42.2427 174.602 42.328C173.898 42.4027 173.205 42.44 172.522 42.44C172.202 42.44 171.877 42.4347 171.546 42.424C171.215 42.4133 170.874 42.3973 170.522 42.376L170.378 40.52ZM176.602 38.12C176.538 38.3867 176.453 38.7333 176.346 39.16C176.239 39.5867 176.117 40.0347 175.978 40.504C175.85 40.9733 175.711 41.4373 175.562 41.896C175.327 42.664 175.018 43.48 174.634 44.344C174.25 45.208 173.834 46.0507 173.386 46.872C172.938 47.6933 172.485 48.424 172.026 49.064L170.09 48.072C170.453 47.624 170.81 47.128 171.162 46.584C171.514 46.04 171.845 45.48 172.154 44.904C172.463 44.328 172.741 43.7733 172.986 43.24C173.242 42.696 173.445 42.2053 173.594 41.768C173.797 41.2027 173.973 40.5733 174.122 39.88C174.282 39.176 174.373 38.5147 174.394 37.896L176.602 38.12ZM180.346 43.096C180.325 43.4373 180.314 43.7787 180.314 44.12C180.325 44.4507 180.335 44.792 180.346 45.144C180.357 45.3893 180.367 45.704 180.378 46.088C180.399 46.4613 180.421 46.8613 180.442 47.288C180.463 47.704 180.479 48.104 180.49 48.488C180.511 48.8613 180.522 49.16 180.522 49.384C180.522 49.8747 180.421 50.3227 180.218 50.728C180.015 51.1227 179.69 51.4373 179.242 51.672C178.805 51.9067 178.202 52.024 177.434 52.024C176.773 52.024 176.175 51.9227 175.642 51.72C175.109 51.528 174.682 51.24 174.362 50.856C174.042 50.4613 173.882 49.9707 173.882 49.384C173.882 48.8613 174.021 48.392 174.298 47.976C174.575 47.5493 174.975 47.2187 175.498 46.984C176.031 46.7387 176.671 46.616 177.418 46.616C178.357 46.616 179.221 46.7493 180.01 47.016C180.799 47.272 181.509 47.6027 182.138 48.008C182.767 48.4133 183.306 48.8187 183.754 49.224L182.682 50.936C182.394 50.68 182.063 50.392 181.69 50.072C181.327 49.752 180.917 49.4533 180.458 49.176C180.01 48.8987 179.519 48.6693 178.986 48.488C178.463 48.3067 177.898 48.216 177.29 48.216C176.831 48.216 176.463 48.3067 176.186 48.488C175.909 48.6693 175.77 48.904 175.77 49.192C175.77 49.4907 175.887 49.7307 176.122 49.912C176.367 50.0933 176.709 50.184 177.146 50.184C177.509 50.184 177.797 50.1253 178.01 50.008C178.223 49.88 178.373 49.704 178.458 49.48C178.543 49.2453 178.586 48.984 178.586 48.696C178.586 48.4507 178.575 48.104 178.554 47.656C178.533 47.208 178.506 46.712 178.474 46.168C178.453 45.624 178.431 45.08 178.41 44.536C178.389 43.992 178.367 43.512 178.346 43.096H180.346ZM183.098 43.944C182.789 43.688 182.405 43.416 181.946 43.128C181.487 42.84 181.013 42.568 180.522 42.312C180.042 42.0453 179.621 41.832 179.258 41.672L180.282 40.088C180.57 40.216 180.895 40.376 181.258 40.568C181.631 40.7493 182.005 40.9413 182.378 41.144C182.762 41.3467 183.114 41.5493 183.434 41.752C183.765 41.944 184.031 42.1147 184.234 42.264L183.098 43.944ZM193.818 39.816C194.309 39.88 194.858 39.928 195.466 39.96C196.085 39.9813 196.709 39.992 197.338 39.992C197.978 39.9813 198.591 39.96 199.178 39.928C199.765 39.8853 200.271 39.8427 200.698 39.8V41.864C200.207 41.9067 199.669 41.944 199.082 41.976C198.495 41.9973 197.893 42.008 197.274 42.008C196.655 42.008 196.047 41.9973 195.45 41.976C194.863 41.944 194.319 41.9067 193.818 41.864V39.816ZM195.098 46.648C195.034 46.9147 194.986 47.1547 194.954 47.368C194.922 47.5707 194.906 47.7787 194.906 47.992C194.906 48.1627 194.949 48.3227 195.034 48.472C195.119 48.6107 195.247 48.7333 195.418 48.84C195.599 48.936 195.829 49.0107 196.106 49.064C196.394 49.1067 196.741 49.128 197.146 49.128C197.861 49.128 198.533 49.096 199.162 49.032C199.791 48.9573 200.458 48.8507 201.162 48.712L201.194 50.872C200.682 50.968 200.09 51.0427 199.418 51.096C198.757 51.1493 197.973 51.176 197.066 51.176C195.69 51.176 194.666 50.9467 193.994 50.488C193.322 50.0187 192.986 49.3733 192.986 48.552C192.986 48.2427 193.007 47.9227 193.05 47.592C193.103 47.2507 193.173 46.8773 193.258 46.472L195.098 46.648ZM191.354 38.744C191.311 38.8507 191.263 39 191.21 39.192C191.157 39.384 191.103 39.5707 191.05 39.752C191.007 39.9333 190.975 40.072 190.954 40.168C190.922 40.392 190.869 40.6853 190.794 41.048C190.73 41.4 190.661 41.8 190.586 42.248C190.522 42.6853 190.458 43.1333 190.394 43.592C190.33 44.0507 190.277 44.4933 190.234 44.92C190.202 45.3467 190.186 45.72 190.186 46.04C190.186 46.1893 190.186 46.36 190.186 46.552C190.197 46.744 190.218 46.92 190.25 47.08C190.325 46.8987 190.405 46.7173 190.49 46.536C190.575 46.3547 190.661 46.1733 190.746 45.992C190.831 45.8 190.906 45.6187 190.97 45.448L191.962 46.232C191.813 46.6693 191.658 47.1387 191.498 47.64C191.349 48.1413 191.21 48.616 191.082 49.064C190.965 49.5013 190.874 49.864 190.81 50.152C190.789 50.2693 190.767 50.4027 190.746 50.552C190.735 50.7013 190.73 50.8187 190.73 50.904C190.73 50.9893 190.73 51.0907 190.73 51.208C190.741 51.336 190.751 51.4533 190.762 51.56L188.906 51.688C188.746 51.1333 188.602 50.3973 188.474 49.48C188.346 48.552 188.282 47.544 188.282 46.456C188.282 45.8587 188.309 45.2507 188.362 44.632C188.415 44.0133 188.479 43.4213 188.554 42.856C188.629 42.28 188.698 41.7573 188.762 41.288C188.837 40.8187 188.901 40.4293 188.954 40.12C188.975 39.896 189.002 39.6453 189.034 39.368C189.077 39.08 189.103 38.808 189.114 38.552L191.354 38.744ZM211.034 46.888C210.981 46.4613 211.013 46.088 211.13 45.768C211.258 45.448 211.434 45.16 211.658 44.904C211.893 44.648 212.149 44.4133 212.426 44.2C212.714 43.9867 212.981 43.7787 213.226 43.576C213.482 43.3733 213.69 43.1653 213.85 42.952C214.01 42.7387 214.09 42.504 214.09 42.248C214.09 41.928 214.01 41.656 213.85 41.432C213.69 41.208 213.455 41.0373 213.146 40.92C212.847 40.8027 212.485 40.744 212.058 40.744C211.567 40.744 211.119 40.8507 210.714 41.064C210.309 41.2773 209.909 41.592 209.514 42.008L208.202 40.792C208.714 40.2053 209.317 39.736 210.01 39.384C210.714 39.0213 211.487 38.84 212.33 38.84C213.109 38.84 213.797 38.9573 214.394 39.192C215.002 39.4267 215.477 39.784 215.818 40.264C216.17 40.7333 216.346 41.3253 216.346 42.04C216.346 42.4347 216.261 42.7813 216.09 43.08C215.93 43.368 215.717 43.6293 215.45 43.864C215.194 44.088 214.922 44.3067 214.634 44.52C214.346 44.7227 214.079 44.936 213.834 45.16C213.589 45.384 213.397 45.6347 213.258 45.912C213.119 46.1893 213.066 46.5147 213.098 46.888H211.034ZM212.074 51.144C211.669 51.144 211.333 51.0107 211.066 50.744C210.799 50.4773 210.666 50.1413 210.666 49.736C210.666 49.32 210.799 48.9787 211.066 48.712C211.333 48.4453 211.669 48.312 212.074 48.312C212.479 48.312 212.815 48.4453 213.082 48.712C213.349 48.9787 213.482 49.32 213.482 49.736C213.482 50.1413 213.349 50.4773 213.082 50.744C212.815 51.0107 212.479 51.144 212.074 51.144Z" fill="#13293A"/>
<line x1="15" y1="73.5" x2="375" y2="73.5" stroke="#13293A"/>
<circle cx="350.5" cy="44.5" r="9.5" fill="#F6931A"/>
<path d="M348 40L354.5 44.5L348 49" stroke="white" stroke-width="2" stroke-linecap="round" stroke-linejoin="round"/>
</svg>
