<svg width="390" height="59" viewBox="0 0 390 59" fill="none" xmlns="http://www.w3.org/2000/svg">
<rect width="390" height="59" fill="#FFFBEC"/>
<path d="M33.488 24.368C34.0747 24.432 34.736 24.48 35.472 24.512C36.208 24.544 36.9973 24.56 37.84 24.56C38.3627 24.56 38.9013 24.5493 39.456 24.528C40.0213 24.5067 40.5653 24.48 41.088 24.448C41.6107 24.416 42.0747 24.3787 42.48 24.336V26.464C42.1067 26.496 41.6533 26.528 41.12 26.56C40.5973 26.592 40.048 26.6187 39.472 26.64C38.9067 26.6507 38.368 26.656 37.856 26.656C37.024 26.656 36.2507 26.64 35.536 26.608C34.8213 26.576 34.1387 26.5333 33.488 26.48V24.368ZM34.832 31.152C34.7573 31.4293 34.6933 31.7013 34.64 31.968C34.5867 32.2347 34.56 32.5013 34.56 32.768C34.56 33.28 34.816 33.7013 35.328 34.032C35.8507 34.3627 36.688 34.528 37.84 34.528C38.5653 34.528 39.264 34.5013 39.936 34.448C40.608 34.3947 41.2427 34.32 41.84 34.224C42.448 34.128 42.9867 34.016 43.456 33.888L43.472 36.144C43.0027 36.2507 42.48 36.3413 41.904 36.416C41.328 36.5013 40.704 36.5653 40.032 36.608C39.3707 36.6613 38.6667 36.688 37.92 36.688C36.704 36.688 35.6853 36.5547 34.864 36.288C34.0427 36.0213 33.4293 35.6373 33.024 35.136C32.6187 34.624 32.416 34 32.416 33.264C32.416 32.7947 32.4533 32.368 32.528 31.984C32.6027 31.6 32.672 31.2587 32.736 30.96L34.832 31.152ZM56.832 24.112C56.7573 24.2187 56.672 24.3413 56.576 24.48C56.4907 24.608 56.4053 24.736 56.32 24.864C56.128 25.152 55.9147 25.488 55.68 25.872C55.456 26.2453 55.2213 26.6453 54.976 27.072C54.7307 27.488 54.4907 27.904 54.256 28.32C54.032 28.736 53.8187 29.12 53.616 29.472C53.9147 29.3013 54.2187 29.1787 54.528 29.104C54.8373 29.0293 55.1467 28.992 55.456 28.992C56.0533 28.992 56.5227 29.1733 56.864 29.536C57.216 29.888 57.408 30.4 57.44 31.072C57.4507 31.3067 57.456 31.5893 57.456 31.92C57.456 32.2507 57.456 32.5813 57.456 32.912C57.4667 33.2427 57.4827 33.52 57.504 33.744C57.536 34.0533 57.648 34.2773 57.84 34.416C58.0427 34.544 58.2773 34.608 58.544 34.608C58.8853 34.608 59.1947 34.5067 59.472 34.304C59.76 34.1013 60.016 33.824 60.24 33.472C60.464 33.1093 60.656 32.704 60.816 32.256C60.9867 31.7973 61.1307 31.3227 61.248 30.832L62.976 32.24C62.6987 33.1467 62.3467 33.9467 61.92 34.64C61.4933 35.3227 60.9707 35.8507 60.352 36.224C59.744 36.608 59.0293 36.8 58.208 36.8C57.6213 36.8 57.1307 36.6933 56.736 36.48C56.3413 36.2773 56.048 36.0107 55.856 35.68C55.664 35.3387 55.5573 34.9707 55.536 34.576C55.5147 34.288 55.4987 33.968 55.488 33.616C55.488 33.264 55.4827 32.9227 55.472 32.592C55.472 32.2507 55.4613 31.9733 55.44 31.76C55.4187 31.4827 55.328 31.264 55.168 31.104C55.008 30.944 54.784 30.864 54.496 30.864C54.144 30.864 53.808 30.976 53.488 31.2C53.168 31.424 52.8747 31.7173 52.608 32.08C52.352 32.4427 52.128 32.8427 51.936 33.28C51.8293 33.5147 51.7173 33.792 51.6 34.112C51.4827 34.432 51.3707 34.7627 51.264 35.104C51.1573 35.4453 51.056 35.7653 50.96 36.064C50.864 36.3733 50.784 36.6347 50.72 36.848L48.464 36.08C48.6667 35.5467 48.912 34.9387 49.2 34.256C49.4987 33.5627 49.824 32.8373 50.176 32.08C50.528 31.3227 50.8853 30.5707 51.248 29.824C51.6107 29.0773 51.9573 28.3733 52.288 27.712C52.6187 27.04 52.912 26.4587 53.168 25.968C53.4347 25.4667 53.6373 25.088 53.776 24.832C53.8827 24.6187 54.0053 24.3787 54.144 24.112C54.2827 23.8453 54.4213 23.5413 54.56 23.2L56.832 24.112ZM66.528 25.52C66.8693 25.5627 67.232 25.5947 67.616 25.616C68.0107 25.6267 68.3573 25.632 68.656 25.632C69.3173 25.632 69.984 25.5947 70.656 25.52C71.3387 25.4453 71.9947 25.3493 72.624 25.232C73.2533 25.104 73.824 24.96 74.336 24.8L74.4 26.656C73.9413 26.7733 73.392 26.896 72.752 27.024C72.1227 27.1413 71.456 27.2427 70.752 27.328C70.048 27.4027 69.3547 27.44 68.672 27.44C68.352 27.44 68.0267 27.4347 67.696 27.424C67.3653 27.4133 67.024 27.3973 66.672 27.376L66.528 25.52ZM72.752 23.12C72.688 23.3867 72.6027 23.7333 72.496 24.16C72.3893 24.5867 72.2667 25.0347 72.128 25.504C72 25.9733 71.8613 26.4373 71.712 26.896C71.4773 27.664 71.168 28.48 70.784 29.344C70.4 30.208 69.984 31.0507 69.536 31.872C69.088 32.6933 68.6347 33.424 68.176 34.064L66.24 33.072C66.6027 32.624 66.96 32.128 67.312 31.584C67.664 31.04 67.9947 30.48 68.304 29.904C68.6133 29.328 68.8907 28.7733 69.136 28.24C69.392 27.696 69.5947 27.2053 69.744 26.768C69.9467 26.2027 70.1227 25.5733 70.272 24.88C70.432 24.176 70.5227 23.5147 70.544 22.896L72.752 23.12ZM76.496 28.096C76.4747 28.4373 76.464 28.7787 76.464 29.12C76.4747 29.4507 76.4853 29.792 76.496 30.144C76.5067 30.3893 76.5173 30.704 76.528 31.088C76.5493 31.4613 76.5707 31.8613 76.592 32.288C76.6133 32.704 76.6293 33.104 76.64 33.488C76.6613 33.8613 76.672 34.16 76.672 34.384C76.672 34.8747 76.5707 35.3227 76.368 35.728C76.1653 36.1227 75.84 36.4373 75.392 36.672C74.9547 36.9067 74.352 37.024 73.584 37.024C72.9227 37.024 72.3253 36.9227 71.792 36.72C71.2587 36.528 70.832 36.24 70.512 35.856C70.192 35.4613 70.032 34.9707 70.032 34.384C70.032 33.8613 70.1707 33.392 70.448 32.976C70.7253 32.5493 71.1253 32.2187 71.648 31.984C72.1813 31.7387 72.8213 31.616 73.568 31.616C74.5067 31.616 75.3707 31.7493 76.16 32.016C76.9493 32.272 77.6587 32.6027 78.288 33.008C78.9173 33.4133 79.456 33.8187 79.904 34.224L78.832 35.936C78.544 35.68 78.2133 35.392 77.84 35.072C77.4773 34.752 77.0667 34.4533 76.608 34.176C76.16 33.8987 75.6693 33.6693 75.136 33.488C74.6133 33.3067 74.048 33.216 73.44 33.216C72.9813 33.216 72.6133 33.3067 72.336 33.488C72.0587 33.6693 71.92 33.904 71.92 34.192C71.92 34.4907 72.0373 34.7307 72.272 34.912C72.5173 35.0933 72.8587 35.184 73.296 35.184C73.6587 35.184 73.9467 35.1253 74.16 35.008C74.3733 34.88 74.5227 34.704 74.608 34.48C74.6933 34.2453 74.736 33.984 74.736 33.696C74.736 33.4507 74.7253 33.104 74.704 32.656C74.6827 32.208 74.656 31.712 74.624 31.168C74.6027 30.624 74.5813 30.08 74.56 29.536C74.5387 28.992 74.5173 28.512 74.496 28.096H76.496ZM79.248 28.944C78.9387 28.688 78.5547 28.416 78.096 28.128C77.6373 27.84 77.1627 27.568 76.672 27.312C76.192 27.0453 75.7707 26.832 75.408 26.672L76.432 25.088C76.72 25.216 77.0453 25.376 77.408 25.568C77.7813 25.7493 78.1547 25.9413 78.528 26.144C78.912 26.3467 79.264 26.5493 79.584 26.752C79.9147 26.944 80.1813 27.1147 80.384 27.264L79.248 28.944ZM89.776 23.008C89.7653 23.0933 89.7493 23.2267 89.728 23.408C89.7067 23.5787 89.6853 23.7547 89.664 23.936C89.6533 24.1067 89.6427 24.2613 89.632 24.4C89.6107 24.7093 89.5893 25.0507 89.568 25.424C89.5573 25.7867 89.5467 26.1653 89.536 26.56C89.5253 26.944 89.5147 27.3333 89.504 27.728C89.504 28.1227 89.504 28.5067 89.504 28.88C89.504 29.3173 89.5093 29.8027 89.52 30.336C89.5307 30.8587 89.5413 31.3813 89.552 31.904C89.5733 32.416 89.584 32.8853 89.584 33.312C89.5947 33.7387 89.6 34.0693 89.6 34.304C89.6 34.9653 89.5253 35.4773 89.376 35.84C89.2373 36.2027 89.0347 36.4533 88.768 36.592C88.5013 36.7413 88.192 36.816 87.84 36.816C87.456 36.816 87.0453 36.736 86.608 36.576C86.1707 36.4267 85.76 36.2133 85.376 35.936C85.0027 35.6587 84.6933 35.3387 84.448 34.976C84.2133 34.6027 84.096 34.2027 84.096 33.776C84.096 33.264 84.288 32.7573 84.672 32.256C85.0667 31.744 85.584 31.2747 86.224 30.848C86.8747 30.4213 87.5733 30.08 88.32 29.824C89.0347 29.5573 89.7707 29.3653 90.528 29.248C91.2853 29.12 91.968 29.056 92.576 29.056C93.3973 29.056 94.1387 29.1947 94.8 29.472C95.4613 29.7387 95.9893 30.1333 96.384 30.656C96.7787 31.1787 96.976 31.808 96.976 32.544C96.976 33.1627 96.8587 33.7333 96.624 34.256C96.3893 34.7787 96.0107 35.232 95.488 35.616C94.976 35.9893 94.2933 36.2827 93.44 36.496C93.0773 36.5707 92.7147 36.624 92.352 36.656C92 36.6987 91.664 36.7307 91.344 36.752L90.608 34.688C90.9707 34.688 91.3173 34.6827 91.648 34.672C91.9893 34.6507 92.2987 34.6187 92.576 34.576C93.0133 34.4907 93.408 34.3627 93.76 34.192C94.112 34.0213 94.3893 33.7973 94.592 33.52C94.7947 33.2427 94.896 32.912 94.896 32.528C94.896 32.1653 94.7947 31.856 94.592 31.6C94.4 31.344 94.128 31.1467 93.776 31.008C93.424 30.8693 93.0133 30.8 92.544 30.8C91.872 30.8 91.1893 30.8693 90.496 31.008C89.8133 31.1467 89.1573 31.3387 88.528 31.584C88.0587 31.7653 87.6373 31.9787 87.264 32.224C86.8907 32.4587 86.5973 32.704 86.384 32.96C86.1707 33.216 86.064 33.4613 86.064 33.696C86.064 33.824 86.1013 33.9467 86.176 34.064C86.2613 34.1707 86.368 34.2667 86.496 34.352C86.624 34.4373 86.752 34.5067 86.88 34.56C87.0187 34.6027 87.136 34.624 87.232 34.624C87.3813 34.624 87.504 34.5813 87.6 34.496C87.696 34.4 87.744 34.2187 87.744 33.952C87.744 33.664 87.7333 33.2533 87.712 32.72C87.7013 32.176 87.6853 31.5733 87.664 30.912C87.6533 30.2507 87.648 29.5947 87.648 28.944C87.648 28.496 87.648 28.0427 87.648 27.584C87.6587 27.1253 87.664 26.688 87.664 26.272C87.664 25.856 87.664 25.488 87.664 25.168C87.6747 24.848 87.68 24.5973 87.68 24.416C87.68 24.2987 87.6747 24.1493 87.664 23.968C87.6533 23.7867 87.6373 23.6053 87.616 23.424C87.6053 23.232 87.5893 23.0933 87.568 23.008H89.776ZM94.336 24.736C94.7413 24.928 95.1947 25.1627 95.696 25.44C96.208 25.7173 96.6933 25.9947 97.152 26.272C97.6213 26.5387 97.9947 26.7787 98.272 26.992L97.312 28.624C97.1093 28.4533 96.8427 28.2613 96.512 28.048C96.192 27.8347 95.84 27.616 95.456 27.392C95.0827 27.168 94.72 26.96 94.368 26.768C94.016 26.5653 93.712 26.4053 93.456 26.288L94.336 24.736ZM84.528 25.616C84.9973 25.6693 85.408 25.7067 85.76 25.728C86.1227 25.7387 86.448 25.744 86.736 25.744C87.152 25.744 87.6107 25.728 88.112 25.696C88.6133 25.6533 89.1253 25.6 89.648 25.536C90.1707 25.4613 90.6773 25.376 91.168 25.28C91.6693 25.184 92.1227 25.0773 92.528 24.96L92.576 26.944C92.128 27.0507 91.6427 27.1467 91.12 27.232C90.5973 27.3067 90.0693 27.376 89.536 27.44C89.0133 27.504 88.512 27.552 88.032 27.584C87.5627 27.616 87.152 27.632 86.8 27.632C86.2667 27.632 85.8293 27.6267 85.488 27.616C85.1467 27.6053 84.8373 27.584 84.56 27.552L84.528 25.616ZM106.112 23.76L107.744 23.184C107.947 23.568 108.149 23.9893 108.352 24.448C108.555 24.9067 108.736 25.3547 108.896 25.792C109.056 26.2187 109.168 26.6027 109.232 26.944L107.472 27.632C107.419 27.2907 107.323 26.896 107.184 26.448C107.045 26 106.88 25.5413 106.688 25.072C106.507 24.6027 106.315 24.1653 106.112 23.76ZM109.28 23.088L110.944 22.624C111.115 23.0293 111.275 23.4667 111.424 23.936C111.573 24.4053 111.707 24.864 111.824 25.312C111.941 25.7493 112.021 26.1387 112.064 26.48L110.272 27.04C110.24 26.7093 110.171 26.32 110.064 25.872C109.968 25.4133 109.851 24.944 109.712 24.464C109.573 23.9733 109.429 23.5147 109.28 23.088ZM108.384 30.256L109.344 28.976C109.835 29.3067 110.347 29.6853 110.88 30.112C111.424 30.528 111.936 30.944 112.416 31.36C112.907 31.776 113.291 32.16 113.568 32.512L112.528 33.984C112.251 33.6213 111.877 33.2213 111.408 32.784C110.949 32.336 110.453 31.8933 109.92 31.456C109.387 31.008 108.875 30.608 108.384 30.256ZM106.464 28.496H108.288V37.28H106.464V28.496ZM113.584 28.464H115.472V37.248H113.584V28.464ZM107.328 34.656H114.48V36.4H107.328V34.656ZM113.76 22.848L115.76 23.28C115.589 23.8987 115.381 24.5173 115.136 25.136C114.901 25.7547 114.645 26.336 114.368 26.88C114.101 27.424 113.835 27.904 113.568 28.32C113.429 28.224 113.243 28.1227 113.008 28.016C112.773 27.9093 112.539 27.808 112.304 27.712C112.08 27.6053 111.877 27.52 111.696 27.456C111.984 27.0827 112.256 26.6453 112.512 26.144C112.779 25.6427 113.019 25.1093 113.232 24.544C113.445 23.968 113.621 23.4027 113.76 22.848ZM111.376 28.112L113.072 28.48C112.72 29.696 112.245 30.848 111.648 31.936C111.061 33.024 110.416 33.936 109.712 34.672C109.616 34.576 109.477 34.4587 109.296 34.32C109.125 34.1813 108.949 34.048 108.768 33.92C108.597 33.7813 108.448 33.6693 108.32 33.584C109.003 32.9547 109.611 32.16 110.144 31.2C110.677 30.2293 111.088 29.2 111.376 28.112ZM102.976 22.4H104.816V37.424H102.976V22.4ZM101.456 25.568L102.736 25.744C102.736 26.2453 102.709 26.7787 102.656 27.344C102.603 27.8987 102.517 28.4373 102.4 28.96C102.293 29.472 102.144 29.9307 101.952 30.336L100.704 29.776C100.864 29.4347 100.997 29.0293 101.104 28.56C101.221 28.0907 101.307 27.5947 101.36 27.072C101.424 26.5493 101.456 26.048 101.456 25.568ZM104.512 25.6L105.696 25.088C105.952 25.5573 106.192 26.064 106.416 26.608C106.64 27.152 106.789 27.6213 106.864 28.016L105.6 28.608C105.557 28.3413 105.477 28.0373 105.36 27.696C105.253 27.3547 105.125 27.0027 104.976 26.64C104.827 26.2667 104.672 25.92 104.512 25.6ZM121.408 23.888C121.632 23.9093 121.867 23.9307 122.112 23.952C122.368 23.9627 122.581 23.968 122.752 23.968C122.987 23.968 123.253 23.9627 123.552 23.952C123.861 23.9413 124.176 23.9307 124.496 23.92C124.816 23.9093 125.12 23.8933 125.408 23.872C125.696 23.8507 125.931 23.8347 126.112 23.824C126.304 23.8133 126.496 23.7867 126.688 23.744C126.891 23.7013 127.061 23.6533 127.2 23.6L128.48 24.592C128.373 24.72 128.272 24.8373 128.176 24.944C128.08 25.04 128 25.1467 127.936 25.264C127.755 25.5627 127.547 25.9733 127.312 26.496C127.077 27.008 126.827 27.5627 126.56 28.16C126.304 28.7573 126.053 29.3387 125.808 29.904C125.648 30.2667 125.483 30.6507 125.312 31.056C125.141 31.4613 124.965 31.8667 124.784 32.272C124.603 32.6667 124.427 33.04 124.256 33.392C124.085 33.7333 123.92 34.032 123.76 34.288C123.44 34.768 123.083 35.1253 122.688 35.36C122.293 35.584 121.819 35.696 121.264 35.696C120.56 35.696 119.973 35.4667 119.504 35.008C119.035 34.5493 118.8 33.9147 118.8 33.104C118.8 32.464 118.944 31.8667 119.232 31.312C119.52 30.7573 119.925 30.2773 120.448 29.872C120.981 29.456 121.605 29.136 122.32 28.912C123.035 28.688 123.819 28.576 124.672 28.576C125.6 28.576 126.496 28.6827 127.36 28.896C128.224 29.1093 129.029 29.3813 129.776 29.712C130.533 30.0427 131.211 30.3893 131.808 30.752C132.416 31.104 132.933 31.424 133.36 31.712L132.416 33.936C131.936 33.488 131.397 33.056 130.8 32.64C130.203 32.224 129.563 31.8453 128.88 31.504C128.208 31.152 127.488 30.8747 126.72 30.672C125.963 30.4693 125.173 30.368 124.352 30.368C123.573 30.368 122.907 30.4907 122.352 30.736C121.808 30.9813 121.392 31.2907 121.104 31.664C120.816 32.0267 120.672 32.4053 120.672 32.8C120.672 33.056 120.736 33.2533 120.864 33.392C121.003 33.5307 121.163 33.6 121.344 33.6C121.515 33.6 121.659 33.5573 121.776 33.472C121.893 33.3867 122.027 33.2427 122.176 33.04C122.315 32.848 122.448 32.6187 122.576 32.352C122.715 32.0853 122.853 31.792 122.992 31.472C123.141 31.152 123.285 30.8267 123.424 30.496C123.573 30.1653 123.717 29.8453 123.856 29.536C124.048 29.1093 124.245 28.6667 124.448 28.208C124.651 27.7387 124.843 27.2853 125.024 26.848C125.216 26.4107 125.392 26.0267 125.552 25.696C125.392 25.7067 125.195 25.7173 124.96 25.728C124.725 25.728 124.475 25.7333 124.208 25.744C123.952 25.7547 123.696 25.7707 123.44 25.792C123.195 25.8027 122.981 25.8133 122.8 25.824C122.64 25.8347 122.432 25.8507 122.176 25.872C121.931 25.8933 121.707 25.92 121.504 25.952L121.408 23.888ZM131.952 27.68C131.888 28.8107 131.771 29.8507 131.6 30.8C131.44 31.7387 131.179 32.5973 130.816 33.376C130.464 34.144 129.979 34.8427 129.36 35.472C128.741 36.0907 127.952 36.6507 126.992 37.152L125.296 35.76C126.277 35.3333 127.061 34.8427 127.648 34.288C128.245 33.7333 128.693 33.152 128.992 32.544C129.301 31.936 129.515 31.344 129.632 30.768C129.749 30.1813 129.824 29.6533 129.856 29.184C129.877 28.8747 129.888 28.5707 129.888 28.272C129.888 27.9627 129.877 27.6853 129.856 27.44L131.952 27.68ZM143.536 23.12C143.493 23.2693 143.451 23.4187 143.408 23.568C143.376 23.7067 143.344 23.84 143.312 23.968C143.216 24.4693 143.125 25.0453 143.04 25.696C142.955 26.336 142.885 27.008 142.832 27.712C142.779 28.4053 142.752 29.088 142.752 29.76C142.752 30.592 142.795 31.36 142.88 32.064C142.965 32.7573 143.083 33.4027 143.232 34C143.392 34.5867 143.563 35.1467 143.744 35.68L141.904 36.24C141.744 35.76 141.589 35.1893 141.44 34.528C141.301 33.8667 141.184 33.1573 141.088 32.4C140.992 31.632 140.944 30.8587 140.944 30.08C140.944 29.5467 140.96 29.0133 140.992 28.48C141.035 27.936 141.077 27.4027 141.12 26.88C141.163 26.3467 141.211 25.84 141.264 25.36C141.328 24.8693 141.381 24.4267 141.424 24.032C141.435 23.8827 141.445 23.7227 141.456 23.552C141.467 23.3707 141.467 23.2107 141.456 23.072L143.536 23.12ZM140.688 24.896C141.701 24.896 142.651 24.8747 143.536 24.832C144.432 24.7893 145.291 24.7147 146.112 24.608C146.944 24.5013 147.771 24.3467 148.592 24.144L148.608 26C148.053 26.096 147.44 26.1867 146.768 26.272C146.107 26.3467 145.413 26.4107 144.688 26.464C143.973 26.5173 143.269 26.56 142.576 26.592C141.883 26.6133 141.232 26.624 140.624 26.624C140.347 26.624 140.032 26.6187 139.68 26.608C139.339 26.5973 138.997 26.5867 138.656 26.576C138.325 26.5547 138.037 26.5387 137.792 26.528L137.744 24.672C137.925 24.6933 138.187 24.7253 138.528 24.768C138.869 24.8 139.232 24.832 139.616 24.864C140.011 24.8853 140.368 24.896 140.688 24.896ZM147.584 27.232C147.552 27.328 147.504 27.4613 147.44 27.632C147.376 27.8027 147.312 27.9787 147.248 28.16C147.195 28.3413 147.152 28.4853 147.12 28.592C146.811 29.552 146.432 30.432 145.984 31.232C145.547 32.0213 145.072 32.7147 144.56 33.312C144.048 33.8987 143.541 34.3787 143.04 34.752C142.517 35.1467 141.92 35.4933 141.248 35.792C140.576 36.08 139.899 36.224 139.216 36.224C138.832 36.224 138.475 36.144 138.144 35.984C137.813 35.824 137.547 35.5733 137.344 35.232C137.152 34.88 137.056 34.4373 137.056 33.904C137.056 33.328 137.173 32.7627 137.408 32.208C137.643 31.6533 137.968 31.1253 138.384 30.624C138.8 30.1227 139.285 29.68 139.84 29.296C140.395 28.9013 140.992 28.592 141.632 28.368C142.155 28.176 142.725 28.0213 143.344 27.904C143.973 27.7867 144.592 27.728 145.2 27.728C146.192 27.728 147.077 27.9093 147.856 28.272C148.645 28.6347 149.264 29.1307 149.712 29.76C150.16 30.3893 150.384 31.1253 150.384 31.968C150.384 32.5333 150.293 33.088 150.112 33.632C149.931 34.1653 149.632 34.6613 149.216 35.12C148.811 35.5787 148.272 35.9733 147.6 36.304C146.928 36.6347 146.101 36.8747 145.12 37.024L144.064 35.344C145.088 35.2267 145.92 34.9973 146.56 34.656C147.2 34.304 147.664 33.8827 147.952 33.392C148.251 32.9013 148.4 32.3947 148.4 31.872C148.4 31.4027 148.272 30.9813 148.016 30.608C147.771 30.2347 147.397 29.936 146.896 29.712C146.405 29.4773 145.797 29.36 145.072 29.36C144.347 29.36 143.696 29.44 143.12 29.6C142.555 29.76 142.08 29.9307 141.696 30.112C141.163 30.368 140.688 30.6933 140.272 31.088C139.856 31.472 139.531 31.8773 139.296 32.304C139.061 32.7307 138.944 33.1253 138.944 33.488C138.944 33.744 139.003 33.9413 139.12 34.08C139.237 34.208 139.424 34.272 139.68 34.272C140.064 34.272 140.507 34.1493 141.008 33.904C141.509 33.648 142.005 33.2907 142.496 32.832C143.072 32.2987 143.616 31.6587 144.128 30.912C144.64 30.1653 145.061 29.2373 145.392 28.128C145.424 28.0213 145.456 27.8827 145.488 27.712C145.52 27.5413 145.547 27.3707 145.568 27.2C145.6 27.0187 145.621 26.8747 145.632 26.768L147.584 27.232ZM158.976 23.152C158.923 23.344 158.864 23.584 158.8 23.872C158.736 24.16 158.672 24.464 158.608 24.784C158.544 25.0933 158.485 25.3973 158.432 25.696C158.389 25.9947 158.357 26.256 158.336 26.48C158.528 26.16 158.757 25.8507 159.024 25.552C159.291 25.2427 159.589 24.9653 159.92 24.72C160.261 24.464 160.629 24.2613 161.024 24.112C161.429 23.9627 161.856 23.888 162.304 23.888C163.051 23.888 163.723 24.1173 164.32 24.576C164.917 25.0347 165.387 25.6907 165.728 26.544C166.08 27.3973 166.256 28.4107 166.256 29.584C166.256 30.7147 166.091 31.7067 165.76 32.56C165.429 33.4027 164.955 34.1227 164.336 34.72C163.717 35.3173 162.976 35.8027 162.112 36.176C161.259 36.56 160.304 36.848 159.248 37.04L158.032 35.184C158.917 35.0453 159.728 34.8587 160.464 34.624C161.211 34.3787 161.851 34.048 162.384 33.632C162.928 33.216 163.344 32.6827 163.632 32.032C163.931 31.3707 164.08 30.56 164.08 29.6C164.08 28.7787 163.995 28.0853 163.824 27.52C163.653 26.944 163.403 26.5067 163.072 26.208C162.752 25.9093 162.368 25.76 161.92 25.76C161.451 25.76 161.003 25.9147 160.576 26.224C160.149 26.5333 159.765 26.9387 159.424 27.44C159.093 27.9307 158.827 28.464 158.624 29.04C158.432 29.616 158.325 30.1707 158.304 30.704C158.293 30.928 158.288 31.1733 158.288 31.44C158.299 31.7067 158.331 32.0267 158.384 32.4L156.416 32.528C156.373 32.2187 156.325 31.8347 156.272 31.376C156.229 30.9067 156.208 30.4 156.208 29.856C156.208 29.4827 156.219 29.0827 156.24 28.656C156.272 28.2293 156.304 27.7973 156.336 27.36C156.379 26.912 156.427 26.464 156.48 26.016C156.544 25.568 156.603 25.1413 156.656 24.736C156.699 24.4267 156.731 24.1227 156.752 23.824C156.773 23.5253 156.784 23.2693 156.784 23.056L158.976 23.152ZM180.352 23.056C180.331 23.216 180.309 23.3973 180.288 23.6C180.277 23.792 180.267 23.9893 180.256 24.192C180.245 24.4053 180.235 24.6933 180.224 25.056C180.213 25.408 180.208 25.7973 180.208 26.224C180.208 26.6507 180.208 27.072 180.208 27.488C180.208 27.904 180.208 28.2827 180.208 28.624C180.208 29.072 180.219 29.5733 180.24 30.128C180.261 30.672 180.288 31.2267 180.32 31.792C180.363 32.3467 180.395 32.8693 180.416 33.36C180.448 33.84 180.464 34.24 180.464 34.56C180.464 35.008 180.347 35.4187 180.112 35.792C179.877 36.1547 179.525 36.4427 179.056 36.656C178.597 36.8693 178.016 36.976 177.312 36.976C176.032 36.976 175.061 36.7413 174.4 36.272C173.739 35.8027 173.408 35.1467 173.408 34.304C173.408 33.76 173.563 33.2853 173.872 32.88C174.192 32.464 174.645 32.1387 175.232 31.904C175.829 31.6693 176.539 31.552 177.36 31.552C178.235 31.552 179.051 31.648 179.808 31.84C180.576 32.0213 181.275 32.2613 181.904 32.56C182.533 32.8587 183.093 33.1733 183.584 33.504C184.075 33.8347 184.491 34.1333 184.832 34.4L183.68 36.192C183.296 35.8293 182.864 35.472 182.384 35.12C181.915 34.768 181.397 34.448 180.832 34.16C180.277 33.872 179.685 33.6427 179.056 33.472C178.437 33.2907 177.781 33.2 177.088 33.2C176.533 33.2 176.101 33.296 175.792 33.488C175.493 33.68 175.344 33.9147 175.344 34.192C175.344 34.3947 175.408 34.5707 175.536 34.72C175.664 34.8693 175.851 34.9813 176.096 35.056C176.341 35.1307 176.651 35.168 177.024 35.168C177.312 35.168 177.557 35.136 177.76 35.072C177.973 35.008 178.139 34.8907 178.256 34.72C178.373 34.5493 178.432 34.3093 178.432 34C178.432 33.7653 178.421 33.4293 178.4 32.992C178.389 32.5547 178.373 32.0747 178.352 31.552C178.331 31.0187 178.309 30.496 178.288 29.984C178.267 29.472 178.256 29.0187 178.256 28.624C178.256 28.24 178.256 27.84 178.256 27.424C178.267 26.9973 178.272 26.576 178.272 26.16C178.272 25.744 178.272 25.3653 178.272 25.024C178.283 24.672 178.288 24.384 178.288 24.16C178.288 24.0107 178.277 23.8293 178.256 23.616C178.245 23.392 178.224 23.2053 178.192 23.056H180.352ZM173.712 24.56C174 24.6027 174.32 24.6453 174.672 24.688C175.024 24.7307 175.381 24.7733 175.744 24.816C176.117 24.848 176.469 24.8747 176.8 24.896C177.131 24.9067 177.419 24.912 177.664 24.912C178.752 24.912 179.835 24.88 180.912 24.816C182 24.7413 183.125 24.608 184.288 24.416L184.272 26.256C183.728 26.3307 183.099 26.4 182.384 26.464C181.669 26.528 180.907 26.5813 180.096 26.624C179.296 26.656 178.491 26.672 177.68 26.672C177.349 26.672 176.939 26.6613 176.448 26.64C175.968 26.608 175.488 26.5707 175.008 26.528C174.528 26.4747 174.112 26.4267 173.76 26.384L173.712 24.56ZM173.632 28.016C173.888 28.0587 174.192 28.1013 174.544 28.144C174.896 28.1867 175.253 28.2187 175.616 28.24C175.989 28.2613 176.341 28.2827 176.672 28.304C177.003 28.3147 177.275 28.32 177.488 28.32C178.48 28.32 179.376 28.2987 180.176 28.256C180.987 28.2133 181.744 28.16 182.448 28.096C183.152 28.032 183.829 27.9573 184.48 27.872L184.464 29.76C183.909 29.824 183.371 29.8773 182.848 29.92C182.336 29.9627 181.808 30 181.264 30.032C180.731 30.064 180.155 30.0853 179.536 30.096C178.917 30.1067 178.224 30.112 177.456 30.112C177.147 30.112 176.763 30.1067 176.304 30.096C175.845 30.0747 175.376 30.048 174.896 30.016C174.427 29.984 174.011 29.9467 173.648 29.904L173.632 28.016ZM200.156 23.44C200.145 23.5253 200.134 23.6533 200.124 23.824C200.113 23.984 200.102 24.1547 200.092 24.336C200.081 24.5173 200.07 24.6827 200.06 24.832C200.06 25.184 200.054 25.5253 200.044 25.856C200.044 26.1867 200.038 26.5013 200.028 26.8C200.028 27.088 200.022 27.3707 200.012 27.648C200.001 28.1173 199.985 28.608 199.964 29.12C199.942 29.632 199.916 30.1067 199.884 30.544C199.852 30.9813 199.809 31.3387 199.756 31.616C199.67 32.032 199.521 32.3147 199.308 32.464C199.094 32.6027 198.78 32.672 198.364 32.672C198.182 32.672 197.932 32.6613 197.612 32.64C197.302 32.608 196.993 32.5707 196.684 32.528C196.385 32.4853 196.14 32.4533 195.948 32.432L195.996 30.656C196.241 30.7093 196.508 30.7573 196.796 30.8C197.094 30.8427 197.318 30.864 197.468 30.864C197.628 30.864 197.745 30.8427 197.82 30.8C197.905 30.7467 197.953 30.6453 197.964 30.496C197.996 30.2933 198.017 30.0373 198.028 29.728C198.049 29.4187 198.065 29.0827 198.076 28.72C198.097 28.3467 198.113 27.984 198.124 27.632C198.124 27.344 198.124 27.056 198.124 26.768C198.124 26.4693 198.124 26.1653 198.124 25.856C198.124 25.536 198.124 25.2213 198.124 24.912C198.124 24.7733 198.113 24.6133 198.092 24.432C198.081 24.24 198.07 24.0533 198.06 23.872C198.049 23.6907 198.033 23.5467 198.012 23.44H200.156ZM193.868 23.92C193.825 24.1867 193.798 24.448 193.788 24.704C193.777 24.9493 193.772 25.2427 193.772 25.584C193.772 25.872 193.766 26.256 193.756 26.736C193.756 27.216 193.75 27.7387 193.74 28.304C193.74 28.8587 193.734 29.4187 193.724 29.984C193.724 30.5387 193.724 31.0453 193.724 31.504C193.724 31.9627 193.729 32.3253 193.74 32.592C193.75 32.9867 193.777 33.312 193.82 33.568C193.873 33.8133 193.98 34.0053 194.14 34.144C194.3 34.2827 194.55 34.3787 194.892 34.432C195.244 34.4853 195.718 34.512 196.316 34.512C196.838 34.512 197.393 34.496 197.98 34.464C198.566 34.4213 199.132 34.368 199.676 34.304C200.22 34.24 200.694 34.176 201.1 34.112L201.02 36.288C200.668 36.3307 200.23 36.368 199.708 36.4C199.185 36.4427 198.641 36.4747 198.076 36.496C197.51 36.528 196.972 36.544 196.46 36.544C195.425 36.544 194.598 36.4853 193.98 36.368C193.361 36.2507 192.892 36.0533 192.572 35.776C192.252 35.4987 192.038 35.1253 191.932 34.656C191.825 34.1867 191.761 33.6053 191.74 32.912C191.74 32.6773 191.734 32.3627 191.724 31.968C191.724 31.5733 191.724 31.136 191.724 30.656C191.724 30.1653 191.724 29.664 191.724 29.152C191.724 28.64 191.724 28.1547 191.724 27.696C191.734 27.2267 191.74 26.816 191.74 26.464C191.74 26.112 191.74 25.856 191.74 25.696C191.74 25.3653 191.729 25.056 191.708 24.768C191.686 24.48 191.654 24.1973 191.612 23.92H193.868ZM188.508 27.536C188.742 27.536 189.036 27.5253 189.388 27.504C189.74 27.4827 190.118 27.456 190.524 27.424C190.844 27.392 191.318 27.3493 191.948 27.296C192.577 27.232 193.292 27.1627 194.092 27.088C194.892 27.0133 195.724 26.9387 196.588 26.864C197.462 26.7787 198.3 26.704 199.1 26.64C199.9 26.576 200.609 26.5227 201.228 26.48C201.452 26.4587 201.702 26.4427 201.98 26.432C202.268 26.4107 202.529 26.3893 202.764 26.368V28.336C202.678 28.3253 202.54 28.32 202.348 28.32C202.156 28.32 201.953 28.3253 201.74 28.336C201.537 28.336 201.366 28.3413 201.228 28.352C200.812 28.3627 200.305 28.3893 199.708 28.432C199.11 28.464 198.47 28.512 197.788 28.576C197.105 28.6293 196.406 28.6933 195.692 28.768C194.988 28.832 194.31 28.9013 193.66 28.976C193.009 29.0507 192.422 29.1147 191.9 29.168C191.377 29.2213 190.961 29.264 190.652 29.296C190.481 29.3173 190.273 29.3493 190.028 29.392C189.782 29.424 189.537 29.4613 189.292 29.504C189.057 29.536 188.87 29.5627 188.732 29.584L188.508 27.536ZM214.748 24.112C214.673 24.2187 214.588 24.3413 214.492 24.48C214.406 24.608 214.321 24.736 214.236 24.864C214.044 25.152 213.83 25.488 213.596 25.872C213.372 26.2453 213.137 26.6453 212.892 27.072C212.646 27.488 212.406 27.904 212.172 28.32C211.948 28.736 211.734 29.12 211.532 29.472C211.83 29.3013 212.134 29.1787 212.444 29.104C212.753 29.0293 213.062 28.992 213.372 28.992C213.969 28.992 214.438 29.1733 214.78 29.536C215.132 29.888 215.324 30.4 215.356 31.072C215.366 31.3067 215.372 31.5893 215.372 31.92C215.372 32.2507 215.372 32.5813 215.372 32.912C215.382 33.2427 215.398 33.52 215.42 33.744C215.452 34.0533 215.564 34.2773 215.756 34.416C215.958 34.544 216.193 34.608 216.46 34.608C216.801 34.608 217.11 34.5067 217.388 34.304C217.676 34.1013 217.932 33.824 218.156 33.472C218.38 33.1093 218.572 32.704 218.732 32.256C218.902 31.7973 219.046 31.3227 219.164 30.832L220.892 32.24C220.614 33.1467 220.262 33.9467 219.836 34.64C219.409 35.3227 218.886 35.8507 218.268 36.224C217.66 36.608 216.945 36.8 216.124 36.8C215.537 36.8 215.046 36.6933 214.652 36.48C214.257 36.2773 213.964 36.0107 213.772 35.68C213.58 35.3387 213.473 34.9707 213.452 34.576C213.43 34.288 213.414 33.968 213.404 33.616C213.404 33.264 213.398 32.9227 213.388 32.592C213.388 32.2507 213.377 31.9733 213.356 31.76C213.334 31.4827 213.244 31.264 213.084 31.104C212.924 30.944 212.7 30.864 212.412 30.864C212.06 30.864 211.724 30.976 211.404 31.2C211.084 31.424 210.79 31.7173 210.524 32.08C210.268 32.4427 210.044 32.8427 209.852 33.28C209.745 33.5147 209.633 33.792 209.516 34.112C209.398 34.432 209.286 34.7627 209.18 35.104C209.073 35.4453 208.972 35.7653 208.876 36.064C208.78 36.3733 208.7 36.6347 208.636 36.848L206.38 36.08C206.582 35.5467 206.828 34.9387 207.116 34.256C207.414 33.5627 207.74 32.8373 208.092 32.08C208.444 31.3227 208.801 30.5707 209.164 29.824C209.526 29.0773 209.873 28.3733 210.204 27.712C210.534 27.04 210.828 26.4587 211.084 25.968C211.35 25.4667 211.553 25.088 211.692 24.832C211.798 24.6187 211.921 24.3787 212.06 24.112C212.198 23.8453 212.337 23.5413 212.476 23.2L214.748 24.112ZM230.508 23.36C230.454 23.5627 230.401 23.7867 230.348 24.032C230.305 24.2667 230.262 24.4853 230.22 24.688C230.177 24.9227 230.124 25.1893 230.06 25.488C229.996 25.776 229.932 26.0693 229.868 26.368C229.814 26.656 229.756 26.9387 229.692 27.216C229.585 27.6747 229.452 28.208 229.292 28.816C229.132 29.424 228.945 30.08 228.732 30.784C228.518 31.4773 228.278 32.176 228.012 32.88C227.745 33.584 227.462 34.272 227.164 34.944C226.865 35.6053 226.545 36.2027 226.204 36.736L224.124 35.904C224.497 35.4027 224.844 34.8427 225.164 34.224C225.494 33.5947 225.793 32.9493 226.06 32.288C226.326 31.6267 226.561 30.976 226.764 30.336C226.977 29.696 227.158 29.0987 227.308 28.544C227.457 27.9893 227.574 27.5147 227.66 27.12C227.809 26.3947 227.926 25.696 228.012 25.024C228.097 24.352 228.134 23.7173 228.124 23.12L230.508 23.36ZM236.012 24.864C236.268 25.2053 236.529 25.6373 236.796 26.16C237.073 26.672 237.34 27.216 237.596 27.792C237.862 28.368 238.102 28.9227 238.316 29.456C238.54 29.9893 238.71 30.4427 238.828 30.816L236.796 31.76C236.689 31.312 236.54 30.816 236.348 30.272C236.166 29.7173 235.953 29.1573 235.708 28.592C235.473 28.016 235.217 27.472 234.94 26.96C234.673 26.448 234.396 26.0213 234.108 25.68L236.012 24.864ZM224.012 26.64C224.3 26.6613 224.582 26.672 224.86 26.672C225.137 26.6613 225.425 26.6507 225.724 26.64C225.98 26.6293 226.294 26.6133 226.668 26.592C227.052 26.56 227.452 26.528 227.868 26.496C228.294 26.464 228.721 26.432 229.148 26.4C229.574 26.3573 229.969 26.3253 230.332 26.304C230.694 26.2827 230.993 26.272 231.228 26.272C231.793 26.272 232.289 26.368 232.716 26.56C233.153 26.7413 233.494 27.056 233.74 27.504C233.996 27.952 234.124 28.56 234.124 29.328C234.124 29.9573 234.092 30.64 234.028 31.376C233.974 32.112 233.884 32.816 233.756 33.488C233.628 34.16 233.446 34.7307 233.212 35.2C232.956 35.7547 232.604 36.1387 232.156 36.352C231.718 36.5653 231.196 36.672 230.588 36.672C230.278 36.672 229.948 36.6453 229.596 36.592C229.254 36.5493 228.945 36.5013 228.668 36.448L228.316 34.336C228.529 34.3893 228.758 34.4427 229.004 34.496C229.26 34.5493 229.5 34.592 229.724 34.624C229.958 34.656 230.145 34.672 230.284 34.672C230.55 34.672 230.785 34.624 230.988 34.528C231.19 34.4213 231.356 34.24 231.484 33.984C231.633 33.6747 231.75 33.2747 231.836 32.784C231.932 32.2933 232.001 31.7653 232.044 31.2C232.097 30.624 232.124 30.0747 232.124 29.552C232.124 29.1253 232.065 28.8107 231.948 28.608C231.83 28.4053 231.654 28.272 231.42 28.208C231.196 28.1333 230.913 28.096 230.572 28.096C230.337 28.096 230.006 28.1173 229.58 28.16C229.164 28.192 228.721 28.2347 228.252 28.288C227.782 28.3307 227.34 28.3787 226.924 28.432C226.518 28.4853 226.204 28.5227 225.98 28.544C225.756 28.5867 225.462 28.6347 225.1 28.688C224.748 28.7307 224.449 28.7733 224.204 28.816L224.012 26.64ZM247.5 31.888C247.446 31.4613 247.478 31.088 247.596 30.768C247.724 30.448 247.9 30.16 248.124 29.904C248.358 29.648 248.614 29.4133 248.892 29.2C249.18 28.9867 249.446 28.7787 249.692 28.576C249.948 28.3733 250.156 28.1653 250.316 27.952C250.476 27.7387 250.556 27.504 250.556 27.248C250.556 26.928 250.476 26.656 250.316 26.432C250.156 26.208 249.921 26.0373 249.612 25.92C249.313 25.8027 248.95 25.744 248.524 25.744C248.033 25.744 247.585 25.8507 247.18 26.064C246.774 26.2773 246.374 26.592 245.98 27.008L244.668 25.792C245.18 25.2053 245.782 24.736 246.476 24.384C247.18 24.0213 247.953 23.84 248.796 23.84C249.574 23.84 250.262 23.9573 250.86 24.192C251.468 24.4267 251.942 24.784 252.284 25.264C252.636 25.7333 252.812 26.3253 252.812 27.04C252.812 27.4347 252.726 27.7813 252.556 28.08C252.396 28.368 252.182 28.6293 251.916 28.864C251.66 29.088 251.388 29.3067 251.1 29.52C250.812 29.7227 250.545 29.936 250.3 30.16C250.054 30.384 249.862 30.6347 249.724 30.912C249.585 31.1893 249.532 31.5147 249.564 31.888H247.5ZM248.54 36.144C248.134 36.144 247.798 36.0107 247.532 35.744C247.265 35.4773 247.132 35.1413 247.132 34.736C247.132 34.32 247.265 33.9787 247.532 33.712C247.798 33.4453 248.134 33.312 248.54 33.312C248.945 33.312 249.281 33.4453 249.548 33.712C249.814 33.9787 249.948 34.32 249.948 34.736C249.948 35.1413 249.814 35.4773 249.548 35.744C249.281 36.0107 248.945 36.144 248.54 36.144Z" fill="#13293A"/>
<line x1="15" y1="58.5" x2="375" y2="58.5" stroke="#13293A"/>
<circle cx="350.5" cy="29.5" r="9.5" fill="#F6931A"/>
<path d="M348 25L354.5 29.5L348 34" stroke="white" stroke-width="2" stroke-linecap="round" stroke-linejoin="round"/>
</svg>
