<svg width="390" height="59" viewBox="0 0 390 59" fill="none" xmlns="http://www.w3.org/2000/svg">
<rect width="390" height="59" fill="#FFFBEC"/>
<path d="M45.248 25.92C45.1307 26.048 45.024 26.1653 44.928 26.272C44.8427 26.3787 44.768 26.4853 44.704 26.592C44.384 27.104 44.0053 27.6587 43.568 28.256C43.1307 28.8533 42.6453 29.456 42.112 30.064C41.5787 30.672 41.0133 31.2587 40.416 31.824C39.8293 32.3893 39.2213 32.9013 38.592 33.36L37.008 31.872C37.5413 31.5093 38.0427 31.1093 38.512 30.672C38.992 30.224 39.4347 29.7707 39.84 29.312C40.256 28.8533 40.624 28.4053 40.944 27.968C41.264 27.5307 41.5307 27.1307 41.744 26.768C41.5307 26.768 41.248 26.768 40.896 26.768C40.544 26.768 40.1333 26.768 39.664 26.768C39.2053 26.768 38.72 26.768 38.208 26.768C37.696 26.768 37.184 26.768 36.672 26.768C36.1707 26.768 35.6907 26.768 35.232 26.768C34.784 26.768 34.3893 26.768 34.048 26.768C33.7173 26.768 33.4613 26.768 33.28 26.768C33.0667 26.768 32.8373 26.7733 32.592 26.784C32.3573 26.7947 32.1333 26.8107 31.92 26.832C31.7067 26.8533 31.5467 26.8693 31.44 26.88V24.64C31.5787 24.6507 31.7547 24.672 31.968 24.704C32.192 24.736 32.4213 24.7573 32.656 24.768C32.8907 24.7787 33.0987 24.784 33.28 24.784C33.4187 24.784 33.6533 24.784 33.984 24.784C34.3253 24.784 34.7253 24.784 35.184 24.784C35.6427 24.784 36.1333 24.784 36.656 24.784C37.1893 24.784 37.7227 24.784 38.256 24.784C38.8 24.784 39.3227 24.784 39.824 24.784C40.3253 24.784 40.7733 24.784 41.168 24.784C41.5733 24.784 41.904 24.784 42.16 24.784C42.7893 24.784 43.2853 24.7253 43.648 24.608L45.248 25.92ZM36.8 33.584C36.5653 33.3493 36.2933 33.0933 35.984 32.816C35.6853 32.528 35.3707 32.24 35.04 31.952C34.72 31.664 34.4053 31.3973 34.096 31.152C33.7973 30.896 33.5253 30.6827 33.28 30.512L34.976 29.152C35.1893 29.312 35.44 29.5093 35.728 29.744C36.0267 29.9787 36.3413 30.2347 36.672 30.512C37.0027 30.7893 37.3387 31.0773 37.68 31.376C38.0213 31.6747 38.3467 31.968 38.656 32.256C39.008 32.5973 39.3707 32.9653 39.744 33.36C40.128 33.7547 40.4907 34.1387 40.832 34.512C41.184 34.8853 41.4827 35.232 41.728 35.552L39.856 37.04C39.632 36.7413 39.344 36.3947 38.992 36C38.6507 35.5947 38.288 35.1787 37.904 34.752C37.52 34.3253 37.152 33.936 36.8 33.584ZM51.456 23.84C51.7333 24.032 52.0587 24.2667 52.432 24.544C52.8053 24.8213 53.1893 25.1253 53.584 25.456C53.9893 25.776 54.368 26.0907 54.72 26.4C55.072 26.7093 55.36 26.9867 55.584 27.232L53.952 28.896C53.7493 28.672 53.4827 28.4053 53.152 28.096C52.8213 27.7867 52.464 27.4667 52.08 27.136C51.696 26.8053 51.3173 26.4907 50.944 26.192C50.5707 25.8933 50.24 25.6427 49.952 25.44L51.456 23.84ZM49.456 34.496C50.288 34.3787 51.072 34.2133 51.808 34C52.544 33.7867 53.2267 33.5413 53.856 33.264C54.4853 32.9867 55.0613 32.6987 55.584 32.4C56.4907 31.856 57.3227 31.2373 58.08 30.544C58.8373 29.8507 59.4987 29.1307 60.064 28.384C60.6293 27.6267 61.0773 26.8907 61.408 26.176L62.656 28.432C62.2507 29.1467 61.7493 29.8613 61.152 30.576C60.5653 31.2907 59.8987 31.9733 59.152 32.624C58.4053 33.264 57.6 33.84 56.736 34.352C56.192 34.6827 55.6053 34.9973 54.976 35.296C54.3467 35.584 53.68 35.84 52.976 36.064C52.2827 36.2987 51.5573 36.48 50.8 36.608L49.456 34.496ZM76.88 23.712C77.0293 23.936 77.1893 24.1973 77.36 24.496C77.5413 24.784 77.7173 25.0773 77.888 25.376C78.0587 25.664 78.208 25.936 78.336 26.192L76.944 26.784C76.784 26.4427 76.6347 26.1387 76.496 25.872C76.3573 25.5947 76.208 25.328 76.048 25.072C75.8987 24.8053 75.728 24.5387 75.536 24.272L76.88 23.712ZM79.072 22.944C79.2427 23.1467 79.4187 23.392 79.6 23.68C79.7813 23.968 79.9573 24.256 80.128 24.544C80.2987 24.832 80.448 25.0933 80.576 25.328L79.216 25.936C79.0453 25.6053 78.88 25.3067 78.72 25.04C78.5707 24.7733 78.416 24.5173 78.256 24.272C78.096 24.0267 77.9147 23.7707 77.712 23.504L79.072 22.944ZM69.92 23.408C70.1867 23.5467 70.4853 23.7173 70.816 23.92C71.1467 24.1227 71.4827 24.336 71.824 24.56C72.1653 24.7733 72.4907 24.9813 72.8 25.184C73.1093 25.376 73.3653 25.5467 73.568 25.696L72.384 27.456C72.16 27.3067 71.8933 27.1307 71.584 26.928C71.2853 26.7253 70.9653 26.5173 70.624 26.304C70.2933 26.0907 69.9627 25.888 69.632 25.696C69.312 25.4933 69.024 25.3173 68.768 25.168L69.92 23.408ZM66.96 34.768C67.5573 34.6613 68.1653 34.528 68.784 34.368C69.4027 34.208 70.016 34.016 70.624 33.792C71.232 33.5573 71.824 33.28 72.4 32.96C73.3067 32.448 74.1493 31.872 74.928 31.232C75.7173 30.592 76.4267 29.9147 77.056 29.2C77.6853 28.4747 78.208 27.728 78.624 26.96L79.856 29.136C79.12 30.2453 78.2027 31.296 77.104 32.288C76.016 33.2693 74.816 34.1387 73.504 34.896C72.96 35.1947 72.3627 35.4827 71.712 35.76C71.0613 36.0267 70.4213 36.256 69.792 36.448C69.1733 36.64 68.6293 36.7787 68.16 36.864L66.96 34.768ZM67.456 27.056C67.7227 27.1947 68.0267 27.3653 68.368 27.568C68.7093 27.7707 69.0507 27.9787 69.392 28.192C69.7333 28.3947 70.0533 28.5973 70.352 28.8C70.6613 28.992 70.9173 29.1627 71.12 29.312L69.952 31.104C69.7173 30.944 69.4453 30.7627 69.136 30.56C68.8373 30.3573 68.5173 30.1493 68.176 29.936C67.8453 29.7227 67.5147 29.52 67.184 29.328C66.864 29.1253 66.5707 28.9547 66.304 28.816L67.456 27.056ZM88.4031 25.84C88.4351 26.0213 88.4725 26.2187 88.5151 26.432C88.5685 26.6347 88.6165 26.8427 88.6591 27.056C88.7551 27.3653 88.8671 27.7653 88.9951 28.256C89.1338 28.7467 89.2831 29.2853 89.4431 29.872C89.6031 30.4587 89.7631 31.056 89.9231 31.664C90.0938 32.2613 90.2591 32.8373 90.4191 33.392C90.5791 33.936 90.7178 34.4213 90.8351 34.848C90.9525 35.264 91.0431 35.584 91.1071 35.808C91.1498 35.8933 91.1925 36.0213 91.2351 36.192C91.2778 36.3627 91.3258 36.5333 91.3791 36.704C91.4431 36.8747 91.4965 37.0133 91.5391 37.12L89.3631 37.664C89.3311 37.44 89.2938 37.2053 89.2511 36.96C89.2085 36.7147 89.1498 36.48 89.0751 36.256C89.0111 36.0213 88.9205 35.6853 88.8031 35.248C88.6858 34.8 88.5525 34.2933 88.4031 33.728C88.2538 33.1627 88.0938 32.576 87.9231 31.968C87.7631 31.36 87.6085 30.768 87.4591 30.192C87.3098 29.6053 87.1658 29.0773 87.0271 28.608C86.8991 28.128 86.7925 27.7547 86.7071 27.488C86.6538 27.2747 86.5845 27.072 86.4991 26.88C86.4245 26.688 86.3445 26.512 86.2591 26.352L88.4031 25.84ZM96.0831 28.304C95.9231 28.656 95.7045 29.056 95.4271 29.504C95.1605 29.952 94.8671 30.4107 94.5471 30.88C94.2271 31.3493 93.9071 31.7973 93.5871 32.224C93.2671 32.64 92.9631 33.0027 92.6751 33.312L90.9151 32.432C91.1925 32.1867 91.4858 31.888 91.7951 31.536C92.1045 31.184 92.3925 30.832 92.6591 30.48C92.9365 30.1173 93.1391 29.808 93.2671 29.552C93.1498 29.5733 92.9258 29.616 92.5951 29.68C92.2751 29.744 91.8858 29.824 91.4271 29.92C90.9685 30.016 90.4671 30.1227 89.9231 30.24C89.3898 30.3467 88.8511 30.4587 88.3071 30.576C87.7631 30.6933 87.2458 30.8053 86.7551 30.912C86.2645 31.008 85.8325 31.0987 85.4591 31.184C85.0858 31.2587 84.8031 31.3173 84.6111 31.36L84.1151 29.44C84.3711 29.4187 84.6165 29.392 84.8511 29.36C85.0858 29.328 85.3311 29.2907 85.5871 29.248C85.7151 29.2267 85.9391 29.1893 86.2591 29.136C86.5898 29.0827 86.9791 29.0133 87.4271 28.928C87.8858 28.8427 88.3765 28.752 88.8991 28.656C89.4218 28.5493 89.9498 28.448 90.4831 28.352C91.0165 28.2453 91.5178 28.1493 91.9871 28.064C92.4565 27.968 92.8671 27.888 93.2191 27.824C93.5711 27.7493 93.8271 27.6907 93.9871 27.648C94.1258 27.6267 94.2698 27.5947 94.4191 27.552C94.5685 27.4987 94.6965 27.4453 94.8031 27.392L96.0831 28.304ZM101.619 24.656C101.95 24.6667 102.259 24.6773 102.547 24.688C102.846 24.688 103.102 24.688 103.315 24.688C103.486 24.688 103.747 24.688 104.099 24.688C104.462 24.688 104.883 24.688 105.363 24.688C105.843 24.688 106.355 24.688 106.899 24.688C107.443 24.688 107.987 24.688 108.531 24.688C109.086 24.688 109.603 24.688 110.083 24.688C110.563 24.688 110.979 24.688 111.331 24.688C111.694 24.688 111.955 24.688 112.115 24.688C112.318 24.688 112.558 24.688 112.835 24.688C113.123 24.6773 113.411 24.6667 113.699 24.656C113.688 24.9013 113.678 25.1627 113.667 25.44C113.667 25.7067 113.667 25.9627 113.667 26.208C113.667 26.3573 113.667 26.592 113.667 26.912C113.667 27.2213 113.667 27.5947 113.667 28.032C113.667 28.4587 113.667 28.9173 113.667 29.408C113.667 29.888 113.667 30.3733 113.667 30.864C113.667 31.3547 113.667 31.8187 113.667 32.256C113.667 32.6827 113.667 33.056 113.667 33.376C113.667 33.6853 113.667 33.9093 113.667 34.048C113.667 34.208 113.667 34.4107 113.667 34.656C113.678 34.8907 113.683 35.1307 113.683 35.376C113.683 35.6107 113.683 35.8187 113.683 36C113.694 36.1707 113.699 36.2613 113.699 36.272H111.491C111.491 36.2507 111.491 36.1227 111.491 35.888C111.502 35.6427 111.507 35.3547 111.507 35.024C111.518 34.6933 111.523 34.384 111.523 34.096C111.523 33.9573 111.523 33.7227 111.523 33.392C111.523 33.0613 111.523 32.672 111.523 32.224C111.523 31.776 111.523 31.3013 111.523 30.8C111.523 30.2987 111.523 29.808 111.523 29.328C111.523 28.848 111.523 28.4107 111.523 28.016C111.523 27.6213 111.523 27.3067 111.523 27.072C111.523 26.8373 111.523 26.72 111.523 26.72H103.795C103.795 26.72 103.795 26.8373 103.795 27.072C103.795 27.3067 103.795 27.6213 103.795 28.016C103.795 28.4 103.795 28.8373 103.795 29.328C103.795 29.808 103.795 30.2987 103.795 30.8C103.795 31.2907 103.795 31.7653 103.795 32.224C103.795 32.672 103.795 33.0613 103.795 33.392C103.795 33.7227 103.795 33.9573 103.795 34.096C103.795 34.288 103.795 34.5067 103.795 34.752C103.795 34.9867 103.795 35.216 103.795 35.44C103.806 35.664 103.811 35.8507 103.811 36C103.811 36.16 103.811 36.2507 103.811 36.272H101.603C101.603 36.2507 101.603 36.16 101.603 36C101.614 35.84 101.619 35.6427 101.619 35.408C101.63 35.1733 101.635 34.9333 101.635 34.688C101.646 34.4427 101.651 34.224 101.651 34.032C101.651 33.8933 101.651 33.6693 101.651 33.36C101.651 33.04 101.651 32.6613 101.651 32.224C101.651 31.7867 101.651 31.328 101.651 30.848C101.651 30.3573 101.651 29.8667 101.651 29.376C101.651 28.8853 101.651 28.4267 101.651 28C101.651 27.5627 101.651 27.1893 101.651 26.88C101.651 26.5707 101.651 26.3467 101.651 26.208C101.651 25.984 101.651 25.728 101.651 25.44C101.651 25.1413 101.64 24.88 101.619 24.656ZM112.323 33.36V35.408H102.707V33.36H112.323ZM124.371 24.816C124.862 24.88 125.411 24.928 126.019 24.96C126.638 24.9813 127.262 24.992 127.891 24.992C128.531 24.9813 129.144 24.96 129.731 24.928C130.318 24.8853 130.824 24.8427 131.251 24.8V26.864C130.76 26.9067 130.222 26.944 129.635 26.976C129.048 26.9973 128.446 27.008 127.827 27.008C127.208 27.008 126.6 26.9973 126.003 26.976C125.416 26.944 124.872 26.9067 124.371 26.864V24.816ZM125.651 31.648C125.587 31.9147 125.539 32.1547 125.507 32.368C125.475 32.5707 125.459 32.7787 125.459 32.992C125.459 33.1627 125.502 33.3227 125.587 33.472C125.672 33.6107 125.8 33.7333 125.971 33.84C126.152 33.936 126.382 34.0107 126.659 34.064C126.947 34.1067 127.294 34.128 127.699 34.128C128.414 34.128 129.086 34.096 129.715 34.032C130.344 33.9573 131.011 33.8507 131.715 33.712L131.747 35.872C131.235 35.968 130.643 36.0427 129.971 36.096C129.31 36.1493 128.526 36.176 127.619 36.176C126.243 36.176 125.219 35.9467 124.547 35.488C123.875 35.0187 123.539 34.3733 123.539 33.552C123.539 33.2427 123.56 32.9227 123.603 32.592C123.656 32.2507 123.726 31.8773 123.811 31.472L125.651 31.648ZM121.907 23.744C121.864 23.8507 121.816 24 121.763 24.192C121.71 24.384 121.656 24.5707 121.603 24.752C121.56 24.9333 121.528 25.072 121.507 25.168C121.475 25.392 121.422 25.6853 121.347 26.048C121.283 26.4 121.214 26.8 121.139 27.248C121.075 27.6853 121.011 28.1333 120.947 28.592C120.883 29.0507 120.83 29.4933 120.787 29.92C120.755 30.3467 120.739 30.72 120.739 31.04C120.739 31.1893 120.739 31.36 120.739 31.552C120.75 31.744 120.771 31.92 120.803 32.08C120.878 31.8987 120.958 31.7173 121.043 31.536C121.128 31.3547 121.214 31.1733 121.299 30.992C121.384 30.8 121.459 30.6187 121.523 30.448L122.515 31.232C122.366 31.6693 122.211 32.1387 122.051 32.64C121.902 33.1413 121.763 33.616 121.635 34.064C121.518 34.5013 121.427 34.864 121.363 35.152C121.342 35.2693 121.32 35.4027 121.299 35.552C121.288 35.7013 121.283 35.8187 121.283 35.904C121.283 35.9893 121.283 36.0907 121.283 36.208C121.294 36.336 121.304 36.4533 121.315 36.56L119.459 36.688C119.299 36.1333 119.155 35.3973 119.027 34.48C118.899 33.552 118.835 32.544 118.835 31.456C118.835 30.8587 118.862 30.2507 118.915 29.632C118.968 29.0133 119.032 28.4213 119.107 27.856C119.182 27.28 119.251 26.7573 119.315 26.288C119.39 25.8187 119.454 25.4293 119.507 25.12C119.528 24.896 119.555 24.6453 119.587 24.368C119.63 24.08 119.656 23.808 119.667 23.552L121.907 23.744ZM135.667 27.232C135.966 27.1787 136.296 27.104 136.659 27.008C137.022 26.912 137.347 26.8267 137.635 26.752C137.944 26.656 138.36 26.5227 138.883 26.352C139.416 26.1813 140.003 26.0107 140.643 25.84C141.283 25.6693 141.934 25.5253 142.595 25.408C143.267 25.28 143.891 25.216 144.467 25.216C145.438 25.216 146.312 25.3973 147.091 25.76C147.87 26.1227 148.488 26.6453 148.947 27.328C149.406 28.0107 149.635 28.848 149.635 29.84C149.635 30.5653 149.502 31.2373 149.235 31.856C148.968 32.4747 148.574 33.0293 148.051 33.52C147.539 34.0107 146.915 34.4373 146.179 34.8C145.443 35.1627 144.6 35.456 143.651 35.68C142.712 35.8933 141.678 36.0267 140.547 36.08L139.619 33.952C140.707 33.9307 141.715 33.8347 142.643 33.664C143.582 33.4827 144.403 33.2267 145.107 32.896C145.811 32.5547 146.36 32.128 146.755 31.616C147.15 31.104 147.347 30.5013 147.347 29.808C147.347 29.3067 147.235 28.8587 147.011 28.464C146.787 28.0587 146.451 27.7387 146.003 27.504C145.566 27.2693 145.027 27.152 144.387 27.152C143.918 27.152 143.4 27.2107 142.835 27.328C142.27 27.4347 141.688 27.5787 141.091 27.76C140.504 27.9413 139.928 28.1387 139.363 28.352C138.798 28.5547 138.275 28.7573 137.795 28.96C137.315 29.1627 136.91 29.3333 136.579 29.472L135.667 27.232ZM156.563 24.56C156.52 24.752 156.483 24.9707 156.451 25.216C156.43 25.4613 156.408 25.7013 156.387 25.936C156.376 26.1707 156.371 26.3627 156.371 26.512C156.36 26.864 156.355 27.2267 156.355 27.6C156.366 27.9733 156.376 28.3573 156.387 28.752C156.408 29.136 156.435 29.52 156.467 29.904C156.542 30.672 156.648 31.3493 156.787 31.936C156.926 32.5227 157.107 32.9813 157.331 33.312C157.555 33.632 157.838 33.792 158.179 33.792C158.36 33.792 158.536 33.6907 158.707 33.488C158.888 33.2853 159.048 33.024 159.187 32.704C159.336 32.3733 159.464 32.0267 159.571 31.664C159.688 31.3013 159.79 30.96 159.875 30.64L161.475 32.592C161.123 33.52 160.771 34.2613 160.419 34.816C160.078 35.36 159.72 35.7547 159.347 36C158.974 36.2347 158.568 36.352 158.131 36.352C157.555 36.352 157.006 36.16 156.483 35.776C155.971 35.392 155.534 34.7733 155.171 33.92C154.808 33.056 154.552 31.9093 154.403 30.48C154.35 29.9893 154.307 29.472 154.275 28.928C154.254 28.384 154.238 27.8667 154.227 27.376C154.227 26.8853 154.227 26.48 154.227 26.16C154.227 25.936 154.216 25.6693 154.195 25.36C154.174 25.0507 154.142 24.7733 154.099 24.528L156.563 24.56ZM164.563 24.928C164.862 25.2907 165.15 25.7333 165.427 26.256C165.704 26.7787 165.96 27.3387 166.195 27.936C166.43 28.5333 166.638 29.1467 166.819 29.776C167 30.3947 167.144 31.0027 167.251 31.6C167.368 32.1867 167.443 32.7253 167.475 33.216L165.363 34.032C165.31 33.3813 165.214 32.672 165.075 31.904C164.936 31.136 164.75 30.3627 164.515 29.584C164.28 28.8053 163.998 28.0693 163.667 27.376C163.347 26.6827 162.968 26.0853 162.531 25.584L164.563 24.928ZM170.655 24.992C170.975 24.9813 171.279 24.9707 171.567 24.96C171.855 24.9387 172.079 24.9227 172.239 24.912C172.569 24.88 172.975 24.8427 173.455 24.8C173.935 24.7573 174.473 24.7093 175.071 24.656C175.679 24.6027 176.324 24.5493 177.007 24.496C177.689 24.432 178.399 24.368 179.135 24.304C179.689 24.2613 180.244 24.224 180.799 24.192C181.353 24.1493 181.876 24.1173 182.367 24.096C182.868 24.064 183.3 24.0427 183.663 24.032L183.679 26.08C183.391 26.08 183.06 26.0853 182.687 26.096C182.313 26.1067 181.94 26.128 181.567 26.16C181.204 26.1813 180.879 26.224 180.591 26.288C180.111 26.416 179.663 26.6347 179.247 26.944C178.841 27.2427 178.484 27.6 178.175 28.016C177.865 28.432 177.625 28.88 177.455 29.36C177.295 29.8293 177.215 30.304 177.215 30.784C177.215 31.3067 177.305 31.7707 177.487 32.176C177.668 32.5707 177.919 32.912 178.239 33.2C178.569 33.4773 178.953 33.712 179.391 33.904C179.828 34.0853 180.297 34.224 180.799 34.32C181.311 34.416 181.839 34.48 182.383 34.512L181.631 36.704C180.959 36.6613 180.303 36.5547 179.663 36.384C179.033 36.2133 178.441 35.9787 177.887 35.68C177.343 35.3813 176.863 35.0187 176.447 34.592C176.031 34.1547 175.705 33.6587 175.471 33.104C175.236 32.5387 175.119 31.9093 175.119 31.216C175.119 30.4373 175.241 29.728 175.487 29.088C175.732 28.448 176.036 27.888 176.399 27.408C176.761 26.9173 177.124 26.5387 177.487 26.272C177.188 26.304 176.825 26.3467 176.399 26.4C175.983 26.4427 175.529 26.496 175.039 26.56C174.559 26.6133 174.068 26.672 173.567 26.736C173.065 26.8 172.58 26.8747 172.111 26.96C171.652 27.0347 171.236 27.1093 170.863 27.184L170.655 24.992Z" fill="#13293A"/>
<circle cx="350.5" cy="29.5" r="9.5" fill="#F6931A"/>
<path d="M348 25L354.5 29.5L348 34" stroke="white" stroke-width="2" stroke-linecap="round" stroke-linejoin="round"/>
<line x1="15" y1="58.5" x2="375" y2="58.5" stroke="#13293A"/>
</svg>
