<svg width="390" height="59" viewBox="0 0 390 59" fill="none" xmlns="http://www.w3.org/2000/svg">
<rect width="390" height="59" fill="#FFFBEC"/>
<path d="M34.048 28.64V34.544H32.256V30.416H30.592V28.64H34.048ZM34.048 33.792C34.3573 34.336 34.8 34.736 35.376 34.992C35.9627 35.248 36.6667 35.392 37.488 35.424C37.9893 35.4453 38.5867 35.4613 39.28 35.472C39.9733 35.472 40.704 35.4667 41.472 35.456C42.24 35.4453 42.9867 35.4293 43.712 35.408C44.448 35.376 45.0987 35.3333 45.664 35.28C45.6 35.4293 45.5253 35.6107 45.44 35.824C45.3653 36.0267 45.296 36.24 45.232 36.464C45.168 36.6987 45.12 36.9067 45.088 37.088C44.576 37.1093 43.9893 37.1253 43.328 37.136C42.6667 37.1573 41.9787 37.168 41.264 37.168C40.56 37.1787 39.8827 37.1787 39.232 37.168C38.5813 37.1573 38 37.1413 37.488 37.12C36.5173 37.0773 35.6907 36.9227 35.008 36.656C34.336 36.3893 33.7547 35.9413 33.264 35.312C32.9653 35.632 32.6507 35.952 32.32 36.272C32 36.592 31.648 36.928 31.264 37.28L30.352 35.456C30.6827 35.2213 31.0293 34.96 31.392 34.672C31.7547 34.384 32.1013 34.0907 32.432 33.792H34.048ZM30.48 23.728L32 22.784C32.288 23.0293 32.576 23.312 32.864 23.632C33.1627 23.9413 33.4347 24.2507 33.68 24.56C33.9253 24.8693 34.1173 25.1573 34.256 25.424L32.624 26.496C32.5067 26.24 32.3307 25.952 32.096 25.632C31.8613 25.3013 31.6 24.9707 31.312 24.64C31.0347 24.3093 30.7573 24.0053 30.48 23.728ZM35.008 28.96H44.832V30.352H35.008V28.96ZM34.544 31.424H45.328V32.832H34.544V31.424ZM37.152 28.096H38.944V32.112H37.152V28.096ZM40.8 28.096H42.624V32.112H40.8V28.096ZM35.456 24.768H37.792V24.112H34.736V22.896H39.408V26H35.456V24.768ZM34.976 24.768H36.544V26.32C36.544 26.4907 36.576 26.6027 36.64 26.656C36.704 26.6987 36.832 26.72 37.024 26.72C37.0773 26.72 37.1573 26.72 37.264 26.72C37.3707 26.72 37.488 26.72 37.616 26.72C37.7547 26.72 37.8827 26.72 38 26.72C38.1173 26.72 38.2027 26.72 38.256 26.72C38.4267 26.72 38.5387 26.6827 38.592 26.608C38.6453 26.5333 38.6827 26.368 38.704 26.112C38.8533 26.208 39.056 26.304 39.312 26.4C39.5787 26.4853 39.824 26.5493 40.048 26.592C39.9627 27.136 39.7973 27.504 39.552 27.696C39.3173 27.888 38.9547 27.984 38.464 27.984C38.3893 27.984 38.272 27.984 38.112 27.984C37.9627 27.984 37.8027 27.984 37.632 27.984C37.4613 27.984 37.296 27.984 37.136 27.984C36.9867 27.984 36.8747 27.984 36.8 27.984C36.32 27.984 35.9467 27.9413 35.68 27.856C35.424 27.76 35.2427 27.5893 35.136 27.344C35.0293 27.0987 34.976 26.7627 34.976 26.336V24.768ZM40.704 24.768H43.056V24.112H39.952V22.896H44.688V26H40.704V24.768ZM40.24 24.768H41.808V26.32C41.808 26.4907 41.84 26.6027 41.904 26.656C41.968 26.6987 42.1013 26.72 42.304 26.72C42.3573 26.72 42.4373 26.72 42.544 26.72C42.6613 26.72 42.7893 26.72 42.928 26.72C43.0667 26.72 43.1947 26.72 43.312 26.72C43.44 26.72 43.536 26.72 43.6 26.72C43.7707 26.72 43.8773 26.6827 43.92 26.608C43.9733 26.5333 44.016 26.3573 44.048 26.08C44.1973 26.1867 44.4 26.288 44.656 26.384C44.9227 26.4693 45.168 26.5333 45.392 26.576C45.3067 27.1307 45.1413 27.504 44.896 27.696C44.6613 27.888 44.2987 27.984 43.808 27.984C43.7227 27.984 43.6 27.984 43.44 27.984C43.28 27.984 43.1093 27.984 42.928 27.984C42.7573 27.984 42.592 27.984 42.432 27.984C42.272 27.984 42.1547 27.984 42.08 27.984C41.6 27.984 41.2267 27.9413 40.96 27.856C40.6933 27.76 40.5067 27.5893 40.4 27.344C40.2933 27.0987 40.24 26.7627 40.24 26.336V24.768ZM40.544 33.52L41.952 32.72C42.336 32.8907 42.736 33.088 43.152 33.312C43.568 33.5253 43.9627 33.744 44.336 33.968C44.7093 34.1813 45.0293 34.3787 45.296 34.56L43.328 35.28C43.0293 35.024 42.6187 34.736 42.096 34.416C41.584 34.0853 41.0667 33.7867 40.544 33.52ZM37.728 32.736L39.408 33.312C39.0027 33.696 38.496 34.064 37.888 34.416C37.28 34.768 36.6987 35.056 36.144 35.28C36.0373 35.1627 35.8987 35.0347 35.728 34.896C35.568 34.7467 35.3973 34.6027 35.216 34.464C35.0347 34.3253 34.88 34.208 34.752 34.112C35.3067 33.9413 35.856 33.7387 36.4 33.504C36.944 33.2587 37.3867 33.0027 37.728 32.736ZM53.408 26.368C53.8667 26.4107 54.3253 26.4427 54.784 26.464C55.2533 26.4853 55.728 26.496 56.208 26.496C57.1893 26.496 58.1653 26.4533 59.136 26.368C60.1067 26.2827 61.008 26.16 61.84 26V27.968C60.9973 28.096 60.0907 28.192 59.12 28.256C58.1493 28.32 57.1787 28.3573 56.208 28.368C55.7387 28.368 55.2747 28.3627 54.816 28.352C54.3573 28.3307 53.8933 28.304 53.424 28.272L53.408 26.368ZM59.488 23.664C59.4667 23.8133 59.4453 23.9787 59.424 24.16C59.4133 24.3413 59.4027 24.5173 59.392 24.688C59.3813 24.8587 59.3707 25.0933 59.36 25.392C59.3493 25.68 59.3387 26.0053 59.328 26.368C59.328 26.72 59.328 27.088 59.328 27.472C59.328 28.208 59.3387 28.8907 59.36 29.52C59.392 30.1493 59.424 30.736 59.456 31.28C59.4987 31.8133 59.5307 32.3093 59.552 32.768C59.5733 33.216 59.584 33.632 59.584 34.016C59.584 34.432 59.5253 34.8213 59.408 35.184C59.3013 35.536 59.1253 35.84 58.88 36.096C58.6347 36.3627 58.3093 36.5653 57.904 36.704C57.5093 36.8533 57.024 36.928 56.448 36.928C55.3387 36.928 54.464 36.704 53.824 36.256C53.184 35.808 52.864 35.1627 52.864 34.32C52.864 33.776 53.008 33.296 53.296 32.88C53.5947 32.464 54.0053 32.144 54.528 31.92C55.0613 31.6853 55.6907 31.568 56.416 31.568C57.1733 31.568 57.8613 31.6533 58.48 31.824C59.0987 31.984 59.6587 32.1973 60.16 32.464C60.672 32.7307 61.1307 33.0187 61.536 33.328C61.9413 33.6373 62.2987 33.936 62.608 34.224L61.536 35.904C60.9173 35.328 60.3147 34.832 59.728 34.416C59.152 34 58.5813 33.68 58.016 33.456C57.4507 33.232 56.864 33.12 56.256 33.12C55.808 33.12 55.44 33.2107 55.152 33.392C54.8747 33.5627 54.736 33.7973 54.736 34.096C54.736 34.4267 54.88 34.6667 55.168 34.816C55.456 34.9653 55.808 35.04 56.224 35.04C56.5547 35.04 56.816 34.9813 57.008 34.864C57.2 34.7467 57.3387 34.5813 57.424 34.368C57.5093 34.1547 57.552 33.8933 57.552 33.584C57.552 33.3067 57.5413 32.944 57.52 32.496C57.4987 32.0373 57.472 31.536 57.44 30.992C57.408 30.4373 57.3813 29.8613 57.36 29.264C57.3387 28.656 57.328 28.064 57.328 27.488C57.328 26.88 57.328 26.3253 57.328 25.824C57.328 25.3227 57.3227 24.9547 57.312 24.72C57.312 24.592 57.3013 24.4267 57.28 24.224C57.2587 24.0107 57.232 23.824 57.2 23.664H59.488ZM51.68 23.824C51.648 23.9307 51.6053 24.08 51.552 24.272C51.4987 24.464 51.4453 24.656 51.392 24.848C51.3493 25.0293 51.3173 25.168 51.296 25.264C51.2427 25.4773 51.184 25.776 51.12 26.16C51.0667 26.544 51.0027 26.976 50.928 27.456C50.8533 27.9253 50.7893 28.4053 50.736 28.896C50.6827 29.3867 50.6347 29.856 50.592 30.304C50.56 30.752 50.544 31.136 50.544 31.456C50.544 31.6053 50.5493 31.776 50.56 31.968C50.5707 32.16 50.5867 32.336 50.608 32.496C50.6827 32.304 50.7573 32.1173 50.832 31.936C50.9173 31.7547 50.9973 31.5733 51.072 31.392C51.1573 31.2107 51.2373 31.0347 51.312 30.864L52.304 31.632C52.1653 32.0693 52.016 32.528 51.856 33.008C51.696 33.488 51.552 33.9467 51.424 34.384C51.3067 34.8107 51.216 35.168 51.152 35.456C51.1307 35.5627 51.1093 35.6907 51.088 35.84C51.0667 35.9893 51.0613 36.1067 51.072 36.192C51.072 36.2773 51.072 36.3787 51.072 36.496C51.072 36.624 51.0773 36.7467 51.088 36.864L49.296 36.992C49.1253 36.4373 48.976 35.7173 48.848 34.832C48.72 33.9467 48.656 32.9653 48.656 31.888C48.656 31.28 48.6827 30.6507 48.736 30C48.7893 29.3493 48.8533 28.72 48.928 28.112C49.0027 27.4933 49.072 26.9333 49.136 26.432C49.2107 25.9307 49.2693 25.5253 49.312 25.216C49.344 24.992 49.376 24.736 49.408 24.448C49.44 24.16 49.4613 23.8933 49.472 23.648L51.68 23.824ZM60.8 23.024C60.9067 23.2267 61.008 23.4613 61.104 23.728C61.2107 23.984 61.312 24.2453 61.408 24.512C61.504 24.768 61.584 24.9973 61.648 25.2L60.528 25.568C60.4533 25.3333 60.368 25.088 60.272 24.832C60.1867 24.576 60.096 24.32 60 24.064C59.9147 23.808 59.8187 23.5733 59.712 23.36L60.8 23.024ZM62.448 22.512C62.5547 22.7147 62.6613 22.9493 62.768 23.216C62.8747 23.472 62.976 23.728 63.072 23.984C63.1787 24.24 63.264 24.4747 63.328 24.688L62.224 25.04C62.1067 24.6987 61.9733 24.3307 61.824 23.936C61.6747 23.5307 61.52 23.168 61.36 22.848L62.448 22.512ZM80.8 35.168C80.4267 35.5093 79.9947 35.792 79.504 36.016C79.0133 36.24 78.4427 36.352 77.792 36.352C77.1947 36.352 76.7093 36.144 76.336 35.728C75.9733 35.312 75.792 34.7147 75.792 33.936C75.792 33.5093 75.8187 33.0507 75.872 32.56C75.936 32.0587 76.0053 31.5573 76.08 31.056C76.1547 30.5547 76.2187 30.08 76.272 29.632C76.336 29.1733 76.368 28.7627 76.368 28.4C76.368 28.0053 76.272 27.712 76.08 27.52C75.888 27.3173 75.6213 27.216 75.28 27.216C74.9067 27.216 74.4907 27.3493 74.032 27.616C73.5733 27.872 73.104 28.2027 72.624 28.608C72.144 29.0133 71.6853 29.4453 71.248 29.904C70.8213 30.3627 70.448 30.8 70.128 31.216L70.112 28.752C70.304 28.5387 70.5547 28.288 70.864 28C71.184 27.712 71.5413 27.4133 71.936 27.104C72.3413 26.7947 72.7627 26.5067 73.2 26.24C73.648 25.9627 74.096 25.7387 74.544 25.568C75.0027 25.3973 75.4453 25.312 75.872 25.312C76.448 25.312 76.9173 25.4187 77.28 25.632C77.6533 25.8347 77.9307 26.1173 78.112 26.48C78.2933 26.832 78.384 27.232 78.384 27.68C78.384 28.096 78.3573 28.5493 78.304 29.04C78.2507 29.52 78.1867 30.0107 78.112 30.512C78.0373 31.0133 77.9733 31.5093 77.92 32C77.8773 32.4907 77.856 32.9387 77.856 33.344C77.856 33.5573 77.9093 33.7333 78.016 33.872C78.1227 34 78.272 34.064 78.464 34.064C78.7627 34.064 79.0933 33.968 79.456 33.776C79.8187 33.5733 80.1813 33.2853 80.544 32.912L80.8 35.168ZM69.744 27.536C69.5733 27.5573 69.3547 27.584 69.088 27.616C68.8213 27.648 68.5333 27.6853 68.224 27.728C67.9253 27.7707 67.6213 27.8133 67.312 27.856C67.0027 27.8987 66.7147 27.936 66.448 27.968L66.24 25.92C66.4747 25.9307 66.6933 25.936 66.896 25.936C67.1093 25.9253 67.3547 25.9147 67.632 25.904C67.888 25.8827 68.192 25.856 68.544 25.824C68.9067 25.7813 69.2693 25.7333 69.632 25.68C70.0053 25.6267 70.352 25.568 70.672 25.504C70.992 25.44 71.2427 25.376 71.424 25.312L72.064 26.128C71.968 26.256 71.856 26.416 71.728 26.608C71.6107 26.8 71.488 26.9973 71.36 27.2C71.232 27.392 71.12 27.5627 71.024 27.712L70.08 30.72C69.9093 30.9653 69.696 31.2747 69.44 31.648C69.1947 32.0213 68.9333 32.416 68.656 32.832C68.3787 33.248 68.1067 33.648 67.84 34.032C67.5733 34.416 67.3333 34.752 67.12 35.04L65.856 33.296C66.0587 33.04 66.288 32.7467 66.544 32.416C66.8107 32.0747 67.088 31.7173 67.376 31.344C67.664 30.96 67.9467 30.5813 68.224 30.208C68.5013 29.824 68.7573 29.4667 68.992 29.136C69.2373 28.7947 69.44 28.5013 69.6 28.256L69.632 27.84L69.744 27.536ZM69.552 24.464C69.552 24.2293 69.552 23.9947 69.552 23.76C69.552 23.5147 69.5307 23.2693 69.488 23.024L71.824 23.104C71.76 23.3493 71.6907 23.7067 71.616 24.176C71.552 24.6347 71.4827 25.1627 71.408 25.76C71.344 26.3573 71.28 26.9867 71.216 27.648C71.1627 28.2987 71.1147 28.9493 71.072 29.6C71.04 30.2507 71.024 30.8587 71.024 31.424C71.024 31.8613 71.024 32.304 71.024 32.752C71.0347 33.2 71.0453 33.6587 71.056 34.128C71.0667 34.5973 71.088 35.0827 71.12 35.584C71.1307 35.7227 71.1467 35.9147 71.168 36.16C71.1893 36.416 71.2107 36.6347 71.232 36.816H69.024C69.0453 36.624 69.056 36.4107 69.056 36.176C69.0667 35.9413 69.072 35.76 69.072 35.632C69.0827 35.1093 69.0933 34.624 69.104 34.176C69.1147 33.728 69.12 33.2533 69.12 32.752C69.1307 32.2507 69.1467 31.6693 69.168 31.008C69.1787 30.7627 69.1947 30.4533 69.216 30.08C69.2373 29.696 69.2587 29.28 69.28 28.832C69.312 28.3733 69.344 27.9093 69.376 27.44C69.408 26.9707 69.4347 26.5333 69.456 26.128C69.488 25.712 69.5093 25.36 69.52 25.072C69.5413 24.7733 69.552 24.5707 69.552 24.464ZM86.32 23.808C86.544 23.84 86.784 23.8613 87.04 23.872C87.296 23.8827 87.5413 23.888 87.776 23.888C87.9467 23.888 88.2027 23.888 88.544 23.888C88.8853 23.8773 89.2693 23.8667 89.696 23.856C90.1333 23.8453 90.5653 23.8347 90.992 23.824C91.4187 23.8133 91.8027 23.8027 92.144 23.792C92.496 23.7707 92.768 23.7547 92.96 23.744C93.2907 23.712 93.552 23.6853 93.744 23.664C93.936 23.632 94.08 23.6 94.176 23.568L95.216 24.992C95.0347 25.1093 94.848 25.2267 94.656 25.344C94.464 25.4613 94.2773 25.5893 94.096 25.728C93.8827 25.8773 93.6267 26.0747 93.328 26.32C93.0293 26.5547 92.7093 26.8053 92.368 27.072C92.0373 27.3387 91.712 27.6 91.392 27.856C91.0827 28.112 90.8 28.3413 90.544 28.544C90.8107 28.48 91.0667 28.4373 91.312 28.416C91.5573 28.384 91.808 28.368 92.064 28.368C92.9707 28.368 93.7813 28.544 94.496 28.896C95.2213 29.248 95.792 29.728 96.208 30.336C96.6347 30.9333 96.848 31.6213 96.848 32.4C96.848 33.2427 96.6347 34.0053 96.208 34.688C95.7813 35.3707 95.136 35.9147 94.272 36.32C93.4187 36.7253 92.3467 36.928 91.056 36.928C90.32 36.928 89.6533 36.8213 89.056 36.608C88.4693 36.3947 88.0053 36.0907 87.664 35.696C87.3227 35.3013 87.152 34.8373 87.152 34.304C87.152 33.8667 87.2693 33.4613 87.504 33.088C87.7493 32.704 88.0853 32.3947 88.512 32.16C88.9493 31.9253 89.4507 31.808 90.016 31.808C90.752 31.808 91.3707 31.9573 91.872 32.256C92.384 32.544 92.7733 32.9333 93.04 33.424C93.3173 33.9147 93.4613 34.4533 93.472 35.04L91.6 35.296C91.5893 34.7093 91.44 34.24 91.152 33.888C90.8747 33.5253 90.5013 33.344 90.032 33.344C89.7333 33.344 89.4933 33.424 89.312 33.584C89.1307 33.7333 89.04 33.9093 89.04 34.112C89.04 34.4107 89.1893 34.6507 89.488 34.832C89.7867 35.0133 90.176 35.104 90.656 35.104C91.5627 35.104 92.32 34.9973 92.928 34.784C93.536 34.56 93.9893 34.2453 94.288 33.84C94.5973 33.424 94.752 32.9333 94.752 32.368C94.752 31.888 94.6027 31.4667 94.304 31.104C94.016 30.7413 93.6213 30.4587 93.12 30.256C92.6187 30.0533 92.0533 29.952 91.424 29.952C90.8053 29.952 90.24 30.032 89.728 30.192C89.216 30.3413 88.7307 30.56 88.272 30.848C87.824 31.1253 87.3813 31.4667 86.944 31.872C86.5173 32.2667 86.0907 32.7093 85.664 33.2L84.208 31.696C84.496 31.4613 84.8213 31.2 85.184 30.912C85.5467 30.6133 85.9147 30.304 86.288 29.984C86.672 29.664 87.0293 29.3653 87.36 29.088C87.7013 28.8 87.9893 28.56 88.224 28.368C88.448 28.1867 88.7093 27.9733 89.008 27.728C89.3067 27.4827 89.616 27.232 89.936 26.976C90.256 26.7093 90.56 26.4587 90.848 26.224C91.136 25.9787 91.376 25.7707 91.568 25.6C91.408 25.6 91.2 25.6053 90.944 25.616C90.688 25.6267 90.4053 25.6373 90.096 25.648C89.7973 25.6587 89.4933 25.6693 89.184 25.68C88.8853 25.6907 88.6027 25.7067 88.336 25.728C88.08 25.7387 87.8667 25.7493 87.696 25.76C87.4827 25.7707 87.2587 25.7867 87.024 25.808C86.7893 25.8293 86.576 25.856 86.384 25.888L86.32 23.808ZM108.624 27.568V28.928H113.456V27.568H108.624ZM108.624 24.704V26.048H113.456V24.704H108.624ZM106.88 23.088H115.296V30.56H106.88V23.088ZM106.784 31.936H115.456V33.664H106.784V31.936ZM105.664 35.184H116V36.928H105.664V35.184ZM100.976 23.328H106.288V25.104H100.976V23.328ZM101.12 27.936H106.016V29.696H101.12V27.936ZM100.784 34.016C101.253 33.888 101.776 33.744 102.352 33.584C102.939 33.4133 103.557 33.2267 104.208 33.024C104.859 32.8107 105.499 32.6027 106.128 32.4L106.464 34.224C105.568 34.5227 104.661 34.8267 103.744 35.136C102.827 35.4453 101.984 35.7227 101.216 35.968L100.784 34.016ZM102.736 24.032H104.576V33.856L102.736 34.16V24.032ZM110.272 23.776H111.888V29.792H112.064V36H110.096V29.792H110.272V23.776ZM120.576 30.08H131.376V31.952H120.576V30.08ZM120.576 34.688H131.36V36.576H120.576V34.688ZM119.616 25.456H132.448V37.424H130.432V27.392H121.536V37.44H119.616V25.456ZM124.928 22.416H126.912V35.68H124.928V22.416Z" fill="#13293A"/>
<circle cx="350.5" cy="29.5" r="9.5" fill="#F6931A"/>
<path d="M348 25L354.5 29.5L348 34" stroke="white" stroke-width="2" stroke-linecap="round" stroke-linejoin="round"/>
<line x1="15" y1="58.5" x2="375" y2="58.5" stroke="#13293A"/>
</svg>
