<svg width="390" height="59" viewBox="0 0 390 59" fill="none" xmlns="http://www.w3.org/2000/svg">
<rect width="390" height="59" fill="#FFFBEC"/>
<path d="M33.04 22.48H34.8V37.392H33.04V22.48ZM30.608 27.744H37.168V29.536H30.608V27.744ZM32.688 28.688L33.76 29.216C33.6213 29.7493 33.4613 30.3147 33.28 30.912C33.0987 31.4987 32.896 32.0853 32.672 32.672C32.448 33.2587 32.2133 33.8133 31.968 34.336C31.7227 34.848 31.4613 35.296 31.184 35.68C31.1307 35.4773 31.0507 35.2587 30.944 35.024C30.848 34.7787 30.7413 34.5387 30.624 34.304C30.5173 34.0693 30.416 33.8667 30.32 33.696C30.64 33.3013 30.9493 32.816 31.248 32.24C31.5573 31.6533 31.84 31.0507 32.096 30.432C32.352 29.8027 32.5493 29.2213 32.688 28.688ZM34.784 29.616C34.8693 29.7013 34.992 29.8347 35.152 30.016C35.3227 30.1973 35.5093 30.4053 35.712 30.64C35.9147 30.864 36.1067 31.0933 36.288 31.328C36.48 31.552 36.6507 31.7547 36.8 31.936C36.96 32.1173 37.072 32.256 37.136 32.352L35.968 33.856C35.8613 33.6213 35.7227 33.3493 35.552 33.04C35.3813 32.72 35.1947 32.3947 34.992 32.064C34.7893 31.7227 34.592 31.4027 34.4 31.104C34.208 30.8053 34.0427 30.56 33.904 30.368L34.784 29.616ZM30.592 23.712L31.936 23.36C32.0747 23.744 32.1973 24.16 32.304 24.608C32.4213 25.056 32.5173 25.4933 32.592 25.92C32.6667 26.3467 32.72 26.7307 32.752 27.072L31.312 27.456C31.3013 27.1147 31.2587 26.7307 31.184 26.304C31.12 25.8667 31.0347 25.424 30.928 24.976C30.832 24.5173 30.72 24.096 30.592 23.712ZM35.856 23.28L37.472 23.632C37.344 24.0693 37.2053 24.5173 37.056 24.976C36.9067 25.4347 36.7573 25.8773 36.608 26.304C36.4587 26.72 36.32 27.088 36.192 27.408L34.976 27.056C35.0933 26.7147 35.2053 26.3253 35.312 25.888C35.4293 25.44 35.536 24.9867 35.632 24.528C35.728 24.0693 35.8027 23.6533 35.856 23.28ZM41.92 22.4H43.712V37.424H41.92V22.4ZM37.136 32.416L45.36 30.944L45.648 32.72L37.424 34.208L37.136 32.416ZM38.032 24.576L38.976 23.28C39.2747 23.4507 39.584 23.648 39.904 23.872C40.2347 24.096 40.544 24.3253 40.832 24.56C41.1307 24.7947 41.3653 25.0133 41.536 25.216L40.544 26.656C40.384 26.4427 40.16 26.2133 39.872 25.968C39.5947 25.7227 39.296 25.4773 38.976 25.232C38.656 24.9867 38.3413 24.768 38.032 24.576ZM37.312 28.608L38.208 27.232C38.528 27.392 38.8587 27.584 39.2 27.808C39.5413 28.0213 39.8667 28.24 40.176 28.464C40.4853 28.6773 40.736 28.8853 40.928 29.088L39.952 30.624C39.7813 30.4213 39.5467 30.2027 39.248 29.968C38.9493 29.7227 38.6293 29.4827 38.288 29.248C37.9573 29.0027 37.632 28.7893 37.312 28.608ZM55.536 24.24C55.0987 24.848 54.544 25.4773 53.872 26.128C53.2107 26.7787 52.4747 27.4027 51.664 28C50.864 28.5973 50.0267 29.1307 49.152 29.6C49.0667 29.44 48.9547 29.264 48.816 29.072C48.688 28.88 48.544 28.6933 48.384 28.512C48.2347 28.3307 48.0907 28.1707 47.952 28.032C48.8693 27.5947 49.7493 27.056 50.592 26.416C51.4347 25.7653 52.1867 25.088 52.848 24.384C53.52 23.68 54.0533 23.0027 54.448 22.352H56.448C56.8853 22.96 57.3653 23.5413 57.888 24.096C58.4107 24.6507 58.9707 25.1627 59.568 25.632C60.1653 26.1013 60.7787 26.5227 61.408 26.896C62.0373 27.2693 62.672 27.584 63.312 27.84C63.0667 28.0853 62.8373 28.3627 62.624 28.672C62.4107 28.9813 62.2133 29.28 62.032 29.568C61.424 29.248 60.8053 28.88 60.176 28.464C59.5573 28.048 58.96 27.6053 58.384 27.136C57.808 26.656 57.2747 26.1707 56.784 25.68C56.2933 25.1893 55.8773 24.7093 55.536 24.24ZM51.536 27.2H59.584V28.88H51.536V27.2ZM49.616 30.464H61.472V32.128H49.616V30.464ZM48.816 35.328H62.416V36.976H48.816V35.328ZM54.496 27.872H56.528V36.16H54.496V27.872ZM50.624 32.736L52.16 32.096C52.3627 32.3627 52.56 32.656 52.752 32.976C52.9547 33.296 53.136 33.6107 53.296 33.92C53.456 34.2293 53.5733 34.5067 53.648 34.752L52 35.488C51.936 35.2427 51.8293 34.96 51.68 34.64C51.5307 34.3093 51.3653 33.9787 51.184 33.648C51.0027 33.3173 50.816 33.0133 50.624 32.736ZM58.752 32.112L60.592 32.784C60.272 33.2747 59.9413 33.7653 59.6 34.256C59.2587 34.736 58.944 35.1467 58.656 35.488L57.216 34.88C57.3973 34.624 57.584 34.3413 57.776 34.032C57.968 33.712 58.1493 33.3867 58.32 33.056C58.4907 32.7147 58.6347 32.4 58.752 32.112ZM78.064 24.272C78.064 24.528 78.1547 24.7467 78.336 24.928C78.5173 25.0987 78.7307 25.184 78.976 25.184C79.232 25.184 79.4507 25.0987 79.632 24.928C79.8133 24.7467 79.904 24.528 79.904 24.272C79.904 24.016 79.8133 23.7973 79.632 23.616C79.4507 23.4347 79.232 23.344 78.976 23.344C78.7307 23.344 78.5173 23.4347 78.336 23.616C78.1547 23.7973 78.064 24.016 78.064 24.272ZM77.072 24.272C77.072 23.92 77.1573 23.6 77.328 23.312C77.5093 23.0133 77.744 22.7787 78.032 22.608C78.32 22.4373 78.6347 22.352 78.976 22.352C79.328 22.352 79.648 22.4373 79.936 22.608C80.2347 22.7787 80.4693 23.0133 80.64 23.312C80.8107 23.6 80.896 23.92 80.896 24.272C80.896 24.6133 80.8107 24.928 80.64 25.216C80.4693 25.504 80.2347 25.7387 79.936 25.92C79.648 26.0907 79.328 26.176 78.976 26.176C78.6347 26.176 78.32 26.0907 78.032 25.92C77.744 25.7387 77.5093 25.504 77.328 25.216C77.1573 24.928 77.072 24.6133 77.072 24.272ZM79.008 25.536C78.9333 25.6853 78.8693 25.8667 78.816 26.08C78.7627 26.2827 78.7093 26.4693 78.656 26.64C78.5707 27.0347 78.4587 27.4773 78.32 27.968C78.1813 28.448 78.016 28.9493 77.824 29.472C77.632 29.9947 77.4027 30.512 77.136 31.024C76.88 31.536 76.5867 32.016 76.256 32.464C75.776 33.104 75.216 33.7013 74.576 34.256C73.936 34.8107 73.2213 35.312 72.432 35.76C71.6427 36.208 70.7733 36.5867 69.824 36.896L68.08 34.976C69.1467 34.72 70.064 34.4053 70.832 34.032C71.6 33.6587 72.2667 33.232 72.832 32.752C73.408 32.272 73.9147 31.76 74.352 31.216C74.704 30.768 75.0027 30.2827 75.248 29.76C75.504 29.2373 75.712 28.7147 75.872 28.192C76.0427 27.6587 76.16 27.1627 76.224 26.704C76.064 26.704 75.7973 26.704 75.424 26.704C75.0613 26.704 74.6293 26.704 74.128 26.704C73.6373 26.704 73.12 26.704 72.576 26.704C72.0427 26.704 71.5253 26.704 71.024 26.704C70.5227 26.704 70.0693 26.704 69.664 26.704C69.2693 26.704 68.976 26.704 68.784 26.704C68.4107 26.704 68.048 26.7093 67.696 26.72C67.3547 26.7307 67.0827 26.7467 66.88 26.768V24.512C67.04 24.5333 67.232 24.5547 67.456 24.576C67.6907 24.5973 67.9253 24.6133 68.16 24.624C68.4053 24.6347 68.6133 24.64 68.784 24.64C68.9547 24.64 69.1947 24.64 69.504 24.64C69.824 24.64 70.192 24.64 70.608 24.64C71.024 24.64 71.456 24.64 71.904 24.64C72.3627 24.64 72.816 24.64 73.264 24.64C73.7227 24.64 74.1493 24.64 74.544 24.64C74.9387 24.64 75.28 24.64 75.568 24.64C75.856 24.64 76.064 24.64 76.192 24.64C76.352 24.64 76.544 24.6347 76.768 24.624C77.0027 24.6133 77.2267 24.576 77.44 24.512L79.008 25.536ZM86.368 23.728C86.592 23.76 86.8587 23.7813 87.168 23.792C87.4773 23.8027 87.7653 23.808 88.032 23.808C88.2347 23.808 88.544 23.808 88.96 23.808C89.3867 23.808 89.856 23.808 90.368 23.808C90.8907 23.808 91.408 23.808 91.92 23.808C92.432 23.808 92.8907 23.808 93.296 23.808C93.7013 23.808 94 23.808 94.192 23.808C94.4373 23.808 94.7307 23.8027 95.072 23.792C95.4133 23.7813 95.696 23.76 95.92 23.728V25.792C95.7067 25.7707 95.4293 25.76 95.088 25.76C94.7573 25.7493 94.448 25.744 94.16 25.744C93.9893 25.744 93.696 25.744 93.28 25.744C92.8747 25.744 92.4107 25.744 91.888 25.744C91.376 25.744 90.8587 25.744 90.336 25.744C89.824 25.744 89.36 25.744 88.944 25.744C88.528 25.744 88.224 25.744 88.032 25.744C87.776 25.744 87.4933 25.7493 87.184 25.76C86.8853 25.7707 86.6133 25.7813 86.368 25.792V23.728ZM97.264 28.368C97.2107 28.4747 97.152 28.592 97.088 28.72C97.0347 28.848 96.992 28.9547 96.96 29.04C96.7147 29.808 96.4053 30.576 96.032 31.344C95.6693 32.1013 95.1893 32.8107 94.592 33.472C93.792 34.368 92.896 35.0987 91.904 35.664C90.912 36.2187 89.904 36.64 88.88 36.928L87.296 35.12C88.5013 34.864 89.5733 34.4907 90.512 34C91.4507 33.5093 92.224 32.9493 92.832 32.32C93.2587 31.8827 93.6 31.424 93.856 30.944C94.1227 30.4533 94.3307 29.9893 94.48 29.552C94.3627 29.552 94.16 29.552 93.872 29.552C93.584 29.552 93.2373 29.552 92.832 29.552C92.4373 29.552 92.0107 29.552 91.552 29.552C91.0933 29.552 90.624 29.552 90.144 29.552C89.664 29.552 89.2053 29.552 88.768 29.552C88.3307 29.552 87.936 29.552 87.584 29.552C87.2427 29.552 86.9653 29.552 86.752 29.552C86.56 29.552 86.288 29.5573 85.936 29.568C85.584 29.5787 85.2373 29.6 84.896 29.632V27.552C85.2373 27.5733 85.568 27.5947 85.888 27.616C86.2187 27.6373 86.5067 27.648 86.752 27.648C86.912 27.648 87.152 27.648 87.472 27.648C87.8027 27.648 88.1813 27.648 88.608 27.648C89.0347 27.648 89.488 27.648 89.968 27.648C90.4587 27.648 90.944 27.648 91.424 27.648C91.9147 27.648 92.3787 27.648 92.816 27.648C93.2533 27.648 93.632 27.648 93.952 27.648C94.272 27.648 94.512 27.648 94.672 27.648C94.928 27.648 95.1573 27.632 95.36 27.6C95.5733 27.568 95.7333 27.5307 95.84 27.488L97.264 28.368ZM104.256 23.84C104.533 24.032 104.859 24.2667 105.232 24.544C105.605 24.8213 105.989 25.1253 106.384 25.456C106.789 25.776 107.168 26.0907 107.52 26.4C107.872 26.7093 108.16 26.9867 108.384 27.232L106.752 28.896C106.549 28.672 106.283 28.4053 105.952 28.096C105.621 27.7867 105.264 27.4667 104.88 27.136C104.496 26.8053 104.117 26.4907 103.744 26.192C103.371 25.8933 103.04 25.6427 102.752 25.44L104.256 23.84ZM102.256 34.496C103.088 34.3787 103.872 34.2133 104.608 34C105.344 33.7867 106.027 33.5413 106.656 33.264C107.285 32.9867 107.861 32.6987 108.384 32.4C109.291 31.856 110.123 31.2373 110.88 30.544C111.637 29.8507 112.299 29.1307 112.864 28.384C113.429 27.6267 113.877 26.8907 114.208 26.176L115.456 28.432C115.051 29.1467 114.549 29.8613 113.952 30.576C113.365 31.2907 112.699 31.9733 111.952 32.624C111.205 33.264 110.4 33.84 109.536 34.352C108.992 34.6827 108.405 34.9973 107.776 35.296C107.147 35.584 106.48 35.84 105.776 36.064C105.083 36.2987 104.357 36.48 103.6 36.608L102.256 34.496Z" fill="#13293A"/>
<line x1="15" y1="58.5" x2="375" y2="58.5" stroke="#13293A"/>
<circle cx="350.5" cy="29.5" r="9.5" fill="#F6931A"/>
<path d="M348 25L354.5 29.5L348 34" stroke="white" stroke-width="2" stroke-linecap="round" stroke-linejoin="round"/>
</svg>
