<svg width="390" height="59" viewBox="0 0 390 59" fill="none" xmlns="http://www.w3.org/2000/svg">
<rect width="390" height="59" fill="#FFFBEC"/>
<path d="M40.944 23.184C40.912 23.4293 40.8853 23.696 40.864 23.984C40.8533 24.272 40.848 24.544 40.848 24.8C40.8587 25.248 40.8693 25.7333 40.88 26.256C40.8907 26.7787 40.9013 27.3333 40.912 27.92C40.9333 28.5067 40.9493 29.1093 40.96 29.728C40.9707 30.336 40.9813 30.9493 40.992 31.568C41.0027 32.176 41.0133 32.7787 41.024 33.376C41.0347 33.9627 41.0453 34.528 41.056 35.072C41.0667 35.584 40.9227 35.9787 40.624 36.256C40.3253 36.544 39.872 36.688 39.264 36.688C38.784 36.688 38.3147 36.6773 37.856 36.656C37.3973 36.6453 36.9387 36.624 36.48 36.592L36.304 34.512C36.6667 34.576 37.0453 34.624 37.44 34.656C37.8347 34.688 38.1653 34.704 38.432 34.704C38.6347 34.704 38.7787 34.6507 38.864 34.544C38.9493 34.4373 38.992 34.2667 38.992 34.032C38.992 33.6693 38.992 33.2533 38.992 32.784C38.992 32.304 38.9867 31.7973 38.976 31.264C38.976 30.72 38.9707 30.1653 38.96 29.6C38.9493 29.024 38.9387 28.4533 38.928 27.888C38.9173 27.3227 38.9013 26.7787 38.88 26.256C38.8693 25.7333 38.8533 25.248 38.832 24.8C38.8107 24.448 38.784 24.144 38.752 23.888C38.7307 23.6213 38.704 23.3867 38.672 23.184H40.944ZM31.808 25.84C32.0427 25.872 32.3253 25.8987 32.656 25.92C32.9973 25.9413 33.3067 25.952 33.584 25.952C33.744 25.952 34.016 25.952 34.4 25.952C34.784 25.952 35.2373 25.952 35.76 25.952C36.2933 25.952 36.8587 25.952 37.456 25.952C38.0533 25.952 38.6453 25.952 39.232 25.952C39.8187 25.952 40.368 25.952 40.88 25.952C41.392 25.952 41.824 25.952 42.176 25.952C42.528 25.952 42.7573 25.952 42.864 25.952C43.12 25.952 43.4133 25.9413 43.744 25.92C44.0747 25.888 44.336 25.856 44.528 25.824V27.952C44.272 27.9413 44 27.9307 43.712 27.92C43.4347 27.9093 43.1893 27.904 42.976 27.904C42.88 27.904 42.656 27.904 42.304 27.904C41.952 27.904 41.5147 27.904 40.992 27.904C40.48 27.904 39.92 27.904 39.312 27.904C38.704 27.904 38.0907 27.904 37.472 27.904C36.864 27.904 36.288 27.904 35.744 27.904C35.2107 27.904 34.7573 27.904 34.384 27.904C34.0107 27.904 33.76 27.904 33.632 27.904C33.344 27.904 33.04 27.9093 32.72 27.92C32.4 27.9307 32.096 27.9467 31.808 27.968V25.84ZM30.96 33.456C31.792 33.0613 32.5867 32.6187 33.344 32.128C34.1013 31.6373 34.7947 31.1253 35.424 30.592C36.0533 30.0587 36.608 29.5307 37.088 29.008C37.5787 28.4747 37.968 27.9733 38.256 27.504L39.296 27.52L39.312 29.216C38.992 29.7067 38.5813 30.2187 38.08 30.752C37.5787 31.2853 37.024 31.8187 36.416 32.352C35.808 32.8853 35.1627 33.392 34.48 33.872C33.7973 34.3413 33.1147 34.7573 32.432 35.12L30.96 33.456ZM51.456 23.84C51.7333 24.032 52.0587 24.2667 52.432 24.544C52.8053 24.8213 53.1893 25.1253 53.584 25.456C53.9893 25.776 54.368 26.0907 54.72 26.4C55.072 26.7093 55.36 26.9867 55.584 27.232L53.952 28.896C53.7493 28.672 53.4827 28.4053 53.152 28.096C52.8213 27.7867 52.464 27.4667 52.08 27.136C51.696 26.8053 51.3173 26.4907 50.944 26.192C50.5707 25.8933 50.24 25.6427 49.952 25.44L51.456 23.84ZM49.456 34.496C50.288 34.3787 51.072 34.2133 51.808 34C52.544 33.7867 53.2267 33.5413 53.856 33.264C54.4853 32.9867 55.0613 32.6987 55.584 32.4C56.4907 31.856 57.3227 31.2373 58.08 30.544C58.8373 29.8507 59.4987 29.1307 60.064 28.384C60.6293 27.6267 61.0773 26.8907 61.408 26.176L62.656 28.432C62.2507 29.1467 61.7493 29.8613 61.152 30.576C60.5653 31.2907 59.8987 31.9733 59.152 32.624C58.4053 33.264 57.6 33.84 56.736 34.352C56.192 34.6827 55.6053 34.9973 54.976 35.296C54.3467 35.584 53.68 35.84 52.976 36.064C52.2827 36.2987 51.5573 36.48 50.8 36.608L49.456 34.496ZM68.768 23.728C68.992 23.76 69.2587 23.7813 69.568 23.792C69.8773 23.8027 70.1653 23.808 70.432 23.808C70.6347 23.808 70.944 23.808 71.36 23.808C71.7867 23.808 72.256 23.808 72.768 23.808C73.2907 23.808 73.808 23.808 74.32 23.808C74.832 23.808 75.2907 23.808 75.696 23.808C76.1013 23.808 76.4 23.808 76.592 23.808C76.8373 23.808 77.1307 23.8027 77.472 23.792C77.8133 23.7813 78.096 23.76 78.32 23.728V25.792C78.1067 25.7707 77.8293 25.76 77.488 25.76C77.1573 25.7493 76.848 25.744 76.56 25.744C76.3893 25.744 76.096 25.744 75.68 25.744C75.2747 25.744 74.8107 25.744 74.288 25.744C73.776 25.744 73.2587 25.744 72.736 25.744C72.224 25.744 71.76 25.744 71.344 25.744C70.928 25.744 70.624 25.744 70.432 25.744C70.176 25.744 69.8933 25.7493 69.584 25.76C69.2853 25.7707 69.0133 25.7813 68.768 25.792V23.728ZM79.664 28.368C79.6107 28.4747 79.552 28.592 79.488 28.72C79.4347 28.848 79.392 28.9547 79.36 29.04C79.1147 29.808 78.8053 30.576 78.432 31.344C78.0693 32.1013 77.5893 32.8107 76.992 33.472C76.192 34.368 75.296 35.0987 74.304 35.664C73.312 36.2187 72.304 36.64 71.28 36.928L69.696 35.12C70.9013 34.864 71.9733 34.4907 72.912 34C73.8507 33.5093 74.624 32.9493 75.232 32.32C75.6587 31.8827 76 31.424 76.256 30.944C76.5227 30.4533 76.7307 29.9893 76.88 29.552C76.7627 29.552 76.56 29.552 76.272 29.552C75.984 29.552 75.6373 29.552 75.232 29.552C74.8373 29.552 74.4107 29.552 73.952 29.552C73.4933 29.552 73.024 29.552 72.544 29.552C72.064 29.552 71.6053 29.552 71.168 29.552C70.7307 29.552 70.336 29.552 69.984 29.552C69.6427 29.552 69.3653 29.552 69.152 29.552C68.96 29.552 68.688 29.5573 68.336 29.568C67.984 29.5787 67.6373 29.6 67.296 29.632V27.552C67.6373 27.5733 67.968 27.5947 68.288 27.616C68.6187 27.6373 68.9067 27.648 69.152 27.648C69.312 27.648 69.552 27.648 69.872 27.648C70.2027 27.648 70.5813 27.648 71.008 27.648C71.4347 27.648 71.888 27.648 72.368 27.648C72.8587 27.648 73.344 27.648 73.824 27.648C74.3147 27.648 74.7787 27.648 75.216 27.648C75.6533 27.648 76.032 27.648 76.352 27.648C76.672 27.648 76.912 27.648 77.072 27.648C77.328 27.648 77.5573 27.632 77.76 27.6C77.9733 27.568 78.1333 27.5307 78.24 27.488L79.664 28.368ZM83.792 29.776C85.232 29.4027 86.5333 28.9707 87.696 28.48C88.8693 27.9787 89.8987 27.456 90.784 26.912C91.3387 26.5707 91.8933 26.1813 92.448 25.744C93.0133 25.296 93.5413 24.8373 94.032 24.368C94.5333 23.8987 94.9547 23.4507 95.296 23.024L97.024 24.672C96.5333 25.152 95.9947 25.6373 95.408 26.128C94.832 26.6187 94.2293 27.088 93.6 27.536C92.9707 27.984 92.3467 28.3947 91.728 28.768C91.12 29.12 90.4373 29.4827 89.68 29.856C88.9333 30.2293 88.144 30.5813 87.312 30.912C86.48 31.2427 85.6427 31.536 84.8 31.792L83.792 29.776ZM90.448 27.936L92.72 27.408V34.608C92.72 34.8427 92.7253 35.0987 92.736 35.376C92.7467 35.6533 92.7627 35.9093 92.784 36.144C92.8053 36.3893 92.832 36.576 92.864 36.704H90.336C90.3573 36.576 90.3733 36.3893 90.384 36.144C90.4053 35.9093 90.4213 35.6533 90.432 35.376C90.4427 35.0987 90.448 34.8427 90.448 34.608V27.936ZM104.256 23.84C104.533 24.032 104.859 24.2667 105.232 24.544C105.605 24.8213 105.989 25.1253 106.384 25.456C106.789 25.776 107.168 26.0907 107.52 26.4C107.872 26.7093 108.16 26.9867 108.384 27.232L106.752 28.896C106.549 28.672 106.283 28.4053 105.952 28.096C105.621 27.7867 105.264 27.4667 104.88 27.136C104.496 26.8053 104.117 26.4907 103.744 26.192C103.371 25.8933 103.04 25.6427 102.752 25.44L104.256 23.84ZM102.256 34.496C103.088 34.3787 103.872 34.2133 104.608 34C105.344 33.7867 106.027 33.5413 106.656 33.264C107.285 32.9867 107.861 32.6987 108.384 32.4C109.291 31.856 110.123 31.2373 110.88 30.544C111.637 29.8507 112.299 29.1307 112.864 28.384C113.429 27.6267 113.877 26.8907 114.208 26.176L115.456 28.432C115.051 29.1467 114.549 29.8613 113.952 30.576C113.365 31.2907 112.699 31.9733 111.952 32.624C111.205 33.264 110.4 33.84 109.536 34.352C108.992 34.6827 108.405 34.9973 107.776 35.296C107.147 35.584 106.48 35.84 105.776 36.064C105.083 36.2987 104.357 36.48 103.6 36.608L102.256 34.496ZM128.752 24.288C128.485 24.768 128.144 25.2693 127.728 25.792C127.312 26.3147 126.848 26.816 126.336 27.296C125.835 27.7653 125.307 28.176 124.752 28.528C124.645 28.2827 124.501 28.0053 124.32 27.696C124.139 27.376 123.963 27.1093 123.792 26.896C124.357 26.576 124.896 26.1707 125.408 25.68C125.931 25.1787 126.4 24.6453 126.816 24.08C127.232 23.5147 127.563 22.9813 127.808 22.48H129.584C129.925 23.0453 130.32 23.6 130.768 24.144C131.227 24.688 131.712 25.1787 132.224 25.616C132.736 26.0427 133.253 26.3893 133.776 26.656C133.595 26.88 133.408 27.1573 133.216 27.488C133.035 27.808 132.88 28.1067 132.752 28.384C132.24 28.0747 131.733 27.6907 131.232 27.232C130.731 26.7733 130.267 26.288 129.84 25.776C129.413 25.264 129.051 24.768 128.752 24.288ZM128.72 26.688L130.384 27.344C130.053 27.7813 129.675 28.2027 129.248 28.608C128.821 29.0027 128.368 29.3707 127.888 29.712C127.419 30.0427 126.944 30.336 126.464 30.592C126.325 30.4213 126.139 30.224 125.904 30C125.68 29.776 125.461 29.5893 125.248 29.44C125.664 29.2267 126.091 28.976 126.528 28.688C126.976 28.3893 127.392 28.0693 127.776 27.728C128.16 27.376 128.475 27.0293 128.72 26.688ZM130.176 28.976L131.856 29.696C131.419 30.2507 130.912 30.7733 130.336 31.264C129.76 31.7547 129.147 32.2027 128.496 32.608C127.845 33.0133 127.184 33.3707 126.512 33.68C126.373 33.4773 126.192 33.248 125.968 32.992C125.744 32.736 125.525 32.5227 125.312 32.352C125.92 32.1173 126.528 31.824 127.136 31.472C127.755 31.12 128.331 30.736 128.864 30.32C129.397 29.8933 129.835 29.4453 130.176 28.976ZM131.424 31.52L133.152 32.272C132.331 33.52 131.269 34.5707 129.968 35.424C128.677 36.2773 127.259 36.96 125.712 37.472C125.584 37.216 125.408 36.9333 125.184 36.624C124.96 36.3147 124.736 36.048 124.512 35.824C125.472 35.5787 126.395 35.2533 127.28 34.848C128.165 34.432 128.96 33.952 129.664 33.408C130.379 32.8533 130.965 32.224 131.424 31.52ZM119.232 27.312H124.064V28.768H119.232V27.312ZM119.296 22.912H124.032V24.352H119.296V22.912ZM119.232 29.504H124.064V30.944H119.232V29.504ZM118.48 25.056H124.528V26.576H118.48V25.056ZM120.064 31.712H124.096V36.592H120.064V35.072H122.448V33.232H120.064V31.712ZM119.2 31.712H120.816V37.216H119.2V31.712ZM140.64 26.32H150.88V27.76H140.64V26.32ZM140.48 28.672L141.456 27.824C141.733 28.0053 142.037 28.2187 142.368 28.464C142.699 28.6987 142.96 28.912 143.152 29.104L142.128 30.032C141.957 29.8507 141.707 29.632 141.376 29.376C141.056 29.1093 140.757 28.8747 140.48 28.672ZM147.168 34.688L148.624 33.952C148.891 34.1867 149.168 34.4533 149.456 34.752C149.744 35.0507 150.016 35.344 150.272 35.632C150.539 35.92 150.747 36.1813 150.896 36.416L149.344 37.232C149.216 37.008 149.029 36.7413 148.784 36.432C148.549 36.1333 148.288 35.8293 148 35.52C147.712 35.2107 147.435 34.9333 147.168 34.688ZM143.472 31.968V32.592H147.616V31.968H143.472ZM143.472 30.32V30.912H147.616V30.32H143.472ZM141.872 29.184H149.28V33.728H141.872V29.184ZM141.776 33.92L143.504 34.4C143.216 34.9333 142.848 35.456 142.4 35.968C141.963 36.4693 141.52 36.8907 141.072 37.232C140.965 37.1253 140.827 36.9973 140.656 36.848C140.485 36.7093 140.309 36.5707 140.128 36.432C139.947 36.304 139.787 36.1973 139.648 36.112C140.075 35.8347 140.48 35.504 140.864 35.12C141.248 34.7253 141.552 34.3253 141.776 33.92ZM149.728 27.712L150.832 28.528C150.576 28.7733 150.299 29.008 150 29.232C149.712 29.456 149.451 29.648 149.216 29.808L148.24 29.056C148.475 28.8853 148.736 28.672 149.024 28.416C149.312 28.1493 149.547 27.9147 149.728 27.712ZM147.376 26.928C147.621 27.3867 147.941 27.8293 148.336 28.256C148.731 28.6827 149.179 29.0667 149.68 29.408C150.181 29.7387 150.709 30.0053 151.264 30.208C151.072 30.368 150.869 30.5813 150.656 30.848C150.443 31.1147 150.272 31.3493 150.144 31.552C149.557 31.2853 148.997 30.9387 148.464 30.512C147.941 30.0853 147.467 29.6053 147.04 29.072C146.613 28.528 146.251 27.9627 145.952 27.376L147.376 26.928ZM144.608 33.136H146.464V35.776C146.464 36.1707 146.416 36.4747 146.32 36.688C146.224 36.912 146.032 37.088 145.744 37.216C145.456 37.3333 145.131 37.4027 144.768 37.424C144.405 37.4453 143.979 37.456 143.488 37.456C143.435 37.2213 143.349 36.9547 143.232 36.656C143.115 36.368 143.003 36.1227 142.896 35.92C143.195 35.9307 143.488 35.936 143.776 35.936C144.064 35.936 144.256 35.936 144.352 35.936C144.459 35.936 144.528 35.92 144.56 35.888C144.592 35.8453 144.608 35.7867 144.608 35.712V33.136ZM144.336 25.216L146.096 25.456C145.84 26.2667 145.488 27.0507 145.04 27.808C144.603 28.5547 144.048 29.2533 143.376 29.904C142.704 30.5547 141.883 31.136 140.912 31.648C140.795 31.4453 140.624 31.216 140.4 30.96C140.176 30.704 139.963 30.512 139.76 30.384C140.656 29.968 141.408 29.4827 142.016 28.928C142.635 28.3733 143.131 27.7813 143.504 27.152C143.888 26.512 144.165 25.8667 144.336 25.216ZM139.248 23.696H151.024V25.296H139.248V23.696ZM138.32 23.696H140.096V28.864C140.096 29.504 140.064 30.2027 140 30.96C139.936 31.7173 139.819 32.4853 139.648 33.264C139.488 34.0427 139.248 34.7947 138.928 35.52C138.619 36.2347 138.208 36.8693 137.696 37.424C137.611 37.296 137.483 37.1467 137.312 36.976C137.141 36.816 136.971 36.656 136.8 36.496C136.629 36.3467 136.48 36.2347 136.352 36.16C136.811 35.648 137.168 35.0933 137.424 34.496C137.691 33.888 137.888 33.2587 138.016 32.608C138.144 31.9573 138.224 31.3173 138.256 30.688C138.299 30.048 138.32 29.44 138.32 28.864V23.696ZM143.36 22.4H145.376V24.672H143.36V22.4ZM136.032 25.728L137.408 25.152C137.632 25.664 137.835 26.2133 138.016 26.8C138.208 27.3867 138.325 27.8827 138.368 28.288L136.912 28.96C136.88 28.672 136.821 28.3467 136.736 27.984C136.651 27.6107 136.549 27.2267 136.432 26.832C136.315 26.4373 136.181 26.0693 136.032 25.728ZM135.888 31.264C136.261 31.104 136.699 30.9013 137.2 30.656C137.712 30.4 138.24 30.1387 138.784 29.872L139.216 31.312C138.768 31.6 138.304 31.888 137.824 32.176C137.344 32.464 136.88 32.736 136.432 32.992L135.888 31.264ZM162.656 25.04C162.549 25.8507 162.411 26.7147 162.24 27.632C162.069 28.5493 161.84 29.4773 161.552 30.416C161.243 31.4933 160.88 32.4213 160.464 33.2C160.048 33.9787 159.589 34.5813 159.088 35.008C158.597 35.424 158.059 35.632 157.472 35.632C156.885 35.632 156.341 35.4347 155.84 35.04C155.349 34.6347 154.955 34.08 154.656 33.376C154.368 32.672 154.224 31.872 154.224 30.976C154.224 30.048 154.411 29.1733 154.784 28.352C155.157 27.5307 155.675 26.8053 156.336 26.176C157.008 25.536 157.787 25.0347 158.672 24.672C159.568 24.3093 160.533 24.128 161.568 24.128C162.56 24.128 163.451 24.288 164.24 24.608C165.04 24.928 165.723 25.3707 166.288 25.936C166.853 26.5013 167.285 27.1627 167.584 27.92C167.883 28.6773 168.032 29.4933 168.032 30.368C168.032 31.488 167.803 32.4907 167.344 33.376C166.885 34.2613 166.203 34.992 165.296 35.568C164.4 36.144 163.28 36.5387 161.936 36.752L160.736 34.848C161.045 34.816 161.317 34.7787 161.552 34.736C161.787 34.6933 162.011 34.6453 162.224 34.592C162.736 34.464 163.211 34.2827 163.648 34.048C164.096 33.8027 164.485 33.504 164.816 33.152C165.147 32.7893 165.403 32.368 165.584 31.888C165.776 31.408 165.872 30.88 165.872 30.304C165.872 29.6747 165.776 29.0987 165.584 28.576C165.392 28.0533 165.109 27.6 164.736 27.216C164.363 26.8213 163.909 26.5227 163.376 26.32C162.843 26.1067 162.229 26 161.536 26C160.683 26 159.931 26.1547 159.28 26.464C158.629 26.7627 158.08 27.152 157.632 27.632C157.184 28.112 156.843 28.6293 156.608 29.184C156.384 29.7387 156.272 30.2667 156.272 30.768C156.272 31.3013 156.336 31.7493 156.464 32.112C156.592 32.464 156.747 32.7307 156.928 32.912C157.12 33.0827 157.323 33.168 157.536 33.168C157.76 33.168 157.979 33.056 158.192 32.832C158.416 32.5973 158.635 32.2453 158.848 31.776C159.061 31.3067 159.275 30.7147 159.488 30C159.733 29.232 159.941 28.4107 160.112 27.536C160.283 26.6613 160.405 25.808 160.48 24.976L162.656 25.04ZM176.048 24.336H186.176V26.048H176.048V24.336ZM179.952 22.4H181.904V25.152H179.952V22.4ZM179.952 30.304H181.632V36.736H179.952V30.304ZM177.296 30.144H179.008V31.728C179.008 32.176 178.981 32.6453 178.928 33.136C178.885 33.6267 178.779 34.1227 178.608 34.624C178.448 35.1253 178.208 35.6053 177.888 36.064C177.568 36.5333 177.136 36.9707 176.592 37.376C176.507 37.248 176.384 37.104 176.224 36.944C176.064 36.784 175.893 36.6293 175.712 36.48C175.541 36.3307 175.381 36.2133 175.232 36.128C175.851 35.68 176.304 35.2 176.592 34.688C176.88 34.176 177.067 33.6587 177.152 33.136C177.248 32.6133 177.296 32.1227 177.296 31.664V30.144ZM179.04 25.28L181.056 25.856C180.853 26.2293 180.645 26.608 180.432 26.992C180.219 27.376 180.011 27.744 179.808 28.096C179.605 28.4373 179.413 28.7413 179.232 29.008L177.68 28.464C177.851 28.176 178.021 27.8453 178.192 27.472C178.363 27.0987 178.523 26.72 178.672 26.336C178.832 25.952 178.955 25.6 179.04 25.28ZM182.192 26.896L183.664 26.128C184.016 26.448 184.368 26.8107 184.72 27.216C185.083 27.6107 185.413 28.0053 185.712 28.4C186.021 28.7947 186.261 29.1627 186.432 29.504L184.816 30.368C184.677 30.048 184.464 29.6853 184.176 29.28C183.888 28.8747 183.568 28.464 183.216 28.048C182.875 27.632 182.533 27.248 182.192 26.896ZM176.144 27.952C176.848 27.9413 177.659 27.9253 178.576 27.904C179.493 27.872 180.464 27.8453 181.488 27.824C182.512 27.792 183.531 27.7547 184.544 27.712L184.496 29.328C183.536 29.3813 182.565 29.4347 181.584 29.488C180.613 29.5413 179.68 29.5893 178.784 29.632C177.888 29.6747 177.072 29.712 176.336 29.744L176.144 27.952ZM172.176 23.888L173.216 22.48C173.547 22.608 173.893 22.7627 174.256 22.944C174.629 23.1253 174.981 23.312 175.312 23.504C175.653 23.696 175.925 23.888 176.128 24.08L175.024 25.648C174.832 25.456 174.576 25.2533 174.256 25.04C173.936 24.8267 173.589 24.6187 173.216 24.416C172.853 24.2133 172.507 24.0373 172.176 23.888ZM171.248 28.256L172.272 26.8C172.613 26.9173 172.971 27.0613 173.344 27.232C173.717 27.4027 174.075 27.584 174.416 27.776C174.757 27.968 175.035 28.1547 175.248 28.336L174.144 29.936C173.952 29.7547 173.691 29.5627 173.36 29.36C173.029 29.1467 172.677 28.944 172.304 28.752C171.941 28.56 171.589 28.3947 171.248 28.256ZM171.712 36.016C171.979 35.6 172.277 35.1147 172.608 34.56C172.939 33.9947 173.275 33.3973 173.616 32.768C173.957 32.1387 174.277 31.5093 174.576 30.88L176.032 32.08C175.765 32.6453 175.483 33.2267 175.184 33.824C174.896 34.4213 174.597 35.008 174.288 35.584C173.989 36.1493 173.691 36.6933 173.392 37.216L171.712 36.016ZM182.592 30.144H184.368V35.136C184.368 35.4027 184.384 35.5573 184.416 35.6C184.437 35.6213 184.459 35.6427 184.48 35.664C184.512 35.6747 184.544 35.68 184.576 35.68C184.619 35.68 184.661 35.68 184.704 35.68C184.757 35.68 184.8 35.68 184.832 35.68C184.875 35.68 184.917 35.6747 184.96 35.664C185.003 35.6533 185.029 35.6373 185.04 35.616C185.093 35.584 185.136 35.4453 185.168 35.2C185.179 35.072 185.184 34.8747 185.184 34.608C185.195 34.3413 185.205 34.0267 185.216 33.664C185.365 33.8027 185.563 33.9413 185.808 34.08C186.064 34.208 186.299 34.3093 186.512 34.384C186.501 34.736 186.475 35.0933 186.432 35.456C186.4 35.8187 186.363 36.0853 186.32 36.256C186.213 36.5973 186.032 36.8427 185.776 36.992C185.669 37.056 185.531 37.104 185.36 37.136C185.2 37.1787 185.045 37.2 184.896 37.2C184.779 37.2 184.635 37.2 184.464 37.2C184.304 37.2 184.171 37.2 184.064 37.2C183.883 37.2 183.691 37.168 183.488 37.104C183.285 37.04 183.12 36.9387 182.992 36.8C182.853 36.6613 182.752 36.4747 182.688 36.24C182.624 36.016 182.592 35.632 182.592 35.088V30.144ZM204 35.168C203.627 35.5093 203.195 35.792 202.704 36.016C202.213 36.24 201.643 36.352 200.992 36.352C200.395 36.352 199.909 36.144 199.536 35.728C199.173 35.312 198.992 34.7147 198.992 33.936C198.992 33.5093 199.019 33.0507 199.072 32.56C199.136 32.0587 199.205 31.5573 199.28 31.056C199.355 30.5547 199.419 30.08 199.472 29.632C199.536 29.1733 199.568 28.7627 199.568 28.4C199.568 28.0053 199.472 27.712 199.28 27.52C199.088 27.3173 198.821 27.216 198.48 27.216C198.107 27.216 197.691 27.3493 197.232 27.616C196.773 27.872 196.304 28.2027 195.824 28.608C195.344 29.0133 194.885 29.4453 194.448 29.904C194.021 30.3627 193.648 30.8 193.328 31.216L193.312 28.752C193.504 28.5387 193.755 28.288 194.064 28C194.384 27.712 194.741 27.4133 195.136 27.104C195.541 26.7947 195.963 26.5067 196.4 26.24C196.848 25.9627 197.296 25.7387 197.744 25.568C198.203 25.3973 198.645 25.312 199.072 25.312C199.648 25.312 200.117 25.4187 200.48 25.632C200.853 25.8347 201.131 26.1173 201.312 26.48C201.493 26.832 201.584 27.232 201.584 27.68C201.584 28.096 201.557 28.5493 201.504 29.04C201.451 29.52 201.387 30.0107 201.312 30.512C201.237 31.0133 201.173 31.5093 201.12 32C201.077 32.4907 201.056 32.9387 201.056 33.344C201.056 33.5573 201.109 33.7333 201.216 33.872C201.323 34 201.472 34.064 201.664 34.064C201.963 34.064 202.293 33.968 202.656 33.776C203.019 33.5733 203.381 33.2853 203.744 32.912L204 35.168ZM192.944 27.536C192.773 27.5573 192.555 27.584 192.288 27.616C192.021 27.648 191.733 27.6853 191.424 27.728C191.125 27.7707 190.821 27.8133 190.512 27.856C190.203 27.8987 189.915 27.936 189.648 27.968L189.44 25.92C189.675 25.9307 189.893 25.936 190.096 25.936C190.309 25.9253 190.555 25.9147 190.832 25.904C191.088 25.8827 191.392 25.856 191.744 25.824C192.107 25.7813 192.469 25.7333 192.832 25.68C193.205 25.6267 193.552 25.568 193.872 25.504C194.192 25.44 194.443 25.376 194.624 25.312L195.264 26.128C195.168 26.256 195.056 26.416 194.928 26.608C194.811 26.8 194.688 26.9973 194.56 27.2C194.432 27.392 194.32 27.5627 194.224 27.712L193.28 30.72C193.109 30.9653 192.896 31.2747 192.64 31.648C192.395 32.0213 192.133 32.416 191.856 32.832C191.579 33.248 191.307 33.648 191.04 34.032C190.773 34.416 190.533 34.752 190.32 35.04L189.056 33.296C189.259 33.04 189.488 32.7467 189.744 32.416C190.011 32.0747 190.288 31.7173 190.576 31.344C190.864 30.96 191.147 30.5813 191.424 30.208C191.701 29.824 191.957 29.4667 192.192 29.136C192.437 28.7947 192.64 28.5013 192.8 28.256L192.832 27.84L192.944 27.536ZM192.752 24.464C192.752 24.2293 192.752 23.9947 192.752 23.76C192.752 23.5147 192.731 23.2693 192.688 23.024L195.024 23.104C194.96 23.3493 194.891 23.7067 194.816 24.176C194.752 24.6347 194.683 25.1627 194.608 25.76C194.544 26.3573 194.48 26.9867 194.416 27.648C194.363 28.2987 194.315 28.9493 194.272 29.6C194.24 30.2507 194.224 30.8587 194.224 31.424C194.224 31.8613 194.224 32.304 194.224 32.752C194.235 33.2 194.245 33.6587 194.256 34.128C194.267 34.5973 194.288 35.0827 194.32 35.584C194.331 35.7227 194.347 35.9147 194.368 36.16C194.389 36.416 194.411 36.6347 194.432 36.816H192.224C192.245 36.624 192.256 36.4107 192.256 36.176C192.267 35.9413 192.272 35.76 192.272 35.632C192.283 35.1093 192.293 34.624 192.304 34.176C192.315 33.728 192.32 33.2533 192.32 32.752C192.331 32.2507 192.347 31.6693 192.368 31.008C192.379 30.7627 192.395 30.4533 192.416 30.08C192.437 29.696 192.459 29.28 192.48 28.832C192.512 28.3733 192.544 27.9093 192.576 27.44C192.608 26.9707 192.635 26.5333 192.656 26.128C192.688 25.712 192.709 25.36 192.72 25.072C192.741 24.7733 192.752 24.5707 192.752 24.464Z" fill="#13293A"/>
<circle cx="350.5" cy="29.5" r="9.5" fill="#F6931A"/>
<path d="M348 25L354.5 29.5L348 34" stroke="white" stroke-width="2" stroke-linecap="round" stroke-linejoin="round"/>
<line x1="15" y1="58.5" x2="375" y2="58.5" stroke="#13293A"/>
</svg>
