<svg width="390" height="59" viewBox="0 0 390 59" fill="none" xmlns="http://www.w3.org/2000/svg">
<rect width="390" height="59" fill="#FFFBEC"/>
<path d="M39.12 23.168C39.0987 23.3173 39.0773 23.504 39.056 23.728C39.0347 23.9413 39.0187 24.1653 39.008 24.4C38.9973 24.624 38.9867 24.8373 38.976 25.04C38.9653 25.424 38.96 25.84 38.96 26.288C38.9707 26.736 38.976 27.1893 38.976 27.648C38.976 28.096 38.9867 28.624 39.008 29.232C39.04 29.8293 39.0773 30.448 39.12 31.088C39.1627 31.728 39.1947 32.3253 39.216 32.88C39.248 33.424 39.264 33.8667 39.264 34.208C39.264 34.56 39.2107 34.9013 39.104 35.232C38.9973 35.5627 38.816 35.856 38.56 36.112C38.304 36.3787 37.9573 36.5867 37.52 36.736C37.0827 36.896 36.528 36.976 35.856 36.976C35.0987 36.976 34.4 36.88 33.76 36.688C33.1307 36.5067 32.6293 36.2027 32.256 35.776C31.8827 35.3493 31.696 34.7733 31.696 34.048C31.696 33.4933 31.856 32.992 32.176 32.544C32.496 32.0853 32.976 31.7227 33.616 31.456C34.2667 31.1893 35.0827 31.056 36.064 31.056C36.896 31.056 37.7013 31.152 38.48 31.344C39.2693 31.536 40.0053 31.7867 40.688 32.096C41.3813 32.3947 42.0053 32.736 42.56 33.12C43.1253 33.4933 43.6107 33.872 44.016 34.256L42.784 36.16C42.3893 35.7653 41.936 35.3707 41.424 34.976C40.9227 34.5813 40.3733 34.224 39.776 33.904C39.1787 33.584 38.5387 33.328 37.856 33.136C37.184 32.9333 36.4853 32.832 35.76 32.832C35.1413 32.832 34.6507 32.9333 34.288 33.136C33.936 33.328 33.76 33.6 33.76 33.952C33.76 34.3467 33.9413 34.624 34.304 34.784C34.6667 34.944 35.1307 35.024 35.696 35.024C36.1973 35.024 36.5547 34.9067 36.768 34.672C36.9813 34.4267 37.088 34.0373 37.088 33.504C37.088 33.2267 37.0773 32.8427 37.056 32.352C37.0347 31.8507 37.0133 31.312 36.992 30.736C36.9707 30.1493 36.9493 29.584 36.928 29.04C36.9067 28.496 36.896 28.032 36.896 27.648C36.896 27.328 36.896 27.0133 36.896 26.704C36.896 26.3947 36.896 26.096 36.896 25.808C36.896 25.52 36.8907 25.264 36.88 25.04C36.8693 24.7733 36.8533 24.5227 36.832 24.288C36.8213 24.0533 36.8053 23.84 36.784 23.648C36.7733 23.456 36.7467 23.296 36.704 23.168H39.12ZM37.888 26.224C38.1227 26.224 38.4587 26.224 38.896 26.224C39.3333 26.2133 39.8133 26.1973 40.336 26.176C40.8693 26.1547 41.4027 26.128 41.936 26.096C42.48 26.0533 42.9813 26.0107 43.44 25.968L43.504 27.872C43.056 27.9147 42.56 27.952 42.016 27.984C41.472 28.016 40.9333 28.0427 40.4 28.064C39.8667 28.0747 39.376 28.0853 38.928 28.096C38.4907 28.1067 38.1493 28.112 37.904 28.112L37.888 26.224ZM59.344 24.464C59.088 24.6453 58.8373 24.8373 58.592 25.04C58.3467 25.232 58.1333 25.408 57.952 25.568C57.6853 25.7707 57.3653 26.0213 56.992 26.32C56.6293 26.608 56.2453 26.912 55.84 27.232C55.4453 27.5413 55.0613 27.8453 54.688 28.144C54.3147 28.4427 53.9947 28.7093 53.728 28.944C53.4507 29.1893 53.264 29.392 53.168 29.552C53.072 29.7013 53.072 29.8507 53.168 30C53.2747 30.1493 53.472 30.352 53.76 30.608C53.9947 30.8107 54.2933 31.0613 54.656 31.36C55.0293 31.6587 55.4293 31.9893 55.856 32.352C56.2933 32.704 56.736 33.072 57.184 33.456C57.6427 33.8293 58.08 34.2027 58.496 34.576C58.9227 34.9387 59.3013 35.28 59.632 35.6L57.76 37.312C57.312 36.8107 56.848 36.3147 56.368 35.824C56.1227 35.5787 55.8027 35.28 55.408 34.928C55.024 34.5653 54.6027 34.1867 54.144 33.792C53.696 33.3973 53.248 33.008 52.8 32.624C52.352 32.2293 51.9467 31.8773 51.584 31.568C51.0507 31.12 50.704 30.7093 50.544 30.336C50.3947 29.9627 50.416 29.5947 50.608 29.232C50.8107 28.8587 51.1787 28.4533 51.712 28.016C52.032 27.7707 52.3947 27.4827 52.8 27.152C53.2053 26.8107 53.6213 26.464 54.048 26.112C54.4747 25.7493 54.88 25.4027 55.264 25.072C55.648 24.7307 55.9733 24.432 56.24 24.176C56.4747 23.9413 56.7093 23.7013 56.944 23.456C57.1787 23.2107 57.3547 22.9973 57.472 22.816L59.344 24.464ZM73.136 23.12C73.0933 23.2693 73.0507 23.4187 73.008 23.568C72.976 23.7067 72.944 23.84 72.912 23.968C72.816 24.4693 72.7253 25.0453 72.64 25.696C72.5547 26.336 72.4853 27.008 72.432 27.712C72.3787 28.4053 72.352 29.088 72.352 29.76C72.352 30.592 72.3947 31.36 72.48 32.064C72.5653 32.7573 72.6827 33.4027 72.832 34C72.992 34.5867 73.1627 35.1467 73.344 35.68L71.504 36.24C71.344 35.76 71.1893 35.1893 71.04 34.528C70.9013 33.8667 70.784 33.1573 70.688 32.4C70.592 31.632 70.544 30.8587 70.544 30.08C70.544 29.5467 70.56 29.0133 70.592 28.48C70.6347 27.936 70.6773 27.4027 70.72 26.88C70.7627 26.3467 70.8107 25.84 70.864 25.36C70.928 24.8693 70.9813 24.4267 71.024 24.032C71.0347 23.8827 71.0453 23.7227 71.056 23.552C71.0667 23.3707 71.0667 23.2107 71.056 23.072L73.136 23.12ZM70.288 24.896C71.3013 24.896 72.2507 24.8747 73.136 24.832C74.032 24.7893 74.8907 24.7147 75.712 24.608C76.544 24.5013 77.3707 24.3467 78.192 24.144L78.208 26C77.6533 26.096 77.04 26.1867 76.368 26.272C75.7067 26.3467 75.0133 26.4107 74.288 26.464C73.5733 26.5173 72.8693 26.56 72.176 26.592C71.4827 26.6133 70.832 26.624 70.224 26.624C69.9467 26.624 69.632 26.6187 69.28 26.608C68.9387 26.5973 68.5973 26.5867 68.256 26.576C67.9253 26.5547 67.6373 26.5387 67.392 26.528L67.344 24.672C67.5253 24.6933 67.7867 24.7253 68.128 24.768C68.4693 24.8 68.832 24.832 69.216 24.864C69.6107 24.8853 69.968 24.896 70.288 24.896ZM77.184 27.232C77.152 27.328 77.104 27.4613 77.04 27.632C76.976 27.8027 76.912 27.9787 76.848 28.16C76.7947 28.3413 76.752 28.4853 76.72 28.592C76.4107 29.552 76.032 30.432 75.584 31.232C75.1467 32.0213 74.672 32.7147 74.16 33.312C73.648 33.8987 73.1413 34.3787 72.64 34.752C72.1173 35.1467 71.52 35.4933 70.848 35.792C70.176 36.08 69.4987 36.224 68.816 36.224C68.432 36.224 68.0747 36.144 67.744 35.984C67.4133 35.824 67.1467 35.5733 66.944 35.232C66.752 34.88 66.656 34.4373 66.656 33.904C66.656 33.328 66.7733 32.7627 67.008 32.208C67.2427 31.6533 67.568 31.1253 67.984 30.624C68.4 30.1227 68.8853 29.68 69.44 29.296C69.9947 28.9013 70.592 28.592 71.232 28.368C71.7547 28.176 72.3253 28.0213 72.944 27.904C73.5733 27.7867 74.192 27.728 74.8 27.728C75.792 27.728 76.6773 27.9093 77.456 28.272C78.2453 28.6347 78.864 29.1307 79.312 29.76C79.76 30.3893 79.984 31.1253 79.984 31.968C79.984 32.5333 79.8933 33.088 79.712 33.632C79.5307 34.1653 79.232 34.6613 78.816 35.12C78.4107 35.5787 77.872 35.9733 77.2 36.304C76.528 36.6347 75.7013 36.8747 74.72 37.024L73.664 35.344C74.688 35.2267 75.52 34.9973 76.16 34.656C76.8 34.304 77.264 33.8827 77.552 33.392C77.8507 32.9013 78 32.3947 78 31.872C78 31.4027 77.872 30.9813 77.616 30.608C77.3707 30.2347 76.9973 29.936 76.496 29.712C76.0053 29.4773 75.3973 29.36 74.672 29.36C73.9467 29.36 73.296 29.44 72.72 29.6C72.1547 29.76 71.68 29.9307 71.296 30.112C70.7627 30.368 70.288 30.6933 69.872 31.088C69.456 31.472 69.1307 31.8773 68.896 32.304C68.6613 32.7307 68.544 33.1253 68.544 33.488C68.544 33.744 68.6027 33.9413 68.72 34.08C68.8373 34.208 69.024 34.272 69.28 34.272C69.664 34.272 70.1067 34.1493 70.608 33.904C71.1093 33.648 71.6053 33.2907 72.096 32.832C72.672 32.2987 73.216 31.6587 73.728 30.912C74.24 30.1653 74.6613 29.2373 74.992 28.128C75.024 28.0213 75.056 27.8827 75.088 27.712C75.12 27.5413 75.1467 27.3707 75.168 27.2C75.2 27.0187 75.2213 26.8747 75.232 26.768L77.184 27.232ZM86.32 23.808C86.544 23.84 86.784 23.8613 87.04 23.872C87.296 23.8827 87.5413 23.888 87.776 23.888C87.9467 23.888 88.2027 23.888 88.544 23.888C88.8853 23.8773 89.2693 23.8667 89.696 23.856C90.1333 23.8453 90.5653 23.8347 90.992 23.824C91.4187 23.8133 91.8027 23.8027 92.144 23.792C92.496 23.7707 92.768 23.7547 92.96 23.744C93.2907 23.712 93.552 23.6853 93.744 23.664C93.936 23.632 94.08 23.6 94.176 23.568L95.216 24.992C95.0347 25.1093 94.848 25.2267 94.656 25.344C94.464 25.4613 94.2773 25.5893 94.096 25.728C93.8827 25.8773 93.6267 26.0747 93.328 26.32C93.0293 26.5547 92.7093 26.8053 92.368 27.072C92.0373 27.3387 91.712 27.6 91.392 27.856C91.0827 28.112 90.8 28.3413 90.544 28.544C90.8107 28.48 91.0667 28.4373 91.312 28.416C91.5573 28.384 91.808 28.368 92.064 28.368C92.9707 28.368 93.7813 28.544 94.496 28.896C95.2213 29.248 95.792 29.728 96.208 30.336C96.6347 30.9333 96.848 31.6213 96.848 32.4C96.848 33.2427 96.6347 34.0053 96.208 34.688C95.7813 35.3707 95.136 35.9147 94.272 36.32C93.4187 36.7253 92.3467 36.928 91.056 36.928C90.32 36.928 89.6533 36.8213 89.056 36.608C88.4693 36.3947 88.0053 36.0907 87.664 35.696C87.3227 35.3013 87.152 34.8373 87.152 34.304C87.152 33.8667 87.2693 33.4613 87.504 33.088C87.7493 32.704 88.0853 32.3947 88.512 32.16C88.9493 31.9253 89.4507 31.808 90.016 31.808C90.752 31.808 91.3707 31.9573 91.872 32.256C92.384 32.544 92.7733 32.9333 93.04 33.424C93.3173 33.9147 93.4613 34.4533 93.472 35.04L91.6 35.296C91.5893 34.7093 91.44 34.24 91.152 33.888C90.8747 33.5253 90.5013 33.344 90.032 33.344C89.7333 33.344 89.4933 33.424 89.312 33.584C89.1307 33.7333 89.04 33.9093 89.04 34.112C89.04 34.4107 89.1893 34.6507 89.488 34.832C89.7867 35.0133 90.176 35.104 90.656 35.104C91.5627 35.104 92.32 34.9973 92.928 34.784C93.536 34.56 93.9893 34.2453 94.288 33.84C94.5973 33.424 94.752 32.9333 94.752 32.368C94.752 31.888 94.6027 31.4667 94.304 31.104C94.016 30.7413 93.6213 30.4587 93.12 30.256C92.6187 30.0533 92.0533 29.952 91.424 29.952C90.8053 29.952 90.24 30.032 89.728 30.192C89.216 30.3413 88.7307 30.56 88.272 30.848C87.824 31.1253 87.3813 31.4667 86.944 31.872C86.5173 32.2667 86.0907 32.7093 85.664 33.2L84.208 31.696C84.496 31.4613 84.8213 31.2 85.184 30.912C85.5467 30.6133 85.9147 30.304 86.288 29.984C86.672 29.664 87.0293 29.3653 87.36 29.088C87.7013 28.8 87.9893 28.56 88.224 28.368C88.448 28.1867 88.7093 27.9733 89.008 27.728C89.3067 27.4827 89.616 27.232 89.936 26.976C90.256 26.7093 90.56 26.4587 90.848 26.224C91.136 25.9787 91.376 25.7707 91.568 25.6C91.408 25.6 91.2 25.6053 90.944 25.616C90.688 25.6267 90.4053 25.6373 90.096 25.648C89.7973 25.6587 89.4933 25.6693 89.184 25.68C88.8853 25.6907 88.6027 25.7067 88.336 25.728C88.08 25.7387 87.8667 25.7493 87.696 25.76C87.4827 25.7707 87.2587 25.7867 87.024 25.808C86.7893 25.8293 86.576 25.856 86.384 25.888L86.32 23.808ZM106.864 22.416L108.032 23.552C107.584 23.68 107.083 23.7973 106.528 23.904C105.984 24.0107 105.429 24.096 104.864 24.16C104.299 24.224 103.755 24.272 103.232 24.304C103.2 24.144 103.141 23.952 103.056 23.728C102.981 23.4933 102.896 23.3013 102.8 23.152C103.291 23.0987 103.781 23.04 104.272 22.976C104.773 22.9013 105.248 22.816 105.696 22.72C106.155 22.624 106.544 22.5227 106.864 22.416ZM113.792 22.432L114.96 23.552C114.48 23.7013 113.947 23.8293 113.36 23.936C112.773 24.032 112.171 24.112 111.552 24.176C110.944 24.24 110.357 24.2933 109.792 24.336C109.76 24.1653 109.701 23.968 109.616 23.744C109.531 23.5093 109.451 23.312 109.376 23.152C109.899 23.1093 110.432 23.0507 110.976 22.976C111.52 22.9013 112.037 22.816 112.528 22.72C113.029 22.624 113.451 22.528 113.792 22.432ZM102.272 22.768L104.336 23.28C104.325 23.408 104.197 23.4933 103.952 23.536V24.32C103.952 24.736 103.904 25.216 103.808 25.76C103.712 26.2933 103.536 26.832 103.28 27.376C103.035 27.9093 102.667 28.4053 102.176 28.864C102.091 28.736 101.973 28.5973 101.824 28.448C101.675 28.288 101.52 28.1387 101.36 28C101.2 27.8507 101.051 27.7387 100.912 27.664C101.317 27.312 101.611 26.9387 101.792 26.544C101.984 26.1493 102.112 25.7547 102.176 25.36C102.24 24.9547 102.272 24.576 102.272 24.224V22.768ZM108.912 22.784L110.96 23.248C110.949 23.3973 110.821 23.488 110.576 23.52V24.336C110.576 24.7093 110.523 25.136 110.416 25.616C110.309 26.0853 110.107 26.5547 109.808 27.024C109.509 27.4827 109.077 27.8933 108.512 28.256C108.448 28.128 108.347 27.984 108.208 27.824C108.069 27.6533 107.925 27.4933 107.776 27.344C107.627 27.184 107.483 27.0667 107.344 26.992C107.792 26.7147 108.123 26.4213 108.336 26.112C108.56 25.8027 108.709 25.488 108.784 25.168C108.869 24.848 108.912 24.5387 108.912 24.24V22.784ZM103.024 24.8H108.352V26.192H103.024V24.8ZM109.616 24.8H115.6V26.192H109.616V24.8ZM105.136 25.264H106.832V27.856H105.136V25.264ZM111.856 25.264H113.568V27.872H111.856V25.264ZM104.976 31.088V31.792H111.952V31.088H104.976ZM104.976 32.88V33.584H111.952V32.88H104.976ZM104.976 29.312V30H111.952V29.312H104.976ZM103.12 28.16H113.888V34.72H103.12V28.16ZM109.296 35.568L110.896 34.656C111.472 34.8587 112.053 35.0773 112.64 35.312C113.237 35.536 113.803 35.7653 114.336 36C114.88 36.224 115.339 36.4267 115.712 36.608L113.472 37.472C113.173 37.3013 112.8 37.104 112.352 36.88C111.904 36.656 111.419 36.4267 110.896 36.192C110.384 35.968 109.851 35.76 109.296 35.568ZM105.76 34.592L107.504 35.392C107.077 35.6693 106.576 35.9413 106 36.208C105.424 36.4747 104.832 36.7147 104.224 36.928C103.616 37.152 103.04 37.3387 102.496 37.488C102.379 37.36 102.235 37.2053 102.064 37.024C101.904 36.8533 101.733 36.6773 101.552 36.496C101.371 36.3253 101.211 36.1867 101.072 36.08C101.637 35.9733 102.208 35.8453 102.784 35.696C103.371 35.5467 103.92 35.376 104.432 35.184C104.955 34.992 105.397 34.7947 105.76 34.592ZM123.664 30.112H129.072V35.168H123.664V33.6H127.264V31.696H123.664V30.112ZM122.832 30.112H124.608V36.08H122.832V30.112ZM120.224 25.344H124.224V26.64H120.224V25.344ZM127.648 25.344H131.68V26.64H127.648V25.344ZM130.88 23.024H132.832V35.136C132.832 35.6693 132.768 36.0853 132.64 36.384C132.512 36.6827 132.283 36.912 131.952 37.072C131.611 37.232 131.184 37.3333 130.672 37.376C130.16 37.4187 129.531 37.44 128.784 37.44C128.773 37.248 128.731 37.0347 128.656 36.8C128.581 36.5653 128.501 36.3253 128.416 36.08C128.331 35.8453 128.235 35.6427 128.128 35.472C128.448 35.4933 128.768 35.5093 129.088 35.52C129.408 35.52 129.691 35.52 129.936 35.52C130.192 35.5093 130.373 35.504 130.48 35.504C130.629 35.504 130.731 35.4773 130.784 35.424C130.848 35.36 130.88 35.2533 130.88 35.104V23.024ZM120.368 23.024H125.44V29.008H120.368V27.552H123.632V24.48H120.368V23.024ZM131.92 23.024V24.48H128.336V27.584H131.92V29.024H126.512V23.024H131.92ZM119.28 23.024H121.184V37.44H119.28V23.024Z" fill="#13293A"/>
<circle cx="350.5" cy="29.5" r="9.5" fill="#F6931A"/>
<path d="M348 25L354.5 29.5L348 34" stroke="white" stroke-width="2" stroke-linecap="round" stroke-linejoin="round"/>
<line x1="15" y1="58.5" x2="375" y2="58.5" stroke="#13293A"/>
</svg>
