<svg width="390" height="59" viewBox="0 0 390 59" fill="none" xmlns="http://www.w3.org/2000/svg">
<rect width="390" height="59" fill="#FFFBEC"/>
<path d="M36.944 22.4H39.056V28.96H36.944V22.4ZM31.696 23.712L33.44 23.04C33.728 23.4027 34 23.8027 34.256 24.24C34.512 24.6667 34.7413 25.0933 34.944 25.52C35.1467 25.936 35.3067 26.3147 35.424 26.656L33.568 27.44C33.472 27.0987 33.3227 26.7093 33.12 26.272C32.928 25.8347 32.7093 25.392 32.464 24.944C32.2187 24.496 31.9627 24.0853 31.696 23.712ZM42.32 22.88L44.464 23.52C44.2293 23.9893 43.984 24.4693 43.728 24.96C43.472 25.44 43.216 25.8987 42.96 26.336C42.7147 26.7733 42.4747 27.1627 42.24 27.504L40.544 26.896C40.7573 26.5333 40.976 26.1227 41.2 25.664C41.424 25.2053 41.632 24.736 41.824 24.256C42.0267 23.7653 42.192 23.3067 42.32 22.88ZM32.064 27.952H44.192V37.424H42.144V29.888H32.064V27.952ZM32.624 31.36H42.88V33.2H32.624V31.36ZM31.712 34.864H43.2V36.768H31.712V34.864ZM57.232 22.48H59.104V25.008H57.232V22.48ZM53.664 24.16H62.944V27.328H61.168V25.792H55.36V27.328H53.664V24.16ZM54.848 27.088H61.712V28.736H54.848V27.088ZM53.888 29.904H62.864V31.616H53.888V29.904ZM55.696 30.72H57.52C57.488 31.584 57.4133 32.368 57.296 33.072C57.1893 33.7653 56.9973 34.3893 56.72 34.944C56.4533 35.488 56.0587 35.9627 55.536 36.368C55.0133 36.784 54.3253 37.136 53.472 37.424C53.4187 37.264 53.3333 37.088 53.216 36.896C53.1093 36.7147 52.9867 36.5333 52.848 36.352C52.7093 36.1707 52.576 36.0267 52.448 35.92C53.1733 35.7067 53.7493 35.4453 54.176 35.136C54.6027 34.8267 54.9173 34.464 55.12 34.048C55.3333 33.6213 55.4773 33.136 55.552 32.592C55.6267 32.0373 55.6747 31.4133 55.696 30.72ZM58.656 30.528H60.448V35.072C60.448 35.3173 60.4587 35.4667 60.48 35.52C60.512 35.5733 60.5867 35.6 60.704 35.6C60.736 35.6 60.7893 35.6 60.864 35.6C60.9387 35.6 61.008 35.6 61.072 35.6C61.1467 35.6 61.2053 35.6 61.248 35.6C61.3227 35.6 61.3813 35.5573 61.424 35.472C61.4773 35.3867 61.5147 35.2107 61.536 34.944C61.5573 34.6667 61.5733 34.256 61.584 33.712C61.7013 33.808 61.8507 33.904 62.032 34C62.224 34.096 62.4213 34.1813 62.624 34.256C62.8373 34.3307 63.0187 34.3893 63.168 34.432C63.1253 35.1787 63.0347 35.76 62.896 36.176C62.768 36.592 62.5867 36.88 62.352 37.04C62.128 37.2107 61.824 37.296 61.44 37.296C61.376 37.296 61.296 37.296 61.2 37.296C61.104 37.296 61.0027 37.296 60.896 37.296C60.8 37.296 60.704 37.296 60.608 37.296C60.512 37.296 60.432 37.296 60.368 37.296C59.9093 37.296 59.552 37.2267 59.296 37.088C59.0507 36.9493 58.88 36.7147 58.784 36.384C58.6987 36.064 58.656 35.632 58.656 35.088V30.528ZM48.736 23.088H52.512V24.816H50.416V37.44H48.736V23.088ZM51.936 23.088H52.24L52.512 23.024L53.76 23.744C53.632 24.192 53.488 24.6773 53.328 25.2C53.168 25.7227 53.0027 26.2347 52.832 26.736C52.672 27.2373 52.5173 27.696 52.368 28.112C52.8587 28.72 53.1787 29.296 53.328 29.84C53.4773 30.384 53.552 30.8907 53.552 31.36C53.552 31.872 53.4933 32.2987 53.376 32.64C53.2693 32.9813 53.088 33.2427 52.832 33.424C52.704 33.5093 52.56 33.5787 52.4 33.632C52.2507 33.6853 52.0907 33.728 51.92 33.76C51.6213 33.792 51.2693 33.8027 50.864 33.792C50.8533 33.568 50.8107 33.296 50.736 32.976C50.672 32.656 50.576 32.384 50.448 32.16C50.5973 32.1707 50.7253 32.176 50.832 32.176C50.9493 32.176 51.056 32.176 51.152 32.176C51.344 32.1653 51.4933 32.1173 51.6 32.032C51.696 31.9573 51.76 31.8453 51.792 31.696C51.8347 31.536 51.856 31.344 51.856 31.12C51.856 30.7467 51.7813 30.32 51.632 29.84C51.4933 29.36 51.2 28.8533 50.752 28.32C50.8587 27.9573 50.9653 27.5627 51.072 27.136C51.1893 26.6987 51.3013 26.2613 51.408 25.824C51.5253 25.3867 51.6267 24.9813 51.712 24.608C51.808 24.224 51.8827 23.904 51.936 23.648V23.088ZM66.304 25.024C66.624 25.0133 66.928 25.0027 67.216 24.992C67.504 24.9707 67.7227 24.9547 67.872 24.944C68.2027 24.9227 68.608 24.8907 69.088 24.848C69.5787 24.7947 70.1227 24.7413 70.72 24.688C71.328 24.6347 71.9733 24.5813 72.656 24.528C73.3387 24.4747 74.048 24.416 74.784 24.352C75.3387 24.2987 75.888 24.256 76.432 24.224C76.9867 24.1813 77.5093 24.1493 78 24.128C78.5013 24.096 78.9387 24.0747 79.312 24.064L79.328 26.112C79.04 26.112 78.7093 26.1173 78.336 26.128C77.9627 26.1387 77.5893 26.16 77.216 26.192C76.8533 26.2133 76.528 26.2613 76.24 26.336C75.76 26.464 75.312 26.6827 74.896 26.992C74.48 27.2907 74.1173 27.648 73.808 28.064C73.5093 28.4693 73.2747 28.912 73.104 29.392C72.9333 29.8613 72.848 30.336 72.848 30.816C72.848 31.3387 72.9387 31.8027 73.12 32.208C73.312 32.6027 73.568 32.944 73.888 33.232C74.2187 33.5093 74.6027 33.744 75.04 33.936C75.4773 34.1173 75.9467 34.256 76.448 34.352C76.96 34.448 77.488 34.512 78.032 34.544L77.28 36.736C76.608 36.6933 75.952 36.5867 75.312 36.416C74.6827 36.2453 74.0907 36.0107 73.536 35.712C72.9813 35.4133 72.496 35.0507 72.08 34.624C71.6747 34.1867 71.3493 33.6907 71.104 33.136C70.8693 32.5707 70.752 31.9413 70.752 31.248C70.752 30.48 70.8747 29.776 71.12 29.136C71.3653 28.4853 71.6693 27.92 72.032 27.44C72.4053 26.9493 72.7733 26.5707 73.136 26.304C72.8373 26.3467 72.4747 26.3893 72.048 26.432C71.632 26.4747 71.1787 26.528 70.688 26.592C70.208 26.6453 69.7173 26.704 69.216 26.768C68.7147 26.832 68.2293 26.9067 67.76 26.992C67.3013 27.0667 66.8853 27.1413 66.512 27.216L66.304 25.024ZM77.04 27.68C77.1787 27.872 77.3227 28.1013 77.472 28.368C77.632 28.624 77.7867 28.8853 77.936 29.152C78.0853 29.408 78.2133 29.6427 78.32 29.856L77.104 30.4C76.9013 29.952 76.704 29.5573 76.512 29.216C76.3307 28.8747 76.112 28.528 75.856 28.176L77.04 27.68ZM78.832 26.944C78.9707 27.136 79.12 27.36 79.28 27.616C79.4507 27.8613 79.616 28.1173 79.776 28.384C79.936 28.64 80.0693 28.8693 80.176 29.072L78.976 29.648C78.7627 29.2213 78.5547 28.8427 78.352 28.512C78.16 28.1813 77.9307 27.84 77.664 27.488L78.832 26.944ZM91.104 24.464H96.56V26.336H91.104V24.464ZM83.488 23.312H91.568V25.088H83.488V23.312ZM85.6 26.608H89.44V28.32H85.6V26.608ZM85.6 29.936H89.44V31.648H85.6V29.936ZM96.032 24.464H96.368L96.704 24.4L97.952 24.72C97.7493 26.8853 97.376 28.7733 96.832 30.384C96.2987 31.9947 95.6 33.3707 94.736 34.512C93.872 35.6533 92.832 36.592 91.616 37.328C91.4773 37.0827 91.2853 36.8 91.04 36.48C90.8053 36.1707 90.5813 35.9307 90.368 35.76C91.4347 35.1947 92.3573 34.4 93.136 33.376C93.9147 32.3413 94.5493 31.1093 95.04 29.68C95.5413 28.24 95.872 26.64 96.032 24.88V24.464ZM92.992 26.384C93.248 27.76 93.616 29.056 94.096 30.272C94.576 31.488 95.184 32.5653 95.92 33.504C96.656 34.4427 97.536 35.1893 98.56 35.744C98.4213 35.8613 98.2613 36.0107 98.08 36.192C97.9093 36.384 97.7493 36.576 97.6 36.768C97.4507 36.9707 97.328 37.1573 97.232 37.328C96.112 36.6453 95.1573 35.7867 94.368 34.752C93.5893 33.7173 92.944 32.5227 92.432 31.168C91.92 29.8133 91.4933 28.336 91.152 26.736L92.992 26.384ZM84.592 24.032H86.416V34.496H84.592V24.032ZM88.704 24.032H90.544V37.424H88.704V24.032ZM83.104 33.792C83.6373 33.7387 84.24 33.6693 84.912 33.584C85.5947 33.4987 86.3147 33.4027 87.072 33.296C87.84 33.1893 88.5973 33.0827 89.344 32.976L89.44 34.736C88.4053 34.9173 87.36 35.0933 86.304 35.264C85.248 35.424 84.304 35.5733 83.472 35.712L83.104 33.792ZM106.176 23.152C106.123 23.344 106.064 23.584 106 23.872C105.936 24.16 105.872 24.464 105.808 24.784C105.744 25.0933 105.685 25.3973 105.632 25.696C105.589 25.9947 105.557 26.256 105.536 26.48C105.728 26.16 105.957 25.8507 106.224 25.552C106.491 25.2427 106.789 24.9653 107.12 24.72C107.461 24.464 107.829 24.2613 108.224 24.112C108.629 23.9627 109.056 23.888 109.504 23.888C110.251 23.888 110.923 24.1173 111.52 24.576C112.117 25.0347 112.587 25.6907 112.928 26.544C113.28 27.3973 113.456 28.4107 113.456 29.584C113.456 30.7147 113.291 31.7067 112.96 32.56C112.629 33.4027 112.155 34.1227 111.536 34.72C110.917 35.3173 110.176 35.8027 109.312 36.176C108.459 36.56 107.504 36.848 106.448 37.04L105.232 35.184C106.117 35.0453 106.928 34.8587 107.664 34.624C108.411 34.3787 109.051 34.048 109.584 33.632C110.128 33.216 110.544 32.6827 110.832 32.032C111.131 31.3707 111.28 30.56 111.28 29.6C111.28 28.7787 111.195 28.0853 111.024 27.52C110.853 26.944 110.603 26.5067 110.272 26.208C109.952 25.9093 109.568 25.76 109.12 25.76C108.651 25.76 108.203 25.9147 107.776 26.224C107.349 26.5333 106.965 26.9387 106.624 27.44C106.293 27.9307 106.027 28.464 105.824 29.04C105.632 29.616 105.525 30.1707 105.504 30.704C105.493 30.928 105.488 31.1733 105.488 31.44C105.499 31.7067 105.531 32.0267 105.584 32.4L103.616 32.528C103.573 32.2187 103.525 31.8347 103.472 31.376C103.429 30.9067 103.408 30.4 103.408 29.856C103.408 29.4827 103.419 29.0827 103.44 28.656C103.472 28.2293 103.504 27.7973 103.536 27.36C103.579 26.912 103.627 26.464 103.68 26.016C103.744 25.568 103.803 25.1413 103.856 24.736C103.899 24.4267 103.931 24.1227 103.952 23.824C103.973 23.5253 103.984 23.2693 103.984 23.056L106.176 23.152ZM124.064 23.12H129.728V24.896H124.064V23.12ZM129.104 23.12H129.312L129.6 23.04L130.928 23.2C130.853 23.8293 130.757 24.5067 130.64 25.232C130.523 25.9467 130.4 26.6613 130.272 27.376C130.144 28.0907 130.016 28.768 129.888 29.408L128.128 29.216C128.224 28.736 128.32 28.224 128.416 27.68C128.512 27.136 128.603 26.5973 128.688 26.064C128.784 25.52 128.864 25.0133 128.928 24.544C129.003 24.064 129.061 23.6533 129.104 23.312V23.12ZM129.728 27.136H131.776V28.832H129.44L129.728 27.136ZM131.392 27.136H131.728L132.048 27.056L133.264 27.472C132.976 29.2107 132.512 30.72 131.872 32C131.232 33.2693 130.443 34.336 129.504 35.2C128.576 36.064 127.509 36.768 126.304 37.312C126.187 37.088 126.021 36.8267 125.808 36.528C125.595 36.2293 125.392 35.9893 125.2 35.808C126.256 35.4133 127.205 34.832 128.048 34.064C128.891 33.2853 129.6 32.3467 130.176 31.248C130.752 30.1387 131.157 28.88 131.392 27.472V27.136ZM125.104 23.824L126.976 23.856C126.955 25.328 126.901 26.7147 126.816 28.016C126.741 29.3173 126.608 30.5333 126.416 31.664C126.235 32.7947 125.973 33.8347 125.632 34.784C125.301 35.7333 124.859 36.5813 124.304 37.328C124.208 37.2213 124.059 37.088 123.856 36.928C123.653 36.768 123.445 36.608 123.232 36.448C123.019 36.288 122.837 36.1653 122.688 36.08C123.392 35.2267 123.915 34.1867 124.256 32.96C124.597 31.7227 124.821 30.336 124.928 28.8C125.045 27.2533 125.104 25.5947 125.104 23.824ZM126.864 26.8C127.173 28.2187 127.605 29.5253 128.16 30.72C128.715 31.904 129.44 32.928 130.336 33.792C131.232 34.6453 132.331 35.296 133.632 35.744C133.493 35.8613 133.339 36.0213 133.168 36.224C133.008 36.4267 132.853 36.6347 132.704 36.848C132.565 37.0613 132.443 37.2587 132.336 37.44C130.992 36.8747 129.877 36.096 128.992 35.104C128.107 34.112 127.387 32.9387 126.832 31.584C126.277 30.2187 125.835 28.7093 125.504 27.056L126.864 26.8ZM118.32 30.576C118.821 30.4693 119.387 30.3413 120.016 30.192C120.656 30.0427 121.323 29.8827 122.016 29.712C122.72 29.5307 123.424 29.3493 124.128 29.168L124.352 30.928C123.392 31.1947 122.421 31.456 121.44 31.712C120.469 31.968 119.584 32.2027 118.784 32.416L118.32 30.576ZM118.592 25.424H124.112V27.2H118.592V25.424ZM120.608 22.4H122.496V35.36C122.496 35.8293 122.443 36.192 122.336 36.448C122.24 36.704 122.053 36.912 121.776 37.072C121.509 37.2107 121.179 37.3013 120.784 37.344C120.389 37.3867 119.909 37.408 119.344 37.408C119.312 37.1627 119.243 36.8693 119.136 36.528C119.04 36.1867 118.933 35.8933 118.816 35.648C119.125 35.6587 119.424 35.6693 119.712 35.68C120 35.68 120.197 35.68 120.304 35.68C120.411 35.6693 120.485 35.6427 120.528 35.6C120.581 35.5573 120.608 35.4827 120.608 35.376V22.4ZM137.888 29.232C138.133 29.1787 138.416 29.1147 138.736 29.04C139.056 28.9547 139.339 28.8747 139.584 28.8C139.851 28.7147 140.208 28.6027 140.656 28.464C141.104 28.3253 141.595 28.1867 142.128 28.048C142.672 27.9093 143.216 27.792 143.76 27.696C144.315 27.6 144.837 27.552 145.328 27.552C146.171 27.552 146.907 27.712 147.536 28.032C148.176 28.3413 148.672 28.7893 149.024 29.376C149.376 29.9627 149.552 30.6613 149.552 31.472C149.552 32.1973 149.392 32.8587 149.072 33.456C148.763 34.0533 148.288 34.576 147.648 35.024C147.008 35.472 146.208 35.8347 145.248 36.112C144.299 36.4 143.189 36.5813 141.92 36.656L141.072 34.688C141.989 34.6667 142.832 34.5867 143.6 34.448C144.379 34.3093 145.051 34.112 145.616 33.856C146.192 33.5893 146.635 33.2533 146.944 32.848C147.264 32.4427 147.424 31.9733 147.424 31.44C147.424 31.0347 147.328 30.6827 147.136 30.384C146.955 30.0747 146.693 29.8347 146.352 29.664C146.011 29.4933 145.605 29.408 145.136 29.408C144.763 29.408 144.347 29.456 143.888 29.552C143.429 29.648 142.955 29.7707 142.464 29.92C141.984 30.0693 141.509 30.2293 141.04 30.4C140.571 30.5707 140.133 30.736 139.728 30.896C139.323 31.056 138.987 31.1947 138.72 31.312L137.888 29.232ZM153.539 24.992C153.859 24.9813 154.163 24.9707 154.451 24.96C154.739 24.9387 154.963 24.9227 155.123 24.912C155.454 24.88 155.859 24.8427 156.339 24.8C156.819 24.7573 157.358 24.7093 157.955 24.656C158.563 24.6027 159.208 24.5493 159.891 24.496C160.574 24.432 161.283 24.368 162.019 24.304C162.574 24.2613 163.128 24.224 163.683 24.192C164.238 24.1493 164.76 24.1173 165.251 24.096C165.752 24.064 166.184 24.0427 166.547 24.032L166.563 26.08C166.275 26.08 165.944 26.0853 165.571 26.096C165.198 26.1067 164.824 26.128 164.451 26.16C164.088 26.1813 163.763 26.224 163.475 26.288C162.995 26.416 162.547 26.6347 162.131 26.944C161.726 27.2427 161.368 27.6 161.059 28.016C160.75 28.432 160.51 28.88 160.339 29.36C160.179 29.8293 160.099 30.304 160.099 30.784C160.099 31.3067 160.19 31.7707 160.371 32.176C160.552 32.5707 160.803 32.912 161.123 33.2C161.454 33.4773 161.838 33.712 162.275 33.904C162.712 34.0853 163.182 34.224 163.683 34.32C164.195 34.416 164.723 34.48 165.267 34.512L164.515 36.704C163.843 36.6613 163.187 36.5547 162.547 36.384C161.918 36.2133 161.326 35.9787 160.771 35.68C160.227 35.3813 159.747 35.0187 159.331 34.592C158.915 34.1547 158.59 33.6587 158.355 33.104C158.12 32.5387 158.003 31.9093 158.003 31.216C158.003 30.4373 158.126 29.728 158.371 29.088C158.616 28.448 158.92 27.888 159.283 27.408C159.646 26.9173 160.008 26.5387 160.371 26.272C160.072 26.304 159.71 26.3467 159.283 26.4C158.867 26.4427 158.414 26.496 157.923 26.56C157.443 26.6133 156.952 26.672 156.451 26.736C155.95 26.8 155.464 26.8747 154.995 26.96C154.536 27.0347 154.12 27.1093 153.747 27.184L153.539 24.992ZM174.163 24.56C174.12 24.752 174.083 24.9707 174.051 25.216C174.03 25.4613 174.008 25.7013 173.987 25.936C173.976 26.1707 173.971 26.3627 173.971 26.512C173.96 26.864 173.955 27.2267 173.955 27.6C173.966 27.9733 173.976 28.3573 173.987 28.752C174.008 29.136 174.035 29.52 174.067 29.904C174.142 30.672 174.248 31.3493 174.387 31.936C174.526 32.5227 174.707 32.9813 174.931 33.312C175.155 33.632 175.438 33.792 175.779 33.792C175.96 33.792 176.136 33.6907 176.307 33.488C176.488 33.2853 176.648 33.024 176.787 32.704C176.936 32.3733 177.064 32.0267 177.171 31.664C177.288 31.3013 177.39 30.96 177.475 30.64L179.075 32.592C178.723 33.52 178.371 34.2613 178.019 34.816C177.678 35.36 177.32 35.7547 176.947 36C176.574 36.2347 176.168 36.352 175.731 36.352C175.155 36.352 174.606 36.16 174.083 35.776C173.571 35.392 173.134 34.7733 172.771 33.92C172.408 33.056 172.152 31.9093 172.003 30.48C171.95 29.9893 171.907 29.472 171.875 28.928C171.854 28.384 171.838 27.8667 171.827 27.376C171.827 26.8853 171.827 26.48 171.827 26.16C171.827 25.936 171.816 25.6693 171.795 25.36C171.774 25.0507 171.742 24.7733 171.699 24.528L174.163 24.56ZM182.163 24.928C182.462 25.2907 182.75 25.7333 183.027 26.256C183.304 26.7787 183.56 27.3387 183.795 27.936C184.03 28.5333 184.238 29.1467 184.419 29.776C184.6 30.3947 184.744 31.0027 184.851 31.6C184.968 32.1867 185.043 32.7253 185.075 33.216L182.963 34.032C182.91 33.3813 182.814 32.672 182.675 31.904C182.536 31.136 182.35 30.3627 182.115 29.584C181.88 28.8053 181.598 28.0693 181.267 27.376C180.947 26.6827 180.568 26.0853 180.131 25.584L182.163 24.928ZM191.123 23.808C191.347 23.84 191.587 23.8613 191.843 23.872C192.099 23.8827 192.344 23.888 192.579 23.888C192.75 23.888 193.006 23.888 193.347 23.888C193.688 23.8773 194.072 23.8667 194.499 23.856C194.936 23.8453 195.368 23.8347 195.795 23.824C196.222 23.8133 196.606 23.8027 196.947 23.792C197.299 23.7707 197.571 23.7547 197.763 23.744C198.094 23.712 198.355 23.6853 198.547 23.664C198.739 23.632 198.883 23.6 198.979 23.568L200.019 24.992C199.838 25.1093 199.651 25.2267 199.459 25.344C199.267 25.4613 199.08 25.5893 198.899 25.728C198.686 25.8773 198.43 26.0747 198.131 26.32C197.832 26.5547 197.512 26.8053 197.171 27.072C196.84 27.3387 196.515 27.6 196.195 27.856C195.886 28.112 195.603 28.3413 195.347 28.544C195.614 28.48 195.87 28.4373 196.115 28.416C196.36 28.384 196.611 28.368 196.867 28.368C197.774 28.368 198.584 28.544 199.299 28.896C200.024 29.248 200.595 29.728 201.011 30.336C201.438 30.9333 201.651 31.6213 201.651 32.4C201.651 33.2427 201.438 34.0053 201.011 34.688C200.584 35.3707 199.939 35.9147 199.075 36.32C198.222 36.7253 197.15 36.928 195.859 36.928C195.123 36.928 194.456 36.8213 193.859 36.608C193.272 36.3947 192.808 36.0907 192.467 35.696C192.126 35.3013 191.955 34.8373 191.955 34.304C191.955 33.8667 192.072 33.4613 192.307 33.088C192.552 32.704 192.888 32.3947 193.315 32.16C193.752 31.9253 194.254 31.808 194.819 31.808C195.555 31.808 196.174 31.9573 196.675 32.256C197.187 32.544 197.576 32.9333 197.843 33.424C198.12 33.9147 198.264 34.4533 198.275 35.04L196.403 35.296C196.392 34.7093 196.243 34.24 195.955 33.888C195.678 33.5253 195.304 33.344 194.835 33.344C194.536 33.344 194.296 33.424 194.115 33.584C193.934 33.7333 193.843 33.9093 193.843 34.112C193.843 34.4107 193.992 34.6507 194.291 34.832C194.59 35.0133 194.979 35.104 195.459 35.104C196.366 35.104 197.123 34.9973 197.731 34.784C198.339 34.56 198.792 34.2453 199.091 33.84C199.4 33.424 199.555 32.9333 199.555 32.368C199.555 31.888 199.406 31.4667 199.107 31.104C198.819 30.7413 198.424 30.4587 197.923 30.256C197.422 30.0533 196.856 29.952 196.227 29.952C195.608 29.952 195.043 30.032 194.531 30.192C194.019 30.3413 193.534 30.56 193.075 30.848C192.627 31.1253 192.184 31.4667 191.747 31.872C191.32 32.2667 190.894 32.7093 190.467 33.2L189.011 31.696C189.299 31.4613 189.624 31.2 189.987 30.912C190.35 30.6133 190.718 30.304 191.091 29.984C191.475 29.664 191.832 29.3653 192.163 29.088C192.504 28.8 192.792 28.56 193.027 28.368C193.251 28.1867 193.512 27.9733 193.811 27.728C194.11 27.4827 194.419 27.232 194.739 26.976C195.059 26.7093 195.363 26.4587 195.651 26.224C195.939 25.9787 196.179 25.7707 196.371 25.6C196.211 25.6 196.003 25.6053 195.747 25.616C195.491 25.6267 195.208 25.6373 194.899 25.648C194.6 25.6587 194.296 25.6693 193.987 25.68C193.688 25.6907 193.406 25.7067 193.139 25.728C192.883 25.7387 192.67 25.7493 192.499 25.76C192.286 25.7707 192.062 25.7867 191.827 25.808C191.592 25.8293 191.379 25.856 191.187 25.888L191.123 23.808ZM212.179 23.008C212.168 23.0933 212.152 23.2267 212.131 23.408C212.11 23.5787 212.088 23.7547 212.067 23.936C212.056 24.1067 212.046 24.2613 212.035 24.4C212.014 24.7093 211.992 25.0507 211.971 25.424C211.96 25.7867 211.95 26.1653 211.939 26.56C211.928 26.944 211.918 27.3333 211.907 27.728C211.907 28.1227 211.907 28.5067 211.907 28.88C211.907 29.3173 211.912 29.8027 211.923 30.336C211.934 30.8587 211.944 31.3813 211.955 31.904C211.976 32.416 211.987 32.8853 211.987 33.312C211.998 33.7387 212.003 34.0693 212.003 34.304C212.003 34.9653 211.928 35.4773 211.779 35.84C211.64 36.2027 211.438 36.4533 211.171 36.592C210.904 36.7413 210.595 36.816 210.243 36.816C209.859 36.816 209.448 36.736 209.011 36.576C208.574 36.4267 208.163 36.2133 207.779 35.936C207.406 35.6587 207.096 35.3387 206.851 34.976C206.616 34.6027 206.499 34.2027 206.499 33.776C206.499 33.264 206.691 32.7573 207.075 32.256C207.47 31.744 207.987 31.2747 208.627 30.848C209.278 30.4213 209.976 30.08 210.723 29.824C211.438 29.5573 212.174 29.3653 212.931 29.248C213.688 29.12 214.371 29.056 214.979 29.056C215.8 29.056 216.542 29.1947 217.203 29.472C217.864 29.7387 218.392 30.1333 218.787 30.656C219.182 31.1787 219.379 31.808 219.379 32.544C219.379 33.1627 219.262 33.7333 219.027 34.256C218.792 34.7787 218.414 35.232 217.891 35.616C217.379 35.9893 216.696 36.2827 215.843 36.496C215.48 36.5707 215.118 36.624 214.755 36.656C214.403 36.6987 214.067 36.7307 213.747 36.752L213.011 34.688C213.374 34.688 213.72 34.6827 214.051 34.672C214.392 34.6507 214.702 34.6187 214.979 34.576C215.416 34.4907 215.811 34.3627 216.163 34.192C216.515 34.0213 216.792 33.7973 216.995 33.52C217.198 33.2427 217.299 32.912 217.299 32.528C217.299 32.1653 217.198 31.856 216.995 31.6C216.803 31.344 216.531 31.1467 216.179 31.008C215.827 30.8693 215.416 30.8 214.947 30.8C214.275 30.8 213.592 30.8693 212.899 31.008C212.216 31.1467 211.56 31.3387 210.931 31.584C210.462 31.7653 210.04 31.9787 209.667 32.224C209.294 32.4587 209 32.704 208.787 32.96C208.574 33.216 208.467 33.4613 208.467 33.696C208.467 33.824 208.504 33.9467 208.579 34.064C208.664 34.1707 208.771 34.2667 208.899 34.352C209.027 34.4373 209.155 34.5067 209.283 34.56C209.422 34.6027 209.539 34.624 209.635 34.624C209.784 34.624 209.907 34.5813 210.003 34.496C210.099 34.4 210.147 34.2187 210.147 33.952C210.147 33.664 210.136 33.2533 210.115 32.72C210.104 32.176 210.088 31.5733 210.067 30.912C210.056 30.2507 210.051 29.5947 210.051 28.944C210.051 28.496 210.051 28.0427 210.051 27.584C210.062 27.1253 210.067 26.688 210.067 26.272C210.067 25.856 210.067 25.488 210.067 25.168C210.078 24.848 210.083 24.5973 210.083 24.416C210.083 24.2987 210.078 24.1493 210.067 23.968C210.056 23.7867 210.04 23.6053 210.019 23.424C210.008 23.232 209.992 23.0933 209.971 23.008H212.179ZM216.739 24.736C217.144 24.928 217.598 25.1627 218.099 25.44C218.611 25.7173 219.096 25.9947 219.555 26.272C220.024 26.5387 220.398 26.7787 220.675 26.992L219.715 28.624C219.512 28.4533 219.246 28.2613 218.915 28.048C218.595 27.8347 218.243 27.616 217.859 27.392C217.486 27.168 217.123 26.96 216.771 26.768C216.419 26.5653 216.115 26.4053 215.859 26.288L216.739 24.736ZM206.931 25.616C207.4 25.6693 207.811 25.7067 208.163 25.728C208.526 25.7387 208.851 25.744 209.139 25.744C209.555 25.744 210.014 25.728 210.515 25.696C211.016 25.6533 211.528 25.6 212.051 25.536C212.574 25.4613 213.08 25.376 213.571 25.28C214.072 25.184 214.526 25.0773 214.931 24.96L214.979 26.944C214.531 27.0507 214.046 27.1467 213.523 27.232C213 27.3067 212.472 27.376 211.939 27.44C211.416 27.504 210.915 27.552 210.435 27.584C209.966 27.616 209.555 27.632 209.203 27.632C208.67 27.632 208.232 27.6267 207.891 27.616C207.55 27.6053 207.24 27.584 206.963 27.552L206.931 25.616ZM223.667 23.312H238.003V24.928H223.667V23.312ZM227.059 22.4H228.947V25.984H227.059V22.4ZM232.643 22.4H234.547V25.984H232.643V22.4ZM229.443 29.552V30.384H232.163V29.552H229.443ZM229.443 27.584V28.384H232.163V27.584H229.443ZM227.747 26.336H233.939V31.632H227.747V26.336ZM229.939 25.168L231.827 25.456C231.667 25.7867 231.512 26.1013 231.363 26.4C231.214 26.688 231.08 26.9387 230.963 27.152L229.379 26.848C229.486 26.6027 229.592 26.3253 229.699 26.016C229.806 25.696 229.886 25.4133 229.939 25.168ZM236.035 25.76L237.699 26.528C237.379 26.944 237.032 27.3493 236.659 27.744C236.286 28.128 235.944 28.4587 235.635 28.736L234.147 28C234.35 27.7973 234.568 27.568 234.803 27.312C235.038 27.056 235.262 26.7893 235.475 26.512C235.699 26.2347 235.886 25.984 236.035 25.76ZM223.667 32.336H237.939V33.952H223.667V32.336ZM229.843 31.376H231.747V37.424H229.843V31.376ZM229.299 32.96L230.771 33.584C230.408 34 229.987 34.4 229.507 34.784C229.038 35.168 228.526 35.5253 227.971 35.856C227.416 36.176 226.84 36.4587 226.243 36.704C225.656 36.9493 225.059 37.1573 224.451 37.328C224.323 37.0933 224.147 36.8267 223.923 36.528C223.699 36.24 223.491 36.0107 223.299 35.84C223.875 35.712 224.451 35.552 225.027 35.36C225.614 35.1573 226.174 34.9333 226.707 34.688C227.24 34.4427 227.726 34.176 228.163 33.888C228.611 33.5893 228.99 33.28 229.299 32.96ZM232.195 33.056C232.611 33.4827 233.139 33.8773 233.779 34.24C234.43 34.592 235.144 34.896 235.923 35.152C236.702 35.408 237.502 35.6053 238.323 35.744C238.131 35.9253 237.923 36.1653 237.699 36.464C237.486 36.7627 237.315 37.0293 237.187 37.264C236.344 37.0613 235.523 36.784 234.723 36.432C233.934 36.08 233.203 35.664 232.531 35.184C231.87 34.704 231.299 34.176 230.819 33.6L232.195 33.056ZM223.907 26.752L225.299 25.792C225.672 26.0907 226.046 26.4373 226.419 26.832C226.803 27.2267 227.091 27.5893 227.283 27.92L225.795 28.976C225.635 28.656 225.368 28.288 224.995 27.872C224.632 27.4453 224.27 27.072 223.907 26.752ZM233.699 29.968L234.803 28.784C235.134 28.9653 235.496 29.168 235.891 29.392C236.286 29.616 236.664 29.8453 237.027 30.08C237.4 30.304 237.71 30.512 237.955 30.704L236.803 32.032C236.579 31.84 236.286 31.6213 235.923 31.376C235.571 31.1307 235.198 30.8853 234.803 30.64C234.419 30.384 234.051 30.16 233.699 29.968ZM223.587 30.384C224.067 30.224 224.627 30.0107 225.267 29.744C225.918 29.4667 226.584 29.184 227.267 28.896L227.667 30.416C227.112 30.6827 226.547 30.9547 225.971 31.232C225.406 31.5093 224.867 31.7653 224.355 32L223.587 30.384ZM249.859 25.04C249.752 25.8507 249.614 26.7147 249.443 27.632C249.272 28.5493 249.043 29.4773 248.755 30.416C248.446 31.4933 248.083 32.4213 247.667 33.2C247.251 33.9787 246.792 34.5813 246.291 35.008C245.8 35.424 245.262 35.632 244.675 35.632C244.088 35.632 243.544 35.4347 243.043 35.04C242.552 34.6347 242.158 34.08 241.859 33.376C241.571 32.672 241.427 31.872 241.427 30.976C241.427 30.048 241.614 29.1733 241.987 28.352C242.36 27.5307 242.878 26.8053 243.539 26.176C244.211 25.536 244.99 25.0347 245.875 24.672C246.771 24.3093 247.736 24.128 248.771 24.128C249.763 24.128 250.654 24.288 251.443 24.608C252.243 24.928 252.926 25.3707 253.491 25.936C254.056 26.5013 254.488 27.1627 254.787 27.92C255.086 28.6773 255.235 29.4933 255.235 30.368C255.235 31.488 255.006 32.4907 254.547 33.376C254.088 34.2613 253.406 34.992 252.499 35.568C251.603 36.144 250.483 36.5387 249.139 36.752L247.939 34.848C248.248 34.816 248.52 34.7787 248.755 34.736C248.99 34.6933 249.214 34.6453 249.427 34.592C249.939 34.464 250.414 34.2827 250.851 34.048C251.299 33.8027 251.688 33.504 252.019 33.152C252.35 32.7893 252.606 32.368 252.787 31.888C252.979 31.408 253.075 30.88 253.075 30.304C253.075 29.6747 252.979 29.0987 252.787 28.576C252.595 28.0533 252.312 27.6 251.939 27.216C251.566 26.8213 251.112 26.5227 250.579 26.32C250.046 26.1067 249.432 26 248.739 26C247.886 26 247.134 26.1547 246.483 26.464C245.832 26.7627 245.283 27.152 244.835 27.632C244.387 28.112 244.046 28.6293 243.811 29.184C243.587 29.7387 243.475 30.2667 243.475 30.768C243.475 31.3013 243.539 31.7493 243.667 32.112C243.795 32.464 243.95 32.7307 244.131 32.912C244.323 33.0827 244.526 33.168 244.739 33.168C244.963 33.168 245.182 33.056 245.395 32.832C245.619 32.5973 245.838 32.2453 246.051 31.776C246.264 31.3067 246.478 30.7147 246.691 30C246.936 29.232 247.144 28.4107 247.315 27.536C247.486 26.6613 247.608 25.808 247.683 24.976L249.859 25.04ZM265.363 23.856L266.611 22.368C267.048 22.5707 267.507 22.8107 267.987 23.088C268.478 23.3653 268.936 23.648 269.363 23.936C269.8 24.224 270.158 24.5013 270.435 24.768L269.043 26.432C268.798 26.1547 268.467 25.8613 268.051 25.552C267.646 25.2427 267.203 24.9387 266.723 24.64C266.254 24.3413 265.8 24.08 265.363 23.856ZM264.291 30.352H272.611V32.176H264.291V30.352ZM263.155 35.088H273.539V36.912H263.155V35.088ZM263.731 25.888H273.203V27.712H263.731V25.888ZM267.379 26.496H269.379V35.904H267.379V26.496ZM259.507 23.888L260.547 22.48C260.899 22.5973 261.267 22.752 261.651 22.944C262.035 23.1253 262.403 23.3227 262.755 23.536C263.107 23.7387 263.395 23.936 263.619 24.128L262.483 25.696C262.28 25.4933 262.008 25.2853 261.667 25.072C261.336 24.848 260.979 24.6347 260.595 24.432C260.222 24.2187 259.859 24.0373 259.507 23.888ZM258.435 28.256L259.427 26.8C259.779 26.9173 260.152 27.0613 260.547 27.232C260.942 27.392 261.315 27.5733 261.667 27.776C262.03 27.968 262.328 28.1493 262.563 28.32L261.491 29.936C261.288 29.744 261.011 29.5467 260.659 29.344C260.307 29.1413 259.939 28.944 259.555 28.752C259.171 28.5493 258.798 28.384 258.435 28.256ZM259.123 35.952C259.411 35.5467 259.731 35.072 260.083 34.528C260.435 33.9733 260.792 33.3867 261.155 32.768C261.518 32.1387 261.854 31.5147 262.163 30.896L263.571 32.176C263.294 32.7307 262.995 33.3013 262.675 33.888C262.366 34.4747 262.046 35.0507 261.715 35.616C261.395 36.1813 261.075 36.7253 260.755 37.248L259.123 35.952ZM280.179 31.664H287.123V30.96H280.179V31.664ZM280.179 29.84H287.123V29.152H280.179V29.84ZM289.027 27.984V32.848H278.355V27.984H289.027ZM287.715 24.768C287.544 25.0773 287.384 25.36 287.235 25.616C287.086 25.8613 286.952 26.0747 286.835 26.256L285.139 25.888C285.246 25.664 285.352 25.4187 285.459 25.152C285.566 24.8747 285.651 24.6293 285.715 24.416L287.715 24.768ZM281.459 24.416C281.587 24.64 281.699 24.8907 281.795 25.168C281.902 25.4347 281.982 25.6693 282.035 25.872L280.211 26.288C280.168 26.0747 280.099 25.824 280.003 25.536C279.918 25.248 279.822 24.992 279.715 24.768L281.459 24.416ZM284.547 22.4V24.336H282.627V22.4H284.547ZM290.579 25.904V27.392H276.675V25.904H290.579ZM289.731 23.264V24.752H277.443V23.264H289.731ZM279.763 33.952C279.539 34.56 279.251 35.1467 278.899 35.712C278.558 36.2667 278.104 36.736 277.539 37.12L276.035 36.096C276.536 35.7867 276.968 35.3867 277.331 34.896C277.694 34.4053 277.966 33.8987 278.147 33.376L279.763 33.952ZM288.531 33.184C288.862 33.4507 289.198 33.7547 289.539 34.096C289.88 34.4373 290.195 34.7787 290.483 35.12C290.771 35.4613 290.995 35.7867 291.155 36.096L289.571 37.024C289.422 36.736 289.208 36.4107 288.931 36.048C288.664 35.696 288.366 35.344 288.035 34.992C287.704 34.6293 287.374 34.304 287.043 34.016L288.531 33.184ZM282.963 32.48C283.272 32.608 283.592 32.7573 283.923 32.928C284.264 33.0987 284.584 33.2747 284.883 33.456C285.192 33.6267 285.443 33.7973 285.635 33.968L284.531 35.088C284.35 34.9173 284.11 34.7413 283.811 34.56C283.523 34.368 283.214 34.1813 282.883 34C282.552 33.808 282.238 33.6427 281.939 33.504L282.963 32.48ZM282.035 35.248C282.035 35.4613 282.088 35.5947 282.195 35.648C282.312 35.6907 282.552 35.712 282.915 35.712C283 35.712 283.139 35.712 283.331 35.712C283.523 35.712 283.736 35.712 283.971 35.712C284.206 35.712 284.424 35.712 284.627 35.712C284.84 35.712 285 35.712 285.107 35.712C285.31 35.712 285.459 35.6853 285.555 35.632C285.651 35.568 285.72 35.4453 285.763 35.264C285.816 35.072 285.854 34.7893 285.875 34.416C286.067 34.544 286.323 34.6667 286.643 34.784C286.974 34.8907 287.262 34.9653 287.507 35.008C287.443 35.616 287.331 36.08 287.171 36.4C287.011 36.7307 286.782 36.9547 286.483 37.072C286.195 37.2 285.795 37.264 285.283 37.264C285.198 37.264 285.064 37.264 284.883 37.264C284.712 37.264 284.52 37.264 284.307 37.264C284.094 37.264 283.88 37.264 283.667 37.264C283.454 37.264 283.256 37.264 283.075 37.264C282.904 37.264 282.776 37.264 282.691 37.264C282.019 37.264 281.502 37.2053 281.139 37.088C280.776 36.9707 280.526 36.7627 280.387 36.464C280.248 36.176 280.179 35.7813 280.179 35.28V33.584H282.035V35.248ZM300.163 22.4H302.115V35.6C302.115 36.0693 302.051 36.4213 301.923 36.656C301.795 36.8907 301.576 37.0773 301.267 37.216C300.958 37.3333 300.574 37.408 300.115 37.44C299.667 37.472 299.102 37.488 298.419 37.488C298.376 37.264 298.291 37.0027 298.163 36.704C298.035 36.416 297.907 36.1707 297.779 35.968C298.046 35.9787 298.312 35.9893 298.579 36C298.846 36 299.086 36 299.299 36C299.523 36 299.678 36 299.763 36C299.912 35.9893 300.014 35.9573 300.067 35.904C300.131 35.8507 300.163 35.7493 300.163 35.6V22.4ZM294.179 23.456H308.259V24.96H294.179V23.456ZM297.651 26.832V27.584H304.707V26.832H297.651ZM295.811 25.616H306.675V28.8H295.811V25.616ZM295.427 29.52H306.947V35.776H304.995V30.816H295.427V29.52ZM293.811 31.504H308.627V32.96H293.811V31.504ZM295.299 33.696H306.051V35.088H295.299V33.696ZM311.523 24.128H317.043V25.904H311.523V24.128ZM313.315 25.168H315.251V32.736H313.315V25.168ZM311.091 32.736C311.603 32.5867 312.19 32.4107 312.851 32.208C313.523 32.0053 314.232 31.7867 314.979 31.552C315.736 31.3173 316.483 31.0773 317.219 30.832L317.539 32.512C316.558 32.8747 315.571 33.2373 314.579 33.6C313.587 33.9627 312.691 34.2827 311.891 34.56L311.091 32.736ZM317.235 23.056H326.355V24.656H317.235V23.056ZM319.683 29.504V30.528H323.875V29.504H319.683ZM319.683 31.84V32.864H323.875V31.84H319.683ZM319.683 27.184V28.192H323.875V27.184H319.683ZM317.891 25.776H325.747V34.256H317.891V25.776ZM320.707 23.936L322.947 24.208C322.787 24.7093 322.616 25.2 322.435 25.68C322.264 26.16 322.104 26.5707 321.955 26.912L320.243 26.608C320.339 26.2133 320.43 25.7707 320.515 25.28C320.611 24.7893 320.675 24.3413 320.707 23.936ZM319.587 34.224L321.139 35.328C320.787 35.5947 320.376 35.856 319.907 36.112C319.438 36.3787 318.947 36.624 318.435 36.848C317.934 37.0827 317.448 37.2747 316.979 37.424C316.851 37.2427 316.67 37.0187 316.435 36.752C316.211 36.496 316.003 36.2827 315.811 36.112C316.259 35.9627 316.723 35.7867 317.203 35.584C317.683 35.3707 318.131 35.1467 318.547 34.912C318.974 34.6667 319.32 34.4373 319.587 34.224ZM322.003 35.328L323.427 34.304C323.768 34.4853 324.136 34.6933 324.531 34.928C324.936 35.1627 325.326 35.4027 325.699 35.648C326.072 35.8933 326.382 36.1173 326.627 36.32L325.107 37.456C324.883 37.2533 324.595 37.024 324.243 36.768C323.891 36.5227 323.518 36.272 323.123 36.016C322.728 35.76 322.355 35.5307 322.003 35.328Z" fill="#13293A"/>
<circle cx="350.5" cy="29.5" r="9.5" fill="#F6931A"/>
<path d="M348 25L354.5 29.5L348 34" stroke="white" stroke-width="2" stroke-linecap="round" stroke-linejoin="round"/>
<line x1="15" y1="58.5" x2="375" y2="58.5" stroke="#13293A"/>
</svg>
