<?xml version="1.0" encoding="UTF-8"?>
<svg id="_レイヤー_2" data-name="レイヤー_2" xmlns="http://www.w3.org/2000/svg" viewBox="0 0 34.03 33.55">
  <defs>
    <style>
      .cls-1 {
        fill: #2c66ad;
      }

      .cls-2 {
        fill: #fff;
      }
    </style>
  </defs>
  <g id="_レイヤー_1-2" data-name="レイヤー_1">
    <g>
      <ellipse class="cls-1" cx="17.01" cy="16.77" rx="17.01" ry="16.77"/>
      <path class="cls-2" d="M16.75,21.42c-1.05,0-1.97-.25-2.77-.74-.79-.5-1.41-1.22-1.86-2.14s-.67-2.04-.67-3.33.22-2.37.67-3.28c.45-.91,1.07-1.6,1.86-2.08.8-.48,1.72-.72,2.77-.72s1.98.25,2.77.74c.79.48,1.41,1.17,1.86,2.08.45.9.67,1.98.67,3.26s-.22,2.4-.67,3.33-1.07,1.64-1.86,2.14c-.79.49-1.71.74-2.77.74ZM16.75,19.49c.59,0,1.09-.17,1.52-.51.44-.34.77-.83,1.01-1.47.23-.64.35-1.4.35-2.29s-.12-1.56-.35-2.16c-.23-.61-.57-1.07-1.01-1.39-.43-.33-.93-.5-1.52-.5s-1.1.17-1.54.5c-.43.32-.76.78-.99,1.39-.22.6-.34,1.32-.34,2.16,0,.89.11,1.65.34,2.29.23.64.57,1.13.99,1.47.44.34.95.51,1.54.51ZM20.59,24.41c-.84,0-1.59-.14-2.26-.43-.66-.29-1.22-.68-1.68-1.18-.46-.49-.82-1.05-1.07-1.68l2.4-.24c.16.38.38.7.67.94.3.25.64.42,1.02.53.38.12.77.18,1.17.18.26,0,.49-.02.7-.06.22-.04.42-.09.59-.14l.43,1.74c-.21.1-.49.18-.83.24-.34.07-.73.11-1.15.11Z"/>
    </g>
  </g>
</svg>