<svg width="390" height="115" viewBox="0 0 390 115" fill="none" xmlns="http://www.w3.org/2000/svg">
<rect width="390" height="115" fill="#FFFBEC"/>
<path d="M118.368 79V43.432H130.032C132.656 43.432 135.008 43.784 137.088 44.488C139.2 45.192 140.864 46.36 142.08 47.992C143.328 49.592 143.952 51.8 143.952 54.616C143.952 57.304 143.328 59.528 142.08 61.288C140.864 63.016 139.216 64.296 137.136 65.128C135.088 65.96 132.784 66.376 130.224 66.376H125.472V79H118.368ZM125.472 60.76H129.744C132.176 60.76 133.984 60.248 135.168 59.224C136.384 58.2 136.992 56.664 136.992 54.616C136.992 52.568 136.352 51.144 135.072 50.344C133.824 49.512 131.968 49.096 129.504 49.096H125.472V60.76ZM155.184 79V43.432H167.52C170.048 43.432 172.32 43.768 174.336 44.44C176.352 45.08 177.952 46.2 179.136 47.8C180.32 49.368 180.912 51.512 180.912 54.232C180.912 56.856 180.32 59.016 179.136 60.712C177.952 62.376 176.352 63.608 174.336 64.408C172.32 65.176 170.048 65.56 167.52 65.56H162.288V79H155.184ZM162.288 59.944H166.896C169.2 59.944 170.944 59.464 172.128 58.504C173.344 57.544 173.952 56.12 173.952 54.232C173.952 52.312 173.344 50.984 172.128 50.248C170.944 49.48 169.2 49.096 166.896 49.096H162.288V59.944ZM174.48 79L166.224 63.736L171.216 59.32L182.448 79H174.48ZM192.702 79V43.432H199.806V79H192.702ZM227.794 79.672C225.554 79.672 223.458 79.288 221.506 78.52C219.554 77.72 217.826 76.536 216.322 74.968C214.85 73.4 213.682 71.48 212.818 69.208C211.986 66.936 211.57 64.328 211.57 61.384C211.57 58.44 212.002 55.832 212.866 53.56C213.73 51.256 214.914 49.304 216.418 47.704C217.954 46.104 219.714 44.888 221.698 44.056C223.714 43.224 225.842 42.808 228.082 42.808C230.354 42.808 232.37 43.272 234.13 44.2C235.922 45.096 237.378 46.152 238.498 47.368L234.802 51.88C233.906 50.984 232.914 50.264 231.826 49.72C230.77 49.176 229.57 48.904 228.226 48.904C226.434 48.904 224.818 49.4 223.378 50.392C221.97 51.352 220.866 52.744 220.066 54.568C219.266 56.392 218.866 58.584 218.866 61.144C218.866 63.736 219.234 65.96 219.97 67.816C220.738 69.64 221.81 71.048 223.186 72.04C224.594 73.032 226.226 73.528 228.082 73.528C229.618 73.528 230.978 73.208 232.162 72.568C233.378 71.896 234.45 71.048 235.378 70.024L239.17 74.44C237.698 76.168 236.018 77.48 234.13 78.376C232.242 79.24 230.13 79.672 227.794 79.672ZM249.646 79V43.432H271.438V49.384H256.75V57.592H269.182V63.544H256.75V73.048H271.966V79H249.646Z" fill="#F6931A"/>
<path d="M68.3196 46L80.7846 80.727" stroke="#F6931A" stroke-width="2" stroke-linecap="round" stroke-linejoin="round"/>
<path d="M58 46L70.465 80.727" stroke="#F6931A" stroke-width="2" stroke-linecap="round" stroke-linejoin="round"/>
<path d="M321.476 46L309 80.727" stroke="#F6931A" stroke-width="2" stroke-linecap="round" stroke-linejoin="round"/>
<path d="M331.796 46L319.32 80.727" stroke="#F6931A" stroke-width="2" stroke-linecap="round" stroke-linejoin="round"/>
</svg>
