<svg width="382" height="83" viewBox="0 0 382 83" fill="none" xmlns="http://www.w3.org/2000/svg">
<path d="M5.21474 57V14.763H19.0657C22.1817 14.763 24.9747 15.181 27.4447 16.017C29.9527 16.853 31.9287 18.24 33.3727 20.178C34.8547 22.078 35.5957 24.7 35.5957 28.044C35.5957 31.236 34.8547 33.877 33.3727 35.967C31.9287 38.019 29.9717 39.539 27.5017 40.527C25.0697 41.515 22.3337 42.009 19.2937 42.009H13.6507V57H5.21474ZM13.6507 35.34H18.7237C21.6117 35.34 23.7587 34.732 25.1647 33.516C26.6087 32.3 27.3307 30.476 27.3307 28.044C27.3307 25.612 26.5707 23.921 25.0507 22.971C23.5687 21.983 21.3647 21.489 18.4387 21.489H13.6507V35.34ZM48.9333 57V14.763H63.5823C66.5843 14.763 69.2823 15.162 71.6763 15.96C74.0703 16.72 75.9703 18.05 77.3763 19.95C78.7823 21.812 79.4853 24.358 79.4853 27.588C79.4853 30.704 78.7823 33.269 77.3763 35.283C75.9703 37.259 74.0703 38.722 71.6763 39.672C69.2823 40.584 66.5843 41.04 63.5823 41.04H57.3693V57H48.9333ZM57.3693 34.371H62.8413C65.5773 34.371 67.6483 33.801 69.0543 32.661C70.4983 31.521 71.2203 29.83 71.2203 27.588C71.2203 25.308 70.4983 23.731 69.0543 22.857C67.6483 21.945 65.5773 21.489 62.8413 21.489H57.3693V34.371ZM71.8473 57L62.0433 38.874L67.9713 33.63L81.3093 57H71.8473ZM93.4868 57V14.763H101.923V57H93.4868ZM135.158 57.798C132.498 57.798 130.009 57.342 127.691 56.43C125.373 55.48 123.321 54.074 121.535 52.212C119.787 50.35 118.4 48.07 117.374 45.372C116.386 42.674 115.892 39.577 115.892 36.081C115.892 32.585 116.405 29.488 117.431 26.79C118.457 24.054 119.863 21.736 121.649 19.836C123.473 17.936 125.563 16.492 127.919 15.504C130.313 14.516 132.84 14.022 135.5 14.022C138.198 14.022 140.592 14.573 142.682 15.675C144.81 16.739 146.539 17.993 147.869 19.437L143.48 24.795C142.416 23.731 141.238 22.876 139.946 22.23C138.692 21.584 137.267 21.261 135.671 21.261C133.543 21.261 131.624 21.85 129.914 23.028C128.242 24.168 126.931 25.821 125.981 27.987C125.031 30.153 124.556 32.756 124.556 35.796C124.556 38.874 124.993 41.515 125.867 43.719C126.779 45.885 128.052 47.557 129.686 48.735C131.358 49.913 133.296 50.502 135.5 50.502C137.324 50.502 138.939 50.122 140.345 49.362C141.789 48.564 143.062 47.557 144.164 46.341L148.667 51.585C146.919 53.637 144.924 55.195 142.682 56.259C140.44 57.285 137.932 57.798 135.158 57.798ZM161.108 57V14.763H186.986V21.831H169.544V31.578H184.307V38.646H169.544V49.932H187.613V57H161.108ZM220.49 57V14.763H234.341C237.457 14.763 240.25 15.181 242.72 16.017C245.228 16.853 247.204 18.24 248.648 20.178C250.13 22.078 250.871 24.7 250.871 28.044C250.871 31.236 250.13 33.877 248.648 35.967C247.204 38.019 245.247 39.539 242.777 40.527C240.345 41.515 237.609 42.009 234.569 42.009H228.926V57H220.49ZM228.926 35.34H233.999C236.887 35.34 239.034 34.732 240.44 33.516C241.884 32.3 242.606 30.476 242.606 28.044C242.606 25.612 241.846 23.921 240.326 22.971C238.844 21.983 236.64 21.489 233.714 21.489H228.926V35.34ZM264.208 57V14.763H272.644V49.932H289.801V57H264.208ZM296.834 57L310.343 14.763H320.318L333.827 57H324.935L318.95 34.998C318.304 32.794 317.677 30.514 317.069 28.158C316.499 25.764 315.891 23.446 315.245 21.204H315.017C314.485 23.484 313.896 25.802 313.25 28.158C312.642 30.514 312.034 32.794 311.426 34.998L305.384 57H296.834ZM305.213 46.17V39.615H325.277V46.17H305.213ZM344.465 57V14.763H353.072L365.327 37.278L369.602 46.398H369.887C369.659 44.194 369.412 41.781 369.146 39.159C368.88 36.537 368.747 34.029 368.747 31.635V14.763H376.727V57H368.12L355.979 34.428L351.704 25.365H351.419C351.609 27.645 351.837 30.058 352.103 32.604C352.369 35.15 352.502 37.639 352.502 40.071V57H344.465Z" fill="#FFEAD0"/>
<path d="M101.14 45.58H105.1V79.132H101.14V45.58ZM95.668 57.424H110.428V61.456H95.668V57.424ZM100.348 59.548L102.76 60.736C102.448 61.936 102.088 63.208 101.68 64.552C101.272 65.872 100.816 67.192 100.312 68.512C99.808 69.832 99.28 71.08 98.728 72.256C98.176 73.408 97.588 74.416 96.964 75.28C96.844 74.824 96.664 74.332 96.424 73.804C96.208 73.252 95.968 72.712 95.704 72.184C95.464 71.656 95.236 71.2 95.02 70.816C95.74 69.928 96.436 68.836 97.108 67.54C97.804 66.22 98.44 64.864 99.016 63.472C99.592 62.056 100.036 60.748 100.348 59.548ZM105.064 61.636C105.256 61.828 105.532 62.128 105.892 62.536C106.276 62.944 106.696 63.412 107.152 63.94C107.608 64.444 108.04 64.96 108.448 65.488C108.88 65.992 109.264 66.448 109.6 66.856C109.96 67.264 110.212 67.576 110.356 67.792L107.728 71.176C107.488 70.648 107.176 70.036 106.792 69.34C106.408 68.62 105.988 67.888 105.532 67.144C105.076 66.376 104.632 65.656 104.2 64.984C103.768 64.312 103.396 63.76 103.084 63.328L105.064 61.636ZM95.632 48.352L98.656 47.56C98.968 48.424 99.244 49.36 99.484 50.368C99.748 51.376 99.964 52.36 100.132 53.32C100.3 54.28 100.42 55.144 100.492 55.912L97.252 56.776C97.228 56.008 97.132 55.144 96.964 54.184C96.82 53.2 96.628 52.204 96.388 51.196C96.172 50.164 95.92 49.216 95.632 48.352ZM107.476 47.38L111.112 48.172C110.824 49.156 110.512 50.164 110.176 51.196C109.84 52.228 109.504 53.224 109.168 54.184C108.832 55.12 108.52 55.948 108.232 56.668L105.496 55.876C105.76 55.108 106.012 54.232 106.252 53.248C106.516 52.24 106.756 51.22 106.972 50.188C107.188 49.156 107.356 48.22 107.476 47.38ZM121.12 45.4H125.152V79.204H121.12V45.4ZM110.356 67.936L128.86 64.624L129.508 68.62L111.004 71.968L110.356 67.936ZM112.372 50.296L114.496 47.38C115.168 47.764 115.864 48.208 116.584 48.712C117.328 49.216 118.024 49.732 118.672 50.26C119.344 50.788 119.872 51.28 120.256 51.736L118.024 54.976C117.664 54.496 117.16 53.98 116.512 53.428C115.888 52.876 115.216 52.324 114.496 51.772C113.776 51.22 113.068 50.728 112.372 50.296ZM110.752 59.368L112.768 56.272C113.488 56.632 114.232 57.064 115 57.568C115.768 58.048 116.5 58.54 117.196 59.044C117.892 59.524 118.456 59.992 118.888 60.448L116.692 63.904C116.308 63.448 115.78 62.956 115.108 62.428C114.436 61.876 113.716 61.336 112.948 60.808C112.204 60.256 111.472 59.776 110.752 59.368ZM151.756 49.54C150.772 50.908 149.524 52.324 148.012 53.788C146.524 55.252 144.868 56.656 143.044 58C141.244 59.344 139.36 60.544 137.392 61.6C137.2 61.24 136.948 60.844 136.636 60.412C136.348 59.98 136.024 59.56 135.664 59.152C135.328 58.744 135.004 58.384 134.692 58.072C136.756 57.088 138.736 55.876 140.632 54.436C142.528 52.972 144.22 51.448 145.708 49.864C147.22 48.28 148.42 46.756 149.308 45.292H153.808C154.792 46.66 155.872 47.968 157.048 49.216C158.224 50.464 159.484 51.616 160.828 52.672C162.172 53.728 163.552 54.676 164.968 55.516C166.384 56.356 167.812 57.064 169.252 57.64C168.7 58.192 168.184 58.816 167.704 59.512C167.224 60.208 166.78 60.88 166.372 61.528C165.004 60.808 163.612 59.98 162.196 59.044C160.804 58.108 159.46 57.112 158.164 56.056C156.868 54.976 155.668 53.884 154.564 52.78C153.46 51.676 152.524 50.596 151.756 49.54ZM142.756 56.2H160.864V59.98H142.756V56.2ZM138.436 63.544H165.112V67.288H138.436V63.544ZM136.636 74.488H167.236V78.196H136.636V74.488ZM149.416 57.712H153.988V76.36H149.416V57.712ZM140.704 68.656L144.16 67.216C144.616 67.816 145.06 68.476 145.492 69.196C145.948 69.916 146.356 70.624 146.716 71.32C147.076 72.016 147.34 72.64 147.508 73.192L143.8 74.848C143.656 74.296 143.416 73.66 143.08 72.94C142.744 72.196 142.372 71.452 141.964 70.708C141.556 69.964 141.136 69.28 140.704 68.656ZM158.992 67.252L163.132 68.764C162.412 69.868 161.668 70.972 160.9 72.076C160.132 73.156 159.424 74.08 158.776 74.848L155.536 73.48C155.944 72.904 156.364 72.268 156.796 71.572C157.228 70.852 157.636 70.12 158.02 69.376C158.404 68.608 158.728 67.9 158.992 67.252ZM202.444 49.612C202.444 50.188 202.648 50.68 203.056 51.088C203.464 51.472 203.944 51.664 204.496 51.664C205.072 51.664 205.564 51.472 205.972 51.088C206.38 50.68 206.584 50.188 206.584 49.612C206.584 49.036 206.38 48.544 205.972 48.136C205.564 47.728 205.072 47.524 204.496 47.524C203.944 47.524 203.464 47.728 203.056 48.136C202.648 48.544 202.444 49.036 202.444 49.612ZM200.212 49.612C200.212 48.82 200.404 48.1 200.788 47.452C201.196 46.78 201.724 46.252 202.372 45.868C203.02 45.484 203.728 45.292 204.496 45.292C205.288 45.292 206.008 45.484 206.656 45.868C207.328 46.252 207.856 46.78 208.24 47.452C208.624 48.1 208.816 48.82 208.816 49.612C208.816 50.38 208.624 51.088 208.24 51.736C207.856 52.384 207.328 52.912 206.656 53.32C206.008 53.704 205.288 53.896 204.496 53.896C203.728 53.896 203.02 53.704 202.372 53.32C201.724 52.912 201.196 52.384 200.788 51.736C200.404 51.088 200.212 50.38 200.212 49.612ZM204.568 52.456C204.4 52.792 204.256 53.2 204.136 53.68C204.016 54.136 203.896 54.556 203.776 54.94C203.584 55.828 203.332 56.824 203.02 57.928C202.708 59.008 202.336 60.136 201.904 61.312C201.472 62.488 200.956 63.652 200.356 64.804C199.78 65.956 199.12 67.036 198.376 68.044C197.296 69.484 196.036 70.828 194.596 72.076C193.156 73.324 191.548 74.452 189.772 75.46C187.996 76.468 186.04 77.32 183.904 78.016L179.98 73.696C182.38 73.12 184.444 72.412 186.172 71.572C187.9 70.732 189.4 69.772 190.672 68.692C191.968 67.612 193.108 66.46 194.092 65.236C194.884 64.228 195.556 63.136 196.108 61.96C196.684 60.784 197.152 59.608 197.512 58.432C197.896 57.232 198.16 56.116 198.304 55.084C197.944 55.084 197.344 55.084 196.504 55.084C195.688 55.084 194.716 55.084 193.588 55.084C192.484 55.084 191.32 55.084 190.096 55.084C188.896 55.084 187.732 55.084 186.604 55.084C185.476 55.084 184.456 55.084 183.544 55.084C182.656 55.084 181.996 55.084 181.564 55.084C180.724 55.084 179.908 55.096 179.116 55.12C178.348 55.144 177.736 55.18 177.28 55.228V50.152C177.64 50.2 178.072 50.248 178.576 50.296C179.104 50.344 179.632 50.38 180.16 50.404C180.712 50.428 181.18 50.44 181.564 50.44C181.948 50.44 182.488 50.44 183.184 50.44C183.904 50.44 184.732 50.44 185.668 50.44C186.604 50.44 187.576 50.44 188.584 50.44C189.616 50.44 190.636 50.44 191.644 50.44C192.676 50.44 193.636 50.44 194.524 50.44C195.412 50.44 196.18 50.44 196.828 50.44C197.476 50.44 197.944 50.44 198.232 50.44C198.592 50.44 199.024 50.428 199.528 50.404C200.056 50.38 200.56 50.296 201.04 50.152L204.568 52.456ZM221.128 48.388C221.632 48.46 222.232 48.508 222.928 48.532C223.624 48.556 224.272 48.568 224.872 48.568C225.328 48.568 226.024 48.568 226.96 48.568C227.92 48.568 228.976 48.568 230.128 48.568C231.304 48.568 232.468 48.568 233.62 48.568C234.772 48.568 235.804 48.568 236.716 48.568C237.628 48.568 238.3 48.568 238.732 48.568C239.284 48.568 239.944 48.556 240.712 48.532C241.48 48.508 242.116 48.46 242.62 48.388V53.032C242.14 52.984 241.516 52.96 240.748 52.96C240.004 52.936 239.308 52.924 238.66 52.924C238.276 52.924 237.616 52.924 236.68 52.924C235.768 52.924 234.724 52.924 233.548 52.924C232.396 52.924 231.232 52.924 230.056 52.924C228.904 52.924 227.86 52.924 226.924 52.924C225.988 52.924 225.304 52.924 224.872 52.924C224.296 52.924 223.66 52.936 222.964 52.96C222.292 52.984 221.68 53.008 221.128 53.032V48.388ZM245.644 58.828C245.524 59.068 245.392 59.332 245.248 59.62C245.128 59.908 245.032 60.148 244.96 60.34C244.408 62.068 243.712 63.796 242.872 65.524C242.056 67.228 240.976 68.824 239.632 70.312C237.832 72.328 235.816 73.972 233.584 75.244C231.352 76.492 229.084 77.44 226.78 78.088L223.216 74.02C225.928 73.444 228.34 72.604 230.452 71.5C232.564 70.396 234.304 69.136 235.672 67.72C236.632 66.736 237.4 65.704 237.976 64.624C238.576 63.52 239.044 62.476 239.38 61.492C239.116 61.492 238.66 61.492 238.012 61.492C237.364 61.492 236.584 61.492 235.672 61.492C234.784 61.492 233.824 61.492 232.792 61.492C231.76 61.492 230.704 61.492 229.624 61.492C228.544 61.492 227.512 61.492 226.528 61.492C225.544 61.492 224.656 61.492 223.864 61.492C223.096 61.492 222.472 61.492 221.992 61.492C221.56 61.492 220.948 61.504 220.156 61.528C219.364 61.552 218.584 61.6 217.816 61.672V56.992C218.584 57.04 219.328 57.088 220.048 57.136C220.792 57.184 221.44 57.208 221.992 57.208C222.352 57.208 222.892 57.208 223.612 57.208C224.356 57.208 225.208 57.208 226.168 57.208C227.128 57.208 228.148 57.208 229.228 57.208C230.332 57.208 231.424 57.208 232.504 57.208C233.608 57.208 234.652 57.208 235.636 57.208C236.62 57.208 237.472 57.208 238.192 57.208C238.912 57.208 239.452 57.208 239.812 57.208C240.388 57.208 240.904 57.172 241.36 57.1C241.84 57.028 242.2 56.944 242.44 56.848L245.644 58.828ZM261.376 48.64C262 49.072 262.732 49.6 263.572 50.224C264.412 50.848 265.276 51.532 266.164 52.276C267.076 52.996 267.928 53.704 268.72 54.4C269.512 55.096 270.16 55.72 270.664 56.272L266.992 60.016C266.536 59.512 265.936 58.912 265.192 58.216C264.448 57.52 263.644 56.8 262.78 56.056C261.916 55.312 261.064 54.604 260.224 53.932C259.384 53.26 258.64 52.696 257.992 52.24L261.376 48.64ZM256.876 72.616C258.748 72.352 260.512 71.98 262.168 71.5C263.824 71.02 265.36 70.468 266.776 69.844C268.192 69.22 269.488 68.572 270.664 67.9C272.704 66.676 274.576 65.284 276.28 63.724C277.984 62.164 279.472 60.544 280.744 58.864C282.016 57.16 283.024 55.504 283.768 53.896L286.576 58.972C285.664 60.58 284.536 62.188 283.192 63.796C281.872 65.404 280.372 66.94 278.692 68.404C277.012 69.844 275.2 71.14 273.256 72.292C272.032 73.036 270.712 73.744 269.296 74.416C267.88 75.064 266.38 75.64 264.796 76.144C263.236 76.672 261.604 77.08 259.9 77.368L256.876 72.616Z" fill="#F6931A"/>
</svg>
